<?xml version="1.0" standalone="no"?>
<!DOCTYPE svg PUBLIC "-//W3C//DTD SVG 1.1//EN" "http://www.w3.org/Graphics/SVG/1.1/DTD/svg11.dtd" >
<svg xmlns="http://www.w3.org/2000/svg" xmlns:xlink="http://www.w3.org/1999/xlink" version="1.1">
<metadata>
Created by FontForge 20161003 at Sat Mar  3 11:06:24 2018
 By www-data
Copyright 2015 Nissan Motors Co., Ltd. All rights reserved.
</metadata>
<defs>
<font id="NissanBrand-Bold" horiz-adv-x="400" >
  <font-face 
    font-family="Nissan Brand"
    font-weight="700"
    font-stretch="normal"
    units-per-em="1000"
    panose-1="2 11 8 4 2 2 4 3 2 4"
    ascent="746"
    descent="-254"
    x-height="513"
    cap-height="650"
    bbox="-233 -300 1275 1058"
    underline-thickness="50"
    underline-position="-100"
    stemh="131"
    stemv="155"
    unicode-range="U+000D-FEFF"
  />
<missing-glyph horiz-adv-x="542" 
d="M542 750v-750h-542v750h542zM394 145v460h-246v-460h246z" />
    <glyph glyph-name="f_i.liga" unicode="fi" horiz-adv-x="671" 
d="M294 723c47 0 70 -3 109 -17v-122c-27 11 -58 15 -77 15c-67 0 -79 -18 -79 -63v-23h159v-120h-159v-393h-151v393h-106v120h106v32c0 129 91 178 198 178zM615 586h-169v129h169v-129zM606 0h-151v513h151v-513z" />
    <glyph glyph-name="f_l.liga" unicode="fl" horiz-adv-x="671" 
d="M294 723c47 0 70 -3 109 -17v-122c-27 11 -58 15 -77 15c-67 0 -79 -18 -79 -63v-23h159v-120h-159v-393h-151v393h-106v120h106v32c0 129 91 178 198 178zM606 0h-151v691h151v-691z" />
    <glyph glyph-name="f_f.liga" unicode="ff" horiz-adv-x="760" 
d="M776 513v-120h-159v-393h-151v393h-219v-393h-151v393h-106v120h106v32c0 129 91 178 198 178c47 0 70 -3 109 -17v-122c-27 11 -58 15 -77 15c-67 0 -79 -18 -79 -63v-23h219v32c0 129 91 178 198 178c47 0 70 -3 109 -17v-122c-27 11 -58 15 -77 15
c-67 0 -79 -18 -79 -63v-23h159z" />
    <glyph glyph-name="f_f_i.liga" unicode="ffi" horiz-adv-x="1041" 
d="M617 513h159v-120h-159v-393h-151v393h-219v-393h-151v393h-106v120h106v32c0 129 91 178 198 178c47 0 70 -3 109 -17v-122c-27 11 -58 15 -77 15c-67 0 -79 -18 -79 -63v-23h219v32c0 129 91 178 198 178c47 0 70 -3 109 -17v-122c-27 11 -58 15 -77 15
c-67 0 -79 -18 -79 -63v-23zM985 715v-129h-169v129h169zM825 513h151v-513h-151v513z" />
    <glyph glyph-name="f_f_l.liga" unicode="ffl" horiz-adv-x="1041" 
d="M617 513h159v-120h-159v-393h-151v393h-219v-393h-151v393h-106v120h106v32c0 129 91 178 198 178c47 0 70 -3 109 -17v-122c-27 11 -58 15 -77 15c-67 0 -79 -18 -79 -63v-23h219v32c0 129 91 178 198 178c47 0 70 -3 109 -17v-122c-27 11 -58 15 -77 15
c-67 0 -79 -18 -79 -63v-23zM976 691v-691h-151v691h151z" />
    <glyph glyph-name=".notdef" horiz-adv-x="542" 
d="M542 750v-750h-542v750h542zM394 145v460h-246v-460h246z" />
    <glyph glyph-name="NULL" horiz-adv-x="600" 
 />
    <glyph glyph-name="CR" unicode="&#xd;" horiz-adv-x="241" 
 />
    <glyph glyph-name="space" unicode=" " horiz-adv-x="241" 
 />
    <glyph glyph-name="exclam" unicode="!" horiz-adv-x="259" 
d="M45 650h169l-12 -416h-145zM211 155v-155h-162v155h162z" />
    <glyph glyph-name="quotedbl" unicode="&#x22;" horiz-adv-x="517" 
d="M209 478h-101l-23 245h146zM410 478h-101l-22 245h145z" />
    <glyph glyph-name="numbersign" unicode="#" horiz-adv-x="600" 
d="M508 527h91v-100h-108l-25 -139h91v-100h-109l-34 -188h-111l33 188h-105l-33 -188h-112l34 188h-91v100h109l24 139h-91v100h109l35 196h112l-35 -196h105l34 196h112zM274 427l-25 -139h105l25 139h-105z" />
    <glyph glyph-name="dollar" unicode="$" horiz-adv-x="643" 
d="M601 194c0 -118 -81 -192 -243 -204v-90h-76v89c-103 3 -169 19 -234 36v141c65 -17 165 -39 234 -42v141l-94 24c-97 25 -150 91 -150 178c0 117 79 182 244 192v91h76v-91c79 -3 146 -19 198 -32v-136c-72 17 -124 30 -198 33v-134l77 -20c119 -31 166 -92 166 -176z
M282 410v114c-63 -6 -85 -27 -85 -55c0 -21 14 -40 67 -54zM358 246v-119c58 6 83 22 83 53c0 28 -27 51 -83 66z" />
    <glyph glyph-name="percent" unicode="%" horiz-adv-x="865" 
d="M180 663c112 0 165 -78 165 -187s-50 -194 -168 -194c-116 0 -167 85 -167 192c0 109 52 189 170 189zM326 0h-122l337 650h120zM179 579c-41 0 -61 -41 -61 -113c0 -63 20 -99 59 -99s59 38 59 104c0 69 -19 108 -57 108zM688 368c116 0 167 -85 167 -192
c0 -109 -52 -189 -170 -189c-112 0 -165 78 -165 187s50 194 168 194zM688 283c-39 0 -59 -38 -59 -104c0 -69 19 -108 57 -108c41 0 61 41 61 113c0 63 -20 99 -59 99z" />
    <glyph glyph-name="ampersand" unicode="&#x26;" horiz-adv-x="729" 
d="M364 664c75 0 135 -15 161 -25v-138c-20 9 -86 34 -147 34c-39 0 -96 -9 -96 -64c0 -49 54 -105 180 -229c27 28 58 69 83 110h164c-60 -101 -129 -183 -139 -195c48 -45 121 -113 174 -157h-207c-26 19 -51 39 -73 58c-69 -51 -140 -76 -220 -76
c-146 0 -214 81 -214 173c0 78 45 153 148 212c-36 45 -46 85 -46 124c0 96 71 173 232 173zM239 263c-41 -23 -66 -61 -66 -92c0 -33 25 -61 78 -61c31 0 77 17 103 41c-53 50 -90 85 -115 112z" />
    <glyph glyph-name="quotesingle" unicode="'" horiz-adv-x="316" 
d="M209 478h-101l-23 245h146z" />
    <glyph glyph-name="parenleft" unicode="(" horiz-adv-x="323" 
d="M161 708h157c-77 -149 -123 -273 -123 -428c0 -154 46 -278 123 -427h-157c-79 148 -116 272 -116 427c0 156 37 280 116 428z" />
    <glyph glyph-name="parenright" unicode=")" horiz-adv-x="323" 
d="M5 708h157c79 -148 116 -272 116 -428c0 -155 -37 -279 -116 -427h-157c77 149 123 273 123 427c0 155 -46 279 -123 428z" />
    <glyph glyph-name="asterisk" unicode="*" horiz-adv-x="365" 
d="M291 609l-71 -86l110 18v-79l-109 17l72 -89l-72 -38l-39 104l-40 -105l-68 39l71 89l-110 -17v79l111 -18l-72 87l69 40l40 -105l39 105z" />
    <glyph glyph-name="plus" unicode="+" horiz-adv-x="547" 
d="M346 214v-166h-145v166h-166v145h166v166h145v-166h166v-145h-166z" />
    <glyph glyph-name="comma" unicode="," horiz-adv-x="233" 
d="M127 -131h-132l56 286h162z" />
    <glyph glyph-name="hyphen" unicode="-" horiz-adv-x="460" 
d="M425 223h-390v145h390v-145z" />
    <glyph glyph-name="period" unicode="." horiz-adv-x="252" 
d="M207 0h-162v155h162v-155z" />
    <glyph glyph-name="slash" unicode="/" horiz-adv-x="528" 
d="M175 -80h-155l329 764h159z" />
    <glyph glyph-name="zero" unicode="0" horiz-adv-x="690" 
d="M341 662c204 0 305 -129 305 -339c0 -206 -111 -335 -307 -335c-189 0 -295 128 -295 335c0 210 98 339 297 339zM341 534c-85 0 -140 -74 -140 -212c0 -149 64 -204 140 -204c77 0 148 56 148 204c0 138 -65 212 -148 212z" />
    <glyph glyph-name="one" unicode="1" horiz-adv-x="450" 
d="M355 0h-150v500l-178 -26v122l328 66v-662z" />
    <glyph glyph-name="two" unicode="2" horiz-adv-x="610" 
d="M325 660c122 0 242 -63 242 -220c0 -124 -118 -218 -287 -310h276v-130h-505v134c222 124 359 221 359 301c0 75 -59 95 -135 95c-53 0 -122 -9 -198 -30v127c73 22 164 33 248 33z" />
    <glyph glyph-name="three" unicode="3" horiz-adv-x="629" 
d="M568 545l-154 -149c78 -15 167 -84 167 -182c0 -171 -126 -226 -296 -226c-78 0 -138 10 -223 31v131c80 -20 157 -32 212 -32c87 0 150 33 150 97c0 77 -67 94 -212 95h-9v60l163 150h-299v130h501v-105z" />
    <glyph glyph-name="four" unicode="4" horiz-adv-x="672" 
d="M384 650h188c-134 -131 -278 -283 -360 -406h188v142h151v-142h96v-130h-96v-114h-151v114h-361v121c89 141 216 284 345 415z" />
    <glyph glyph-name="five" unicode="5" horiz-adv-x="606" 
d="M516 520h-300l-7 -114c28 5 50 10 99 10c163 0 254 -86 254 -204c0 -134 -98 -223 -289 -223c-73 0 -157 13 -225 31v132c81 -20 158 -33 210 -33c103 0 147 32 147 94c0 45 -37 78 -133 78c-73 0 -136 -7 -213 -23l29 382h428v-130z" />
    <glyph glyph-name="six" unicode="6" horiz-adv-x="650" 
d="M551 660v-138c-112 8 -234 13 -323 -86c4 3 43 31 126 31c162 0 253 -101 253 -237c0 -146 -104 -242 -275 -242c-163 0 -287 83 -287 284c0 208 132 400 506 388zM326 344c-75 0 -124 -40 -124 -115c0 -71 43 -113 121 -113c93 0 127 59 127 115s-34 113 -124 113z" />
    <glyph glyph-name="seven" unicode="7" horiz-adv-x="577" 
d="M551 650v-103c-125 -180 -253 -414 -303 -547h-168c99 230 246 467 290 520h-334v130h515z" />
    <glyph glyph-name="eight" unicode="8" horiz-adv-x="650" 
d="M324 662c145 0 255 -59 255 -189c0 -62 -41 -107 -90 -135c58 -17 106 -77 106 -143c0 -142 -99 -207 -271 -207s-270 65 -270 207c0 66 48 126 106 143c-50 29 -90 73 -90 135c0 129 109 188 254 189zM325 543c-66 0 -98 -38 -98 -76c0 -37 33 -78 97 -78s98 41 98 78
c0 38 -32 76 -97 76zM325 283c-89 0 -114 -48 -114 -85c0 -52 48 -85 113 -85s114 33 114 85c0 37 -25 85 -113 85z" />
    <glyph glyph-name="nine" unicode="9" horiz-adv-x="650" 
d="M316 662c163 0 287 -83 287 -284c0 -208 -132 -402 -506 -390v138c112 -8 234 -11 323 88c-4 -3 -43 -31 -126 -31c-162 0 -253 101 -253 237c0 146 104 242 275 242zM325 534c-93 0 -127 -59 -127 -115s34 -113 124 -113c75 0 124 40 124 115c0 71 -43 113 -121 113z
" />
    <glyph glyph-name="colon" unicode=":" horiz-adv-x="252" 
d="M207 325h-162v155h162v-155zM207 0h-162v155h162v-155z" />
    <glyph glyph-name="semicolon" unicode=";" horiz-adv-x="286" 
d="M241 325h-162v155h162v-155zM153 -131h-132l56 286h162z" />
    <glyph glyph-name="less" unicode="&#x3c;" horiz-adv-x="594" 
d="M559 450l-391 -135l391 -134v-140l-524 196v157l524 196v-140z" />
    <glyph glyph-name="equal" unicode="=" horiz-adv-x="560" 
d="M525 508v-145h-490v145h490zM525 258v-145h-490v145h490z" />
    <glyph glyph-name="greater" unicode="&#x3e;" horiz-adv-x="594" 
d="M559 394v-157l-524 -196v140l391 134l-391 135v140z" />
    <glyph glyph-name="question" unicode="?" horiz-adv-x="535" 
d="M241 660c175 0 279 -60 279 -175c0 -159 -170 -177 -220 -229c-7 -7 -9 -14 -10 -26h-152c-3 14 -4 23 -4 36c0 132 215 124 215 204c0 41 -38 53 -111 53c-84 0 -152 -15 -227 -33v139c59 14 139 31 230 31zM298 0h-162v155h162v-155z" />
    <glyph glyph-name="at" unicode="@" horiz-adv-x="957" 
d="M490 700c230 0 427 -127 427 -389c0 -176 -89 -281 -199 -281c-58 0 -104 41 -118 67c-28 -18 -70 -44 -132 -43c-115 1 -218 76 -218 217c0 127 93 216 203 216c65 0 101 -19 127 -38l11 32h90v-299c0 -19 10 -34 32 -34c42 0 79 66 79 159c0 197 -136 274 -301 274
c-193 0 -324 -117 -324 -310c0 -182 137 -324 354 -324c38 0 66 1 117 8v-113c-42 -6 -76 -10 -113 -10c-294 0 -485 184 -485 439c0 263 184 429 450 429zM478 371c-66 0 -105 -35 -105 -100c0 -64 42 -104 109 -104c38 0 62 10 76 21v163c-18 11 -49 20 -80 20z" />
    <glyph glyph-name="A" unicode="A" horiz-adv-x="683" 
d="M527 0l-38 118h-307c-12 -39 -24 -79 -36 -118h-161c70 229 162 472 246 650h216c93 -197 186 -440 251 -650h-171zM225 249h220c-32 91 -66 182 -111 286c-40 -92 -76 -189 -109 -286z" />
    <glyph glyph-name="B" unicode="B" horiz-adv-x="702" 
d="M70 650h267c137 0 291 -28 291 -166c0 -57 -34 -118 -115 -146v-3c69 -11 144 -60 144 -145c0 -158 -150 -190 -282 -190h-305v650zM225 525v-139h118c65 0 122 11 122 72s-61 67 -118 67h-122zM225 275v-150h149c80 0 121 18 121 73c0 65 -55 77 -132 77h-138z" />
    <glyph glyph-name="C" unicode="C" horiz-adv-x="657" 
d="M421 662c53 0 133 -9 195 -28v-138c-40 13 -98 30 -182 30c-151 0 -232 -72 -232 -200c0 -139 102 -203 229 -202c75 1 141 19 186 32v-146c-71 -15 -144 -22 -198 -22c-209 0 -379 98 -379 337c0 233 186 337 381 337z" />
    <glyph glyph-name="D" unicode="D" horiz-adv-x="727" 
d="M70 650h259c179 0 353 -67 353 -319c0 -246 -172 -331 -362 -331h-250v650zM225 519v-388h93c130 0 202 60 202 197c0 123 -74 191 -196 191h-99z" />
    <glyph glyph-name="E" unicode="E" horiz-adv-x="627" 
d="M575 519h-350v-124h317v-126h-317v-138h357v-131h-512v650h505v-131z" />
    <glyph glyph-name="F" unicode="F" horiz-adv-x="615" 
d="M575 519h-350v-161h317v-131h-317v-227h-155v650h505v-131z" />
    <glyph glyph-name="G" unicode="G" horiz-adv-x="707" 
d="M421 662c50 0 133 -8 195 -28v-138c-48 14 -95 30 -182 30c-150 0 -232 -72 -232 -200c0 -149 104 -201 208 -201c24 0 63 5 88 13v206h149v-321c-44 -11 -121 -33 -252 -33c-183 0 -355 98 -355 337c0 237 183 335 381 335z" />
    <glyph glyph-name="H" unicode="H" horiz-adv-x="737" 
d="M667 0h-155v252h-287v-252h-155v650h155v-267h287v267h155v-650z" />
    <glyph glyph-name="I" unicode="I" horiz-adv-x="295" 
d="M225 0h-155v650h155v-650z" />
    <glyph glyph-name="J" unicode="J" horiz-adv-x="496" 
d="M431 650v-435c0 -141 -85 -225 -247 -225c-68 0 -138 12 -179 22v136c42 -12 95 -23 156 -23c99 0 115 44 115 120v405h155z" />
    <glyph glyph-name="K" unicode="K" horiz-adv-x="695" 
d="M225 0h-155v650h155v-650zM474 650h208c-137 -157 -213 -253 -262 -326c121 -116 255 -294 280 -324h-205c-76 104 -162 209 -256 313c59 106 171 257 235 337z" />
    <glyph glyph-name="L" unicode="L" horiz-adv-x="536" 
d="M225 131h306v-131h-461v650h155v-519z" />
    <glyph glyph-name="M" unicode="M" horiz-adv-x="910" 
d="M564 650h224c43 -225 66 -431 87 -650h-151c-20 231 -38 364 -60 496c-50 -145 -96 -290 -136 -435h-146c-40 145 -86 290 -136 435c-22 -132 -40 -265 -60 -496h-151c21 219 44 425 87 650h224c23 -73 89 -274 109 -365c21 91 86 292 109 365z" />
    <glyph glyph-name="N" unicode="N" horiz-adv-x="749" 
d="M679 0h-154l-303 438v-438h-152v649h179l278 -407v407h152v-649z" />
    <glyph glyph-name="O" unicode="O" horiz-adv-x="781" 
d="M391 662c167 0 350 -104 350 -331c0 -248 -171 -343 -351 -343s-350 95 -350 343c0 228 183 331 351 331zM390 524c-103 0 -188 -69 -188 -194c0 -150 98 -206 189 -206s188 56 188 206c0 125 -85 194 -189 194z" />
    <glyph glyph-name="P" unicode="P" horiz-adv-x="689" 
d="M70 650h302c149 0 285 -47 285 -235c0 -181 -156 -236 -284 -236h-148v-179h-155v650zM225 519v-209h134c76 0 136 16 136 109c0 81 -59 100 -139 100h-131z" />
    <glyph glyph-name="Q" unicode="Q" horiz-adv-x="781" 
d="M391 662c167 0 350 -104 350 -331c0 -119 -39 -203 -100 -259l85 -97l-115 -95l-111 119c-35 -9 -73 -13 -110 -13c-180 0 -350 97 -350 345c0 228 183 331 351 331zM390 524c-103 0 -188 -69 -188 -194c0 -150 98 -208 189 -208s188 58 188 208c0 125 -85 194 -189 194z
" />
    <glyph glyph-name="R" unicode="R" horiz-adv-x="692" 
d="M675 0h-194c-52 86 -107 161 -152 207h-104v-207h-155v650h306c127 0 271 -40 271 -217c0 -99 -69 -174 -158 -195c80 -84 152 -186 186 -238zM228 338h121c89 0 136 27 136 95c0 58 -45 86 -139 86h-118v-181z" />
    <glyph glyph-name="S" unicode="S" horiz-adv-x="643" 
d="M332 662c91 0 168 -19 226 -33v-136c-84 20 -141 34 -237 34c-92 0 -122 -23 -122 -58c0 -21 14 -40 67 -54l171 -45c119 -31 166 -92 166 -176c0 -130 -96 -206 -288 -206c-121 0 -194 17 -265 36v141c69 -18 177 -42 246 -42c103 0 147 15 147 56c0 29 -29 53 -88 68
l-165 42c-97 25 -150 91 -150 178c0 130 94 195 292 195z" />
    <glyph glyph-name="T" unicode="T" horiz-adv-x="623" 
d="M603 519h-214v-519h-155v519h-214v131h583v-131z" />
    <glyph glyph-name="U" unicode="U" horiz-adv-x="738" 
d="M673 650v-352c0 -192 -87 -310 -306 -310c-214 0 -302 118 -302 310v352h155v-353c0 -117 58 -171 149 -171s149 54 149 171v353h155z" />
    <glyph glyph-name="V" unicode="V" horiz-adv-x="673" 
d="M518 650h170c-70 -235 -161 -478 -243 -650h-225c-89 191 -177 433 -235 650h167s102 -351 182 -528c81 183 174 494 184 528z" />
    <glyph glyph-name="W" unicode="W" horiz-adv-x="938" 
d="M779 650h154c-38 -206 -91 -449 -141 -650h-215c-32 99 -83 263 -108 371c-27 -108 -80 -272 -112 -371h-210c-50 201 -103 444 -142 650h155c24 -164 61 -348 99 -492c51 144 103 309 126 403h170c23 -94 75 -259 125 -403c38 144 75 328 99 492z" />
    <glyph glyph-name="X" unicode="X" horiz-adv-x="652" 
d="M424 327l248 -327h-193l-154 213l-158 -213h-187l247 327l-246 323h198l144 -216l143 216h194z" />
    <glyph glyph-name="Y" unicode="Y" horiz-adv-x="632" 
d="M469 650h178c-20 -42 -136 -262 -256 -436v-214h-154v217c-150 205 -231 390 -252 433h176c9 -28 96 -216 153 -289c56 73 142 261 155 289z" />
    <glyph glyph-name="Z" unicode="Z" horiz-adv-x="625" 
d="M595 562l-347 -431h339v-131h-557v88l347 431h-332v131h550v-88z" />
    <glyph glyph-name="bracketleft" unicode="[" horiz-adv-x="342" 
d="M342 708v-121h-121v-611h121v-122h-272v854h272z" />
    <glyph glyph-name="backslash" unicode="\" horiz-adv-x="528" 
d="M179 684l329 -764h-155l-333 764h159z" />
    <glyph glyph-name="bracketright" unicode="]" horiz-adv-x="342" 
d="M272 -146h-272v122h121v611h-121v121h272v-854z" />
    <glyph glyph-name="asciicircum" unicode="^" horiz-adv-x="499" 
d="M459 271h-120l-90 243l-88 -243h-121l158 379h103z" />
    <glyph glyph-name="underscore" unicode="_" horiz-adv-x="520" 
d="M520 -300h-520v136h520v-136z" />
    <glyph glyph-name="grave" unicode="`" horiz-adv-x="277" 
d="M247 591h-116l-101 145h143z" />
    <glyph glyph-name="a" unicode="a" horiz-adv-x="629" 
d="M298 524c151 0 266 -51 266 -212v-312h-119l-14 45c-30 -20 -93 -57 -186 -57c-130 0 -205 76 -205 171c0 121 117 159 215 159c41 0 95 -4 158 -27v20c0 72 -63 95 -160 95c-63 0 -117 -15 -171 -30v123c47 14 140 25 216 25zM196 156c0 -34 32 -57 96 -57
c47 0 90 20 121 35v62c-29 14 -70 22 -124 22c-63 0 -93 -24 -93 -62z" />
    <glyph glyph-name="b" unicode="b" horiz-adv-x="671" 
d="M359 524c146 0 277 -80 277 -264c0 -175 -132 -272 -271 -272c-73 0 -134 23 -178 48l-11 -36h-111v691h151v-201c40 19 91 34 143 34zM337 112c77 0 142 47 142 148c0 94 -57 140 -138 140c-49 0 -91 -13 -125 -32v-222c31 -20 71 -34 121 -34z" />
    <glyph glyph-name="c" unicode="c" horiz-adv-x="553" 
d="M323 524c77 0 131 -9 190 -29v-129c-44 19 -93 33 -163 33c-84 0 -158 -43 -158 -141c0 -104 87 -145 159 -145c73 0 121 10 162 23v-127c-56 -12 -121 -21 -168 -21c-174 0 -310 81 -310 266c0 180 136 270 288 270z" />
    <glyph glyph-name="d" unicode="d" horiz-adv-x="671" 
d="M606 691v-691h-112l-14 44c-42 -28 -102 -54 -174 -54c-147 0 -271 99 -271 269c0 185 129 265 277 265c52 0 103 -16 143 -36v203h151zM192 260c0 -102 65 -146 142 -146c49 0 90 18 121 39v210c-34 21 -76 37 -125 37c-81 0 -138 -46 -138 -140z" />
    <glyph glyph-name="e" unicode="e" horiz-adv-x="612" 
d="M577 201h-387c10 -77 94 -93 152 -93c73 0 153 18 208 35v-118c-60 -19 -137 -37 -212 -37c-184 0 -303 83 -303 272c0 181 138 264 285 264c169 0 257 -90 257 -253v-70zM191 295h231c-1 69 -37 111 -101 111c-74 0 -122 -34 -130 -111z" />
    <glyph glyph-name="f" unicode="f" horiz-adv-x="390" 
d="M294 723c47 0 70 -3 109 -17v-122c-27 11 -58 15 -77 15c-67 0 -79 -18 -79 -63v-23h159v-120h-159v-393h-151v393h-106v120h106v32c0 129 91 178 198 178z" />
    <glyph glyph-name="g" unicode="g" horiz-adv-x="671" 
d="M606 513v-469c0 -192 -141 -256 -299 -256c-108 0 -164 14 -220 33v127c38 -12 118 -36 203 -36c90 0 165 30 165 106v12c-40 -22 -91 -40 -149 -40c-147 0 -271 98 -271 268c0 185 129 265 277 265c64 0 127 -23 169 -50l13 40h112zM334 114c49 0 90 18 121 39v209
c-34 21 -76 37 -125 37c-81 0 -138 -45 -138 -139c0 -102 65 -146 142 -146z" />
    <glyph glyph-name="h" unicode="h" horiz-adv-x="668" 
d="M412 524c113 -2 191 -48 191 -205v-319h-151v300c0 63 -22 99 -89 99c-65 0 -115 -25 -146 -48l-1 -351h-151v691h152v-223c45 27 116 58 195 56z" />
    <glyph glyph-name="i" unicode="i" horiz-adv-x="281" 
d="M225 586h-169v129h169v-129zM216 0h-151v513h151v-513z" />
    <glyph glyph-name="j" unicode="j" horiz-adv-x="285" 
d="M229 586h-169v129h169v-129zM220 513v-547c0 -129 -98 -178 -205 -178c-47 0 -86 5 -125 19v124c27 -13 74 -19 93 -19c69 0 86 26 86 71v530h151z" />
    <glyph glyph-name="k" unicode="k" horiz-adv-x="614" 
d="M216 0h-151v691h151v-691zM413 513h182c-75 -87 -135 -158 -201 -247c91 -83 210 -240 230 -266h-184c-49 72 -114 154 -214 257c69 109 125 185 187 256z" />
    <glyph glyph-name="l" unicode="l" horiz-adv-x="281" 
d="M216 0h-151v691h151v-691z" />
    <glyph glyph-name="m" unicode="m" horiz-adv-x="1025" 
d="M769 524c113 0 191 -48 191 -205v-319h-151v300c0 63 -22 99 -89 99c-60 0 -114 -33 -133 -49c1 -10 1 -20 1 -31v-319h-151v300c0 63 -22 99 -89 99c-59 0 -113 -32 -132 -48v-351h-151v513h122l16 -54c35 27 106 65 194 65c83 0 135 -28 163 -78c53 43 118 78 209 78z
" />
    <glyph glyph-name="n" unicode="n" horiz-adv-x="668" 
d="M412 524c113 0 191 -48 191 -205v-319h-151v300c0 63 -22 99 -89 99c-65 0 -115 -25 -147 -48v-351h-151v513h122l16 -54c44 29 122 65 209 65z" />
    <glyph glyph-name="o" unicode="o" horiz-adv-x="658" 
d="M330 524c173 0 293 -94 293 -268c0 -175 -120 -268 -293 -268c-174 0 -295 92 -295 268c0 175 121 268 295 268zM326 399c-79 0 -134 -54 -134 -143c0 -83 55 -143 140 -143c81 0 134 62 134 143c0 92 -58 143 -140 143z" />
    <glyph glyph-name="p" unicode="p" horiz-adv-x="671" 
d="M359 524c146 0 277 -81 277 -264c0 -175 -132 -272 -271 -272c-58 0 -109 13 -149 31v-219h-151v713h112l11 -37c60 32 116 48 171 48zM337 112c77 0 142 47 142 148c0 93 -57 140 -138 140c-49 0 -91 -14 -125 -33v-223c31 -19 71 -32 121 -32z" />
    <glyph glyph-name="q" unicode="q" horiz-adv-x="671" 
d="M606 513v-713h-151v230c-40 -22 -91 -40 -149 -40c-147 0 -271 99 -271 269c0 185 129 265 277 265c64 0 127 -23 170 -50l12 39h112zM334 115c49 0 90 18 121 39v209c-34 21 -76 37 -125 37c-81 0 -138 -46 -138 -140c0 -102 65 -145 142 -145z" />
    <glyph glyph-name="r" unicode="r" horiz-adv-x="426" 
d="M187 513l17 -56c51 35 115 65 204 67v-144c-82 1 -144 -23 -192 -51v-329h-151v513h122z" />
    <glyph glyph-name="s" unicode="s" horiz-adv-x="547" 
d="M288 524c81 0 148 -15 191 -33v-120c-70 24 -127 34 -181 34c-45 0 -117 -3 -117 -37c0 -23 14 -24 76 -38l104 -23c108 -24 151 -73 151 -150c0 -97 -71 -169 -262 -169c-68 0 -163 19 -205 33v124c36 -12 131 -35 201 -35c93 0 116 14 116 42c0 17 -9 31 -78 45
l-112 23c-113 23 -137 82 -137 148c0 112 106 156 253 156z" />
    <glyph glyph-name="t" unicode="t" horiz-adv-x="413" 
d="M388 513v-120h-160v-200c0 -49 15 -80 77 -80c19 0 56 5 83 14v-120c-39 -14 -68 -19 -115 -19c-107 0 -196 43 -196 178v227h-87v120h93l17 131h128v-131h160z" />
    <glyph glyph-name="u" unicode="u" horiz-adv-x="658" 
d="M593 513v-513h-122l-16 54c-44 -29 -121 -66 -199 -66c-113 0 -191 49 -191 206v319h151v-300c0 -63 22 -100 89 -100c56 0 105 26 137 49v351h151z" />
    <glyph glyph-name="v" unicode="v" horiz-adv-x="570" 
d="M419 513h161c-12 -38 -104 -320 -217 -513h-156c-113 193 -205 475 -217 513h161c12 -44 84 -274 134 -385c50 111 122 341 134 385z" />
    <glyph glyph-name="w" unicode="w" horiz-adv-x="880" 
d="M726 513h159c-9 -38 -82 -320 -181 -513h-164c-44 111 -81 217 -100 290c-19 -73 -55 -179 -100 -290h-165c-99 193 -171 475 -180 513h159c9 -44 60 -266 104 -377c46 111 94 333 106 377h152c12 -44 60 -266 106 -377c44 111 95 333 104 377z" />
    <glyph glyph-name="x" unicode="x" horiz-adv-x="583" 
d="M384 253l209 -253h-183l-124 159l-113 -159h-182l198 253l-199 260h188l110 -171l115 171h180z" />
    <glyph glyph-name="y" unicode="y" horiz-adv-x="590" 
d="M436 513h164c-23 -66 -211 -527 -344 -713h-157c45 72 84 137 118 199c-108 202 -215 476 -227 514h164c12 -43 93 -255 138 -370c54 112 98 226 144 370z" />
    <glyph glyph-name="z" unicode="z" horiz-adv-x="571" 
d="M529 415l-292 -295h294v-120h-491v98l292 295h-284v120h481v-98z" />
    <glyph glyph-name="braceleft" unicode="{" horiz-adv-x="393" 
d="M5 346v-129c37 -1 52 -5 81 -26c25 -19 38 -54 38 -101v-34c0 -126 78 -194 279 -202v121c-118 6 -128 40 -128 87v38c0 53 -6 91 -19 116c-18 36 -56 58 -108 65c52 7 91 29 109 65c13 25 18 63 18 115v36c0 47 10 82 128 90v121c-187 -7 -279 -74 -279 -202v-36
c0 -46 -13 -81 -38 -100c-30 -22 -44 -24 -81 -24z" />
    <glyph glyph-name="bar" unicode="|" horiz-adv-x="291" 
d="M221 -250h-151v1000h151v-1000z" />
    <glyph glyph-name="braceright" unicode="}" horiz-adv-x="393" 
d="M388 217v129c-37 0 -51 2 -81 24c-25 19 -38 54 -38 100v36c0 128 -92 195 -279 202v-121c118 -8 128 -43 128 -90v-36c0 -52 5 -90 18 -115c18 -36 57 -58 109 -65c-52 -7 -90 -29 -108 -65c-13 -25 -19 -63 -19 -116v-38c0 -47 -10 -81 -128 -87v-121
c201 8 279 76 279 202v34c0 47 13 82 38 101c29 21 44 25 81 26z" />
    <glyph glyph-name="asciitilde" unicode="~" horiz-adv-x="559" 
d="M417 405h107c0 -89 -58 -160 -146 -160c-77 0 -122 43 -179 43c-33 0 -53 -16 -63 -47h-101c0 90 64 160 152 160c79 0 122 -46 181 -46c27 0 43 17 49 50z" />
    <glyph glyph-name="Aacute" unicode="&#xc1;" horiz-adv-x="683" 
d="M386 710h-116l74 145h143zM527 0l-38 118h-307c-12 -39 -24 -79 -36 -118h-161c70 229 162 472 246 650h216c93 -197 186 -440 251 -650h-171zM225 249h220c-32 91 -66 182 -111 286c-40 -92 -76 -189 -109 -286z" />
    <glyph glyph-name="Acircumflex" unicode="&#xc2;" horiz-adv-x="683" 
d="M273 710h-116l107 145h155l107 -145h-116l-68 73zM527 0l-38 118h-307c-12 -39 -24 -79 -36 -118h-161c70 229 162 472 246 650h216c93 -197 186 -440 251 -650h-171zM225 249h220c-32 91 -66 182 -111 286c-40 -92 -76 -189 -109 -286z" />
    <glyph glyph-name="Adieresis" unicode="&#xc4;" horiz-adv-x="683" 
d="M301 706h-149v129h149v-129zM531 706h-149v129h149v-129zM527 0l-38 118h-307c-12 -39 -24 -79 -36 -118h-161c70 229 162 472 246 650h216c93 -197 186 -440 251 -650h-171zM225 249h220c-32 91 -66 182 -111 286c-40 -92 -76 -189 -109 -286z" />
    <glyph glyph-name="Agrave" unicode="&#xc0;" horiz-adv-x="683" 
d="M295 710l-101 145h143l74 -145h-116zM527 0l-38 118h-307c-12 -39 -24 -79 -36 -118h-161c70 229 162 472 246 650h216c93 -197 186 -440 251 -650h-171zM225 249h220c-32 91 -66 182 -111 286c-40 -92 -76 -189 -109 -286z" />
    <glyph glyph-name="Aring" unicode="&#xc5;" horiz-adv-x="683" 
d="M342 693c-70 0 -109 37 -109 92s39 92 109 92s109 -37 109 -92s-39 -92 -109 -92zM342 821c-25 0 -49 -9 -49 -36s24 -36 49 -36s49 9 49 36s-24 36 -49 36zM527 0l-38 118h-307c-12 -39 -24 -79 -36 -118h-161c70 229 162 472 246 650h216c93 -197 186 -440 251 -650
h-171zM225 249h220c-32 91 -66 182 -111 286c-40 -92 -76 -189 -109 -286z" />
    <glyph glyph-name="Atilde" unicode="&#xc3;" horiz-adv-x="683" 
d="M281 756c-24 0 -30 -12 -37 -36h-88c7 69 43 126 117 126c54 0 84 -38 116 -38c24 0 30 12 37 36h88c-7 -69 -42 -126 -117 -126c-54 0 -84 38 -116 38zM527 0l-38 118h-307c-12 -39 -24 -79 -36 -118h-161c70 229 162 472 246 650h216c93 -197 186 -440 251 -650h-171z
M225 249h220c-32 91 -66 182 -111 286c-40 -92 -76 -189 -109 -286z" />
    <glyph glyph-name="AE" unicode="&#xc6;" horiz-adv-x="1021" 
d="M976 131v-131h-472v118h-275c-25 -40 -48 -79 -71 -118h-178c201 333 343 525 450 650h539v-131h-310v-124h277v-126h-277v-138h317zM504 249l1 276c-66 -88 -131 -181 -193 -276h192z" />
    <glyph glyph-name="Ccedilla" unicode="&#xc7;" horiz-adv-x="657" 
d="M617 156v-146c-69 -15 -140 -22 -194 -22l-7 -20c53 -9 75 -36 75 -82c0 -63 -39 -93 -115 -93c-26 0 -54 3 -93 14v73c42 -13 65 -17 93 -17c27 0 39 8 39 25s-13 25 -43 25c-20 0 -30 -1 -42 -3l26 81c-179 18 -316 119 -316 334c0 233 186 337 381 337
c53 0 133 -9 195 -28v-138c-40 13 -98 30 -182 30c-151 0 -232 -72 -232 -200c0 -139 102 -203 229 -202c75 1 141 19 186 32z" />
    <glyph glyph-name="Eth" unicode="&#xd0;" horiz-adv-x="727" 
d="M70 650h259c179 0 353 -67 353 -319c0 -246 -172 -331 -362 -331h-250v258h-70v131h70v261zM225 131h93c130 0 202 60 202 197c0 123 -74 191 -196 191h-99v-130h115v-131h-115v-127z" />
    <glyph glyph-name="Eacute" unicode="&#xc9;" horiz-adv-x="627" 
d="M369 710h-116l74 145h143zM575 519h-350v-124h317v-126h-317v-138h357v-131h-512v650h505v-131z" />
    <glyph glyph-name="Ecircumflex" unicode="&#xca;" horiz-adv-x="627" 
d="M509 710h-116l-68 73l-69 -73h-116l107 145h155zM575 519h-350v-124h317v-126h-317v-138h357v-131h-512v650h505v-131z" />
    <glyph glyph-name="Edieresis" unicode="&#xcb;" horiz-adv-x="627" 
d="M284 706h-149v129h149v-129zM514 706h-149v129h149v-129zM575 519h-350v-124h317v-126h-317v-138h357v-131h-512v650h505v-131z" />
    <glyph glyph-name="Egrave" unicode="&#xc8;" horiz-adv-x="627" 
d="M394 710h-116l-101 145h143zM575 519h-350v-124h317v-126h-317v-138h357v-131h-512v650h505v-131z" />
    <glyph glyph-name="Iacute" unicode="&#xcd;" horiz-adv-x="295" 
d="M192 710h-116l74 145h143zM225 0h-155v650h155v-650z" />
    <glyph glyph-name="Icircumflex" unicode="&#xce;" horiz-adv-x="295" 
d="M332 710h-116l-68 73l-69 -73h-116l107 145h155zM225 0h-155v650h155v-650z" />
    <glyph glyph-name="Idieresis" unicode="&#xcf;" horiz-adv-x="295" 
d="M107 706h-149v129h149v-129zM337 706h-149v129h149v-129zM225 0h-155v650h155v-650z" />
    <glyph glyph-name="Igrave" unicode="&#xcc;" horiz-adv-x="295" 
d="M217 710h-116l-101 145h143zM225 0h-155v650h155v-650z" />
    <glyph glyph-name="Lslash" unicode="&#x141;" horiz-adv-x="536" 
d="M531 131v-131h-461v276l-70 -18v131l70 18v243h155v-205l175 44v-131l-175 -44v-183h306z" />
    <glyph glyph-name="Ntilde" unicode="&#xd1;" horiz-adv-x="749" 
d="M474 844h88c-7 -69 -42 -126 -117 -126c-54 0 -84 38 -116 38c-24 0 -30 -12 -37 -36h-88c7 69 43 126 117 126c54 0 84 -38 116 -38c24 0 30 12 37 36zM679 0h-154l-303 438v-438h-152v649h179l278 -407v407h152v-649z" />
    <glyph glyph-name="Oacute" unicode="&#xd3;" horiz-adv-x="781" 
d="M435 710h-116l74 145h143zM391 662c167 0 350 -104 350 -331c0 -248 -171 -343 -351 -343s-350 95 -350 343c0 228 183 331 351 331zM390 524c-103 0 -188 -69 -188 -194c0 -150 98 -206 189 -206s188 56 188 206c0 125 -85 194 -189 194z" />
    <glyph glyph-name="Ocircumflex" unicode="&#xd4;" horiz-adv-x="781" 
d="M575 710h-116l-68 73l-69 -73h-116l107 145h155zM391 662c167 0 350 -104 350 -331c0 -248 -171 -343 -351 -343s-350 95 -350 343c0 228 183 331 351 331zM390 524c-103 0 -188 -69 -188 -194c0 -150 98 -206 189 -206s188 56 188 206c0 125 -85 194 -189 194z" />
    <glyph glyph-name="Odieresis" unicode="&#xd6;" horiz-adv-x="781" 
d="M350 706h-149v129h149v-129zM580 706h-149v129h149v-129zM391 662c167 0 350 -104 350 -331c0 -248 -171 -343 -351 -343s-350 95 -350 343c0 228 183 331 351 331zM390 524c-103 0 -188 -69 -188 -194c0 -150 98 -206 189 -206s188 56 188 206c0 125 -85 194 -189 194z
" />
    <glyph glyph-name="Ograve" unicode="&#xd2;" horiz-adv-x="781" 
d="M460 710h-116l-101 145h143zM391 662c167 0 350 -104 350 -331c0 -248 -171 -343 -351 -343s-350 95 -350 343c0 228 183 331 351 331zM390 524c-103 0 -188 -69 -188 -194c0 -150 98 -206 189 -206s188 56 188 206c0 125 -85 194 -189 194z" />
    <glyph glyph-name="Oslash" unicode="&#xd8;" horiz-adv-x="781" 
d="M707 600l-44 -52c48 -53 78 -125 78 -217c0 -248 -171 -343 -351 -343c-60 0 -119 11 -171 34l-50 -60l-95 79l45 53c-49 55 -79 132 -79 237c0 228 183 331 351 331c59 0 119 -13 173 -39l48 56zM202 330c0 -45 9 -81 23 -110l244 289c-24 10 -51 15 -79 15
c-103 0 -188 -69 -188 -194zM391 124c91 0 188 56 188 206c0 36 -7 68 -20 95l-242 -288c24 -9 49 -13 74 -13z" />
    <glyph glyph-name="Otilde" unicode="&#xd5;" horiz-adv-x="781" 
d="M475 844h88c-7 -69 -42 -126 -117 -126c-54 0 -84 38 -116 38c-24 0 -30 -12 -37 -36h-88c7 69 43 126 117 126c54 0 84 -38 116 -38c24 0 30 12 37 36zM391 662c167 0 350 -104 350 -331c0 -248 -171 -343 -351 -343s-350 95 -350 343c0 228 183 331 351 331zM390 524
c-103 0 -188 -69 -188 -194c0 -150 98 -206 189 -206s188 56 188 206c0 125 -85 194 -189 194z" />
    <glyph glyph-name="OE" unicode="&#x152;" horiz-adv-x="1038" 
d="M993 0h-499c-35 -9 -73 -14 -112 -14c-172 0 -342 97 -342 345c0 228 181 331 343 331c37 0 73 -4 107 -12h496v-131h-350v-124h317v-126h-317v-138h357v-131zM202 330c0 -150 98 -208 183 -208c34 0 67 6 96 18v365c-28 12 -62 19 -98 19c-96 0 -181 -69 -181 -194z" />
    <glyph glyph-name="Thorn" unicode="&#xde;" horiz-adv-x="689" 
d="M225 561h147c149 0 285 -47 285 -235c0 -181 -156 -236 -284 -236h-148v-90h-155v650h155v-89zM225 430v-209h134c76 0 136 16 136 109c0 81 -59 100 -139 100h-131z" />
    <glyph glyph-name="Scaron" unicode="&#x160;" horiz-adv-x="643" 
d="M399 710h-155l-107 145h116l69 -73l68 73h116zM332 662c91 0 168 -19 226 -33v-136c-84 20 -141 34 -237 34c-92 0 -122 -23 -122 -58c0 -21 14 -40 67 -54l171 -45c119 -31 166 -92 166 -176c0 -130 -96 -206 -288 -206c-121 0 -194 17 -265 36v141
c69 -18 177 -42 246 -42c103 0 147 15 147 56c0 29 -29 53 -88 68l-165 42c-97 25 -150 91 -150 178c0 130 94 195 292 195z" />
    <glyph glyph-name="Uacute" unicode="&#xda;" horiz-adv-x="738" 
d="M413 710h-116l74 145h143zM673 650v-352c0 -192 -87 -310 -306 -310c-214 0 -302 118 -302 310v352h155v-353c0 -117 58 -171 149 -171s149 54 149 171v353h155z" />
    <glyph glyph-name="Ucircumflex" unicode="&#xdb;" horiz-adv-x="738" 
d="M553 710h-116l-68 73l-69 -73h-116l107 145h155zM673 650v-352c0 -192 -87 -310 -306 -310c-214 0 -302 118 -302 310v352h155v-353c0 -117 58 -171 149 -171s149 54 149 171v353h155z" />
    <glyph glyph-name="Udieresis" unicode="&#xdc;" horiz-adv-x="738" 
d="M328 706h-149v129h149v-129zM558 706h-149v129h149v-129zM673 650v-352c0 -192 -87 -310 -306 -310c-214 0 -302 118 -302 310v352h155v-353c0 -117 58 -171 149 -171s149 54 149 171v353h155z" />
    <glyph glyph-name="Ugrave" unicode="&#xd9;" horiz-adv-x="738" 
d="M438 710h-116l-101 145h143zM673 650v-352c0 -192 -87 -310 -306 -310c-214 0 -302 118 -302 310v352h155v-353c0 -117 58 -171 149 -171s149 54 149 171v353h155z" />
    <glyph glyph-name="Yacute" unicode="&#xdd;" horiz-adv-x="632" 
d="M360 710h-116l74 145h143zM469 650h178c-20 -42 -136 -262 -256 -436v-214h-154v217c-150 205 -231 390 -252 433h176c9 -28 96 -216 153 -289c56 73 142 261 155 289z" />
    <glyph glyph-name="Ydieresis" unicode="&#x178;" horiz-adv-x="632" 
d="M275 706h-149v129h149v-129zM505 706h-149v129h149v-129zM469 650h178c-20 -42 -136 -262 -256 -436v-214h-154v217c-150 205 -231 390 -252 433h176c9 -28 96 -216 153 -289c56 73 142 261 155 289z" />
    <glyph glyph-name="Zcaron" unicode="&#x17d;" horiz-adv-x="625" 
d="M390 710h-155l-107 145h116l69 -73l68 73h116zM595 562l-347 -431h339v-131h-557v88l347 431h-332v131h550v-88z" />
    <glyph glyph-name="aacute" unicode="&#xe1;" horiz-adv-x="629" 
d="M361 591h-116l74 145h143zM298 524c151 0 266 -51 266 -212v-312h-119l-14 45c-30 -20 -93 -57 -186 -57c-130 0 -205 76 -205 171c0 121 117 159 215 159c41 0 95 -4 158 -27v20c0 72 -63 95 -160 95c-63 0 -117 -15 -171 -30v123c47 14 140 25 216 25zM196 156
c0 -34 32 -57 96 -57c47 0 90 20 121 35v62c-29 14 -70 22 -124 22c-63 0 -93 -24 -93 -62z" />
    <glyph glyph-name="acircumflex" unicode="&#xe2;" horiz-adv-x="629" 
d="M246 591h-116l107 145h155l107 -145h-116l-68 73zM298 524c151 0 266 -51 266 -212v-312h-119l-14 45c-30 -20 -93 -57 -186 -57c-130 0 -205 76 -205 171c0 121 117 159 215 159c41 0 95 -4 158 -27v20c0 72 -63 95 -160 95c-63 0 -117 -15 -171 -30v123
c47 14 140 25 216 25zM196 156c0 -34 32 -57 96 -57c47 0 90 20 121 35v62c-29 14 -70 22 -124 22c-63 0 -93 -24 -93 -62z" />
    <glyph glyph-name="adieresis" unicode="&#xe4;" horiz-adv-x="629" 
d="M274 586h-149v129h149v-129zM504 586h-149v129h149v-129zM298 524c151 0 266 -51 266 -212v-312h-119l-14 45c-30 -20 -93 -57 -186 -57c-130 0 -205 76 -205 171c0 121 117 159 215 159c41 0 95 -4 158 -27v20c0 72 -63 95 -160 95c-63 0 -117 -15 -171 -30v123
c47 14 140 25 216 25zM196 156c0 -34 32 -57 96 -57c47 0 90 20 121 35v62c-29 14 -70 22 -124 22c-63 0 -93 -24 -93 -62z" />
    <glyph glyph-name="agrave" unicode="&#xe0;" horiz-adv-x="629" 
d="M269 591l-101 145h143l74 -145h-116zM298 524c151 0 266 -51 266 -212v-312h-119l-14 45c-30 -20 -93 -57 -186 -57c-130 0 -205 76 -205 171c0 121 117 159 215 159c41 0 95 -4 158 -27v20c0 72 -63 95 -160 95c-63 0 -117 -15 -171 -30v123c47 14 140 25 216 25z
M196 156c0 -34 32 -57 96 -57c47 0 90 20 121 35v62c-29 14 -70 22 -124 22c-63 0 -93 -24 -93 -62z" />
    <glyph glyph-name="aring" unicode="&#xe5;" horiz-adv-x="629" 
d="M315 574c-70 0 -109 37 -109 92s39 92 109 92s109 -37 109 -92s-39 -92 -109 -92zM315 702c-25 0 -49 -9 -49 -36s24 -36 49 -36s49 9 49 36s-24 36 -49 36zM298 524c151 0 266 -51 266 -212v-312h-119l-14 45c-30 -20 -93 -57 -186 -57c-130 0 -205 76 -205 171
c0 121 117 159 215 159c41 0 95 -4 158 -27v20c0 72 -63 95 -160 95c-63 0 -117 -15 -171 -30v123c47 14 140 25 216 25zM196 156c0 -34 32 -57 96 -57c47 0 90 20 121 35v62c-29 14 -70 22 -124 22c-63 0 -93 -24 -93 -62z" />
    <glyph glyph-name="atilde" unicode="&#xe3;" horiz-adv-x="629" 
d="M261 636c-24 0 -30 -12 -37 -36h-88c7 69 43 126 117 126c54 0 84 -38 116 -38c24 0 30 12 37 36h88c-7 -69 -42 -126 -117 -126c-54 0 -84 38 -116 38zM298 524c151 0 266 -51 266 -212v-312h-119l-14 45c-30 -20 -93 -57 -186 -57c-130 0 -205 76 -205 171
c0 121 117 159 215 159c41 0 95 -4 158 -27v20c0 72 -63 95 -160 95c-63 0 -117 -15 -171 -30v123c47 14 140 25 216 25zM196 156c0 -34 32 -57 96 -57c47 0 90 20 121 35v62c-29 14 -70 22 -124 22c-63 0 -93 -24 -93 -62z" />
    <glyph glyph-name="ae" unicode="&#xe6;" horiz-adv-x="991" 
d="M694 524c174 0 262 -90 262 -253v-70h-387c10 -76 94 -93 152 -93c73 0 153 18 208 35v-118c-60 -19 -137 -37 -212 -37c-101 0 -176 24 -232 77c-71 -50 -147 -77 -240 -77c-130 0 -205 76 -205 171c0 121 117 159 215 159c41 0 95 -4 158 -27v20c0 72 -63 95 -160 95
c-63 0 -117 -15 -171 -30v123c47 14 140 25 216 25c88 0 161 -19 208 -71c52 49 120 71 188 71zM700 406c-74 0 -121 -34 -130 -111h231c-1 69 -37 111 -101 111zM289 218c-63 0 -93 -24 -93 -62c0 -34 32 -57 96 -57c45 0 96 21 141 46c-6 15 -10 31 -13 48
c-30 16 -73 25 -131 25z" />
    <glyph glyph-name="ccedilla" unicode="&#xe7;" horiz-adv-x="553" 
d="M350 399c-84 0 -158 -43 -158 -141c0 -104 87 -145 159 -145c73 0 121 10 162 23v-127c-55 -12 -119 -21 -166 -21l-7 -20c53 -9 75 -36 75 -82c0 -63 -39 -93 -115 -93c-26 0 -54 3 -93 14v73c42 -13 65 -17 93 -17c27 0 39 8 39 25s-13 25 -43 25c-20 0 -30 -1 -42 -3
l27 82c-142 18 -246 100 -246 262c0 180 136 270 288 270c77 0 131 -9 190 -29v-129c-44 19 -93 33 -163 33z" />
    <glyph glyph-name="eth" unicode="&#xf0;" horiz-adv-x="658" 
d="M524 657l-52 -29c87 -62 151 -162 151 -322c0 -215 -120 -318 -293 -318c-174 0 -295 94 -295 248c0 175 121 248 245 248c76 0 126 -20 164 -47c-21 55 -58 92 -106 118l-92 -51l-44 66l37 20c-23 6 -47 10 -73 13l41 120c59 -8 123 -22 184 -49l89 49zM332 113
c78 0 130 60 134 180c-46 46 -101 66 -147 66c-83 0 -127 -40 -127 -123c0 -61 55 -123 140 -123z" />
    <glyph glyph-name="eacute" unicode="&#xe9;" horiz-adv-x="612" 
d="M363 591h-116l74 145h143zM577 201h-387c10 -77 94 -93 152 -93c73 0 153 18 208 35v-118c-60 -19 -137 -37 -212 -37c-184 0 -303 83 -303 272c0 181 138 264 285 264c169 0 257 -90 257 -253v-70zM191 295h231c-1 69 -37 111 -101 111c-74 0 -122 -34 -130 -111z" />
    <glyph glyph-name="ecircumflex" unicode="&#xea;" horiz-adv-x="612" 
d="M248 591h-116l107 145h155l107 -145h-116l-68 73zM577 201h-387c10 -77 94 -93 152 -93c73 0 153 18 208 35v-118c-60 -19 -137 -37 -212 -37c-184 0 -303 83 -303 272c0 181 138 264 285 264c169 0 257 -90 257 -253v-70zM191 295h231c-1 69 -37 111 -101 111
c-74 0 -122 -34 -130 -111z" />
    <glyph glyph-name="edieresis" unicode="&#xeb;" horiz-adv-x="612" 
d="M276 586h-149v129h149v-129zM506 586h-149v129h149v-129zM577 201h-387c10 -77 94 -93 152 -93c73 0 153 18 208 35v-118c-60 -19 -137 -37 -212 -37c-184 0 -303 83 -303 272c0 181 138 264 285 264c169 0 257 -90 257 -253v-70zM191 295h231c-1 69 -37 111 -101 111
c-74 0 -122 -34 -130 -111z" />
    <glyph glyph-name="egrave" unicode="&#xe8;" horiz-adv-x="612" 
d="M271 591l-101 145h143l74 -145h-116zM577 201h-387c10 -77 94 -93 152 -93c73 0 153 18 208 35v-118c-60 -19 -137 -37 -212 -37c-184 0 -303 83 -303 272c0 181 138 264 285 264c169 0 257 -90 257 -253v-70zM191 295h231c-1 69 -37 111 -101 111
c-74 0 -122 -34 -130 -111z" />
    <glyph glyph-name="dotlessi" unicode="&#x131;" horiz-adv-x="281" 
d="M216 0h-151v513h151v-513z" />
    <glyph glyph-name="iacute" unicode="&#xed;" horiz-adv-x="281" 
d="M187 591h-116l74 145h143zM216 0h-151v513h151v-513z" />
    <glyph glyph-name="icircumflex" unicode="&#xee;" horiz-adv-x="281" 
d="M141 664l-69 -73h-116l107 145h155l107 -145h-116zM216 0h-151v513h151v-513z" />
    <glyph glyph-name="idieresis" unicode="&#xef;" horiz-adv-x="281" 
d="M100 586h-149v129h149v-129zM330 586h-149v129h149v-129zM216 0h-151v513h151v-513z" />
    <glyph glyph-name="igrave" unicode="&#xec;" horiz-adv-x="281" 
d="M211 591h-116l-101 145h143zM216 0h-151v513h151v-513z" />
    <glyph glyph-name="lslash" unicode="&#x142;" horiz-adv-x="301" 
d="M321 355l-95 -26v-329h-151v287l-95 -26v130l95 26v274h151v-232l95 26v-130z" />
    <glyph glyph-name="ntilde" unicode="&#xf1;" horiz-adv-x="668" 
d="M280 636c-24 0 -30 -12 -37 -36h-88c7 69 43 126 117 126c54 0 84 -38 116 -38c24 0 30 12 37 36h88c-7 -69 -42 -126 -117 -126c-54 0 -84 38 -116 38zM412 524c113 0 191 -48 191 -205v-319h-151v300c0 63 -22 99 -89 99c-65 0 -115 -25 -147 -48v-351h-151v513h122
l16 -54c44 29 122 65 209 65z" />
    <glyph glyph-name="oacute" unicode="&#xf3;" horiz-adv-x="658" 
d="M376 591h-116l74 145h143zM330 524c173 0 293 -94 293 -268c0 -175 -120 -268 -293 -268c-174 0 -295 92 -295 268c0 175 121 268 295 268zM326 399c-79 0 -134 -54 -134 -143c0 -83 55 -143 140 -143c81 0 134 62 134 143c0 92 -58 143 -140 143z" />
    <glyph glyph-name="ocircumflex" unicode="&#xf4;" horiz-adv-x="658" 
d="M330 664l-69 -73h-116l107 145h155l107 -145h-116zM330 524c173 0 293 -94 293 -268c0 -175 -120 -268 -293 -268c-174 0 -295 92 -295 268c0 175 121 268 295 268zM326 399c-79 0 -134 -54 -134 -143c0 -83 55 -143 140 -143c81 0 134 62 134 143c0 92 -58 143 -140 143
z" />
    <glyph glyph-name="odieresis" unicode="&#xf6;" horiz-adv-x="658" 
d="M289 586h-149v129h149v-129zM519 586h-149v129h149v-129zM330 524c173 0 293 -94 293 -268c0 -175 -120 -268 -293 -268c-174 0 -295 92 -295 268c0 175 121 268 295 268zM326 399c-79 0 -134 -54 -134 -143c0 -83 55 -143 140 -143c81 0 134 62 134 143
c0 92 -58 143 -140 143z" />
    <glyph glyph-name="ograve" unicode="&#xf2;" horiz-adv-x="658" 
d="M400 591h-116l-101 145h143zM330 524c173 0 293 -94 293 -268c0 -175 -120 -268 -293 -268c-174 0 -295 92 -295 268c0 175 121 268 295 268zM326 399c-79 0 -134 -54 -134 -143c0 -83 55 -143 140 -143c81 0 134 62 134 143c0 92 -58 143 -140 143z" />
    <glyph glyph-name="oslash" unicode="&#xf8;" horiz-adv-x="658" 
d="M593 490l-39 -46c44 -45 69 -108 69 -188c0 -175 -120 -268 -293 -268c-52 0 -100 8 -141 25l-45 -54l-79 61l40 47c-44 45 -70 108 -70 189c0 175 121 268 295 268c52 0 99 -9 140 -25l44 52zM192 256c0 -25 5 -48 15 -68l172 203c-16 5 -34 8 -53 8
c-79 0 -134 -54 -134 -143zM332 113c81 0 134 62 134 143c0 26 -5 49 -13 68l-172 -203c15 -5 32 -8 51 -8z" />
    <glyph glyph-name="otilde" unicode="&#xf5;" horiz-adv-x="658" 
d="M421 724h88c-7 -69 -42 -126 -117 -126c-54 0 -84 38 -116 38c-24 0 -30 -12 -37 -36h-88c7 69 43 126 117 126c54 0 84 -38 116 -38c24 0 30 12 37 36zM330 524c173 0 293 -94 293 -268c0 -175 -120 -268 -293 -268c-174 0 -295 92 -295 268c0 175 121 268 295 268z
M326 399c-79 0 -134 -54 -134 -143c0 -83 55 -143 140 -143c81 0 134 62 134 143c0 92 -58 143 -140 143z" />
    <glyph glyph-name="oe" unicode="&#x153;" horiz-adv-x="1039" 
d="M1004 201h-387c10 -76 94 -91 152 -91c73 0 153 18 208 35v-118c-60 -19 -137 -37 -212 -37c-95 0 -173 25 -225 74c-50 -47 -123 -74 -210 -74c-174 0 -295 92 -295 266c0 175 121 268 295 268c88 0 161 -28 212 -77c53 51 126 77 202 77c172 0 260 -90 260 -253v-70z
M618 295h231c-1 69 -37 111 -101 111c-74 0 -122 -34 -130 -111zM332 115c81 0 134 62 134 141c0 92 -58 143 -140 143c-79 0 -134 -54 -134 -143c0 -81 55 -141 140 -141z" />
    <glyph glyph-name="thorn" unicode="&#xfe;" horiz-adv-x="671" 
d="M359 523c146 0 277 -80 277 -263c0 -175 -132 -270 -271 -270c-58 0 -109 13 -149 31v-221h-151v891h151v-201c50 22 97 33 143 33zM337 114c77 0 142 45 142 146c0 93 -57 139 -138 139c-49 0 -91 -13 -125 -32v-221c31 -19 71 -32 121 -32z" />
    <glyph glyph-name="scaron" unicode="&#x161;" horiz-adv-x="547" 
d="M345 591h-155l-107 145h116l69 -73l68 73h116zM288 524c81 0 148 -15 191 -33v-120c-70 24 -127 34 -181 34c-45 0 -117 -3 -117 -37c0 -23 14 -24 76 -38l104 -23c108 -24 151 -73 151 -150c0 -97 -71 -169 -262 -169c-68 0 -163 19 -205 33v124c36 -12 131 -35 201 -35
c93 0 116 14 116 42c0 17 -9 31 -78 45l-112 23c-113 23 -137 82 -137 148c0 112 106 156 253 156z" />
    <glyph glyph-name="germandbls" unicode="&#xdf;" horiz-adv-x="655" 
d="M301 723c129 0 242 -54 242 -153c0 -159 -129 -118 -129 -185c0 -21 9 -29 59 -50l61 -25c66 -27 103 -79 103 -143c0 -112 -66 -179 -235 -179c-48 0 -100 10 -151 28v136c41 -24 107 -40 152 -40c47 0 77 12 77 48c0 23 -12 39 -60 56l-83 30c-54 20 -80 64 -80 121
c0 126 132 104 130 175c-1 39 -25 57 -85 57c-73 0 -86 -28 -86 -83v-516h-151v510c0 151 78 213 236 213z" />
    <glyph glyph-name="uacute" unicode="&#xfa;" horiz-adv-x="658" 
d="M375 591h-116l74 145h143zM593 513v-513h-122l-16 54c-44 -29 -121 -66 -199 -66c-113 0 -191 49 -191 206v319h151v-300c0 -63 22 -100 89 -100c56 0 105 26 137 49v351h151z" />
    <glyph glyph-name="ucircumflex" unicode="&#xfb;" horiz-adv-x="658" 
d="M260 591h-116l107 145h155l107 -145h-116l-68 73zM593 513v-513h-122l-16 54c-44 -29 -121 -66 -199 -66c-113 0 -191 49 -191 206v319h151v-300c0 -63 22 -100 89 -100c56 0 105 26 137 49v351h151z" />
    <glyph glyph-name="udieresis" unicode="&#xfc;" horiz-adv-x="658" 
d="M288 586h-149v129h149v-129zM518 586h-149v129h149v-129zM593 513v-513h-122l-16 54c-44 -29 -121 -66 -199 -66c-113 0 -191 49 -191 206v319h151v-300c0 -63 22 -100 89 -100c56 0 105 26 137 49v351h151z" />
    <glyph glyph-name="ugrave" unicode="&#xf9;" horiz-adv-x="658" 
d="M283 591l-101 145h143l74 -145h-116zM593 513v-513h-122l-16 54c-44 -29 -121 -66 -199 -66c-113 0 -191 49 -191 206v319h151v-300c0 -63 22 -100 89 -100c56 0 105 26 137 49v351h151z" />
    <glyph glyph-name="yacute" unicode="&#xfd;" horiz-adv-x="590" 
d="M341 591h-116l74 145h143zM436 513h164c-23 -66 -211 -527 -344 -713h-157c45 72 84 137 118 199c-108 202 -215 476 -227 514h164c12 -43 93 -255 138 -370c54 112 98 226 144 370z" />
    <glyph glyph-name="ydieresis" unicode="&#xff;" horiz-adv-x="590" 
d="M254 586h-149v129h149v-129zM484 586h-149v129h149v-129zM436 513h164c-23 -66 -211 -527 -344 -713h-157c45 72 84 137 118 199c-108 202 -215 476 -227 514h164c12 -43 93 -255 138 -370c54 112 98 226 144 370z" />
    <glyph glyph-name="zcaron" unicode="&#x17e;" horiz-adv-x="571" 
d="M372 591h-155l-107 145h116l69 -73l68 73h116zM529 415l-292 -295h294v-120h-491v98l292 295h-284v120h481v-98z" />
    <glyph glyph-name="fi" unicode="&#xfb01;" horiz-adv-x="671" 
d="M294 723c47 0 70 -3 109 -17v-122c-27 11 -58 15 -77 15c-67 0 -79 -18 -79 -63v-23h159v-120h-159v-393h-151v393h-106v120h106v32c0 129 91 178 198 178zM615 586h-169v129h169v-129zM606 0h-151v513h151v-513z" />
    <glyph glyph-name="fl" unicode="&#xfb02;" horiz-adv-x="671" 
d="M294 723c47 0 70 -3 109 -17v-122c-27 11 -58 15 -77 15c-67 0 -79 -18 -79 -63v-23h159v-120h-159v-393h-151v393h-106v120h106v32c0 129 91 178 198 178zM606 0h-151v691h151v-691z" />
    <glyph glyph-name="ordfeminine" unicode="&#xaa;" horiz-adv-x="570" 
d="M282 663c128 0 223 -43 223 -182v-258h-119l-9 28c-31 -17 -78 -36 -136 -36c-112 0 -176 63 -176 146c0 101 99 134 184 134c27 0 63 -3 109 -15c0 51 -44 66 -111 66c-44 0 -96 -14 -148 -29v123c42 13 120 23 183 23zM217 359c0 -18 19 -29 61 -29c26 0 54 10 80 22
v29c-21 8 -49 13 -83 13c-40 0 -58 -14 -58 -35zM65 147h440v-145h-440v145z" />
    <glyph glyph-name="ordmasculine" unicode="&#xba;" horiz-adv-x="561" 
d="M282 663c144 0 244 -80 244 -225c0 -144 -100 -223 -244 -223c-146 0 -247 77 -247 223c0 147 101 225 247 225zM279 543c-58 0 -98 -40 -98 -105c0 -59 40 -103 103 -103c58 0 97 45 97 103c0 68 -43 105 -102 105zM501 0h-440v145h440v-145z" />
    <glyph glyph-name="uni0410" unicode="&#x410;" horiz-adv-x="683" 
d="M527 0l-38 118h-307c-12 -39 -24 -79 -36 -118h-161c70 229 162 472 246 650h216c93 -197 186 -440 251 -650h-171zM225 249h220c-32 91 -66 182 -111 286c-40 -92 -76 -189 -109 -286z" />
    <glyph glyph-name="uni0411" unicode="&#x411;" horiz-adv-x="669" 
d="M545 519h-320v-85h137c178 0 277 -68 277 -207c0 -140 -92 -227 -280 -227h-289v650h475v-131zM225 307v-176h133c83 0 119 26 119 94c0 54 -37 82 -119 82h-133z" />
    <glyph glyph-name="uni0412" unicode="&#x412;" horiz-adv-x="702" 
d="M70 650h267c137 0 291 -28 291 -166c0 -57 -34 -118 -115 -146v-3c69 -11 144 -60 144 -145c0 -158 -150 -190 -282 -190h-305v650zM225 525v-139h118c65 0 122 11 122 72s-61 67 -118 67h-122zM225 275v-150h149c80 0 121 18 121 73c0 65 -55 77 -132 77h-138z" />
    <glyph glyph-name="uni0413" unicode="&#x413;" horiz-adv-x="535" 
d="M515 519h-290v-519h-155v650h445v-131z" />
    <glyph glyph-name="uni0403" unicode="&#x403;" horiz-adv-x="535" 
d="M327 710h-116l74 145h143zM515 519h-290v-519h-155v650h445v-131z" />
    <glyph glyph-name="uni0490" unicode="&#x490;" horiz-adv-x="535" 
d="M515 819v-300h-290v-519h-155v650h295v169h150z" />
    <glyph glyph-name="uni0414" unicode="&#x414;" horiz-adv-x="690" 
d="M685 131v-300h-150v169h-390v-169h-150v300h68c19 21 30 58 43 124c16 79 33 240 44 396l454 -1v-519h81zM449 131v388h-162c-17 -156 -27 -220 -45 -306c-7 -31 -16 -58 -27 -82h234z" />
    <glyph glyph-name="uni0415" unicode="&#x415;" horiz-adv-x="627" 
d="M575 519h-350v-124h317v-126h-317v-138h357v-131h-512v650h505v-131z" />
    <glyph glyph-name="uni0400" unicode="&#x400;" horiz-adv-x="627" 
d="M394 710h-116l-101 145h143zM575 519h-350v-124h317v-126h-317v-138h357v-131h-512v650h505v-131z" />
    <glyph glyph-name="uni0401" unicode="&#x401;" horiz-adv-x="627" 
d="M284 706h-149v129h149v-129zM514 706h-149v129h149v-129zM575 519h-350v-124h317v-126h-317v-138h357v-131h-512v650h505v-131z" />
    <glyph glyph-name="uni0416" unicode="&#x416;" horiz-adv-x="1014" 
d="M1014 0h-194c-54 91 -110 171 -173 251h-65v-251h-150v251h-65c-63 -80 -119 -160 -173 -251h-194c79 112 158 226 242 334c-42 73 -103 163 -224 316h186c46 -63 118 -172 170 -268h58v268h150v-268h58c52 96 124 205 170 268h186c-121 -153 -182 -243 -224 -316
c84 -108 163 -222 242 -334z" />
    <glyph glyph-name="uni0417" unicode="&#x417;" horiz-adv-x="618" 
d="M267 662c184 0 277 -65 277 -170c0 -64 -35 -119 -114 -148v-3c90 -17 143 -74 143 -146c0 -133 -93 -207 -316 -207c-54 0 -136 8 -207 23v146c45 -13 123 -33 212 -33c110 0 149 28 149 81c0 46 -33 70 -131 70h-141v111h121c94 0 122 26 122 72c0 42 -30 68 -132 68
c-89 0 -153 -17 -193 -30v138c62 19 145 28 210 28z" />
    <glyph glyph-name="uni0418" unicode="&#x418;" horiz-adv-x="749" 
d="M222 649v-420l284 420h173v-649h-152v441l-297 -441h-160v649h152z" />
    <glyph glyph-name="uni0419" unicode="&#x419;" horiz-adv-x="749" 
d="M537 835h-89c-15 -43 -38 -57 -77 -57c-31 0 -52 18 -58 57h-116c9 -92 61 -141 165 -141c95 0 162 51 175 141zM222 649v-420l284 420h173v-649h-152v441l-297 -441h-160v649h152z" />
    <glyph glyph-name="uni040D" unicode="&#x40d;" horiz-adv-x="749" 
d="M438 710h-116l-101 145h143zM222 649v-420l284 420h173v-649h-152v441l-297 -441h-160v649h152z" />
    <glyph glyph-name="uni041A" unicode="&#x41a;" horiz-adv-x="689" 
d="M694 0h-195c-60 84 -131 170 -206 252h-68v-252h-155v650h155v-268h59c61 96 147 205 199 268h193c-142 -153 -217 -243 -266 -316c107 -108 201 -222 284 -334z" />
    <glyph glyph-name="uni040C" unicode="&#x40c;" horiz-adv-x="689" 
d="M389 710h-116l74 145h143zM694 0h-195c-60 84 -131 170 -206 252h-68v-252h-155v650h155v-268h59c61 96 147 205 199 268h193c-142 -153 -217 -243 -266 -316c107 -108 201 -222 284 -334z" />
    <glyph glyph-name="uni041B" unicode="&#x41b;" horiz-adv-x="665" 
d="M595 650h-444c-11 -156 -28 -316 -44 -395c-23 -116 -40 -145 -102 -145c-5 0 -7 0 -15 1l1 -122c10 -1 18 -1 24 -1c151 0 200 79 228 222c17 86 28 153 45 309h152v-519h155v650z" />
    <glyph glyph-name="uni041C" unicode="&#x41c;" horiz-adv-x="910" 
d="M564 650h224c43 -225 66 -431 87 -650h-151c-20 231 -38 364 -60 496c-50 -145 -96 -290 -136 -435h-146c-40 145 -86 290 -136 435c-22 -132 -40 -265 -60 -496h-151c21 219 44 425 87 650h224c23 -73 89 -274 109 -365c21 91 86 292 109 365z" />
    <glyph glyph-name="uni041D" unicode="&#x41d;" horiz-adv-x="737" 
d="M667 0h-155v252h-287v-252h-155v650h155v-267h287v267h155v-650z" />
    <glyph glyph-name="uni041E" unicode="&#x41e;" horiz-adv-x="781" 
d="M391 662c167 0 350 -104 350 -331c0 -248 -171 -343 -351 -343s-350 95 -350 343c0 228 183 331 351 331zM390 524c-103 0 -188 -69 -188 -194c0 -150 98 -206 189 -206s188 56 188 206c0 125 -85 194 -189 194z" />
    <glyph glyph-name="uni041F" unicode="&#x41f;" horiz-adv-x="732" 
d="M662 0h-155v519h-282v-519h-155v650h592v-650z" />
    <glyph glyph-name="uni0420" unicode="&#x420;" horiz-adv-x="689" 
d="M70 650h302c149 0 285 -47 285 -235c0 -181 -156 -236 -284 -236h-148v-179h-155v650zM225 519v-209h134c76 0 136 16 136 109c0 81 -59 100 -139 100h-131z" />
    <glyph glyph-name="uni0421" unicode="&#x421;" horiz-adv-x="657" 
d="M421 662c53 0 133 -9 195 -28v-138c-40 13 -98 30 -182 30c-151 0 -232 -72 -232 -200c0 -139 102 -203 229 -202c75 1 141 19 186 32v-146c-71 -15 -144 -22 -198 -22c-209 0 -379 98 -379 337c0 233 186 337 381 337z" />
    <glyph glyph-name="uni0422" unicode="&#x422;" horiz-adv-x="623" 
d="M603 519h-214v-519h-155v519h-214v131h583v-131z" />
    <glyph glyph-name="uni0423" unicode="&#x423;" horiz-adv-x="637" 
d="M474 650h178c-137 -258 -253 -465 -387 -650h-175c58 73 108 145 153 217c-150 205 -232 390 -253 433h176c9 -28 101 -220 158 -293c50 73 137 265 150 293z" />
    <glyph glyph-name="uni040E" unicode="&#x40e;" horiz-adv-x="637" 
d="M383 847h101c-5 -69 -42 -139 -164 -139c-123 0 -158 70 -164 139h101c7 -35 22 -55 63 -55c44 0 56 20 63 55zM474 650h178c-137 -258 -253 -465 -387 -650h-175c58 73 108 145 153 217c-150 205 -232 390 -253 433h176c9 -28 101 -220 158 -293c50 73 137 265 150 293z
" />
    <glyph glyph-name="uni0424" unicode="&#x424;" horiz-adv-x="827" 
d="M787 329c0 -214 -124 -314 -299 -335v-43l-149 -1v44c-175 21 -299 121 -299 335c0 200 132 303 299 326v45h149v-45c167 -23 299 -127 299 -326zM200 328c0 -115 60 -175 144 -194v381c-93 -20 -144 -84 -144 -187zM483 515v-382c87 19 144 78 144 195
c0 103 -51 167 -144 187z" />
    <glyph glyph-name="uni0425" unicode="&#x425;" horiz-adv-x="652" 
d="M424 327l248 -327h-193l-154 213l-158 -213h-187l247 327l-246 323h198l144 -216l143 216h194z" />
    <glyph glyph-name="uni0427" unicode="&#x427;" horiz-adv-x="671" 
d="M601 650v-650h-155v216c-45 -28 -118 -61 -194 -60c-131 1 -197 61 -197 230v264h155v-262c0 -73 32 -99 88 -99c60 0 106 18 148 48v313h155z" />
    <glyph glyph-name="uni0426" unicode="&#x426;" horiz-adv-x="732" 
d="M727 131v-300h-150v169h-507v650h155v-519h267v519h155v-519h80z" />
    <glyph glyph-name="uni0428" unicode="&#x428;" horiz-adv-x="966" 
d="M896 650v-650h-826v650h155v-519h183v519h150v-519h183v519h155z" />
    <glyph glyph-name="uni0429" unicode="&#x429;" horiz-adv-x="981" 
d="M976 131v-300h-150v169h-756v650h155v-519h183v519h150v-519h183v519h155v-519h80z" />
    <glyph glyph-name="uni040F" unicode="&#x40f;" horiz-adv-x="717" 
d="M647 0h-213v-169h-151v169h-213v650h155v-519h267v519h155v-650z" />
    <glyph glyph-name="uni042F" unicode="&#x42f;" horiz-adv-x="699" 
d="M629 650v-650h-155v206h-107c-45 -46 -101 -121 -153 -206h-194c33 51 102 149 180 231c-87 20 -148 92 -148 190c0 148 95 229 301 229h276zM471 519h-118c-98 0 -139 -34 -139 -95c0 -62 37 -87 136 -87h121v182z" />
    <glyph glyph-name="uni042C" unicode="&#x42c;" horiz-adv-x="659" 
d="M225 434h137c178 0 277 -68 277 -207c0 -140 -92 -227 -280 -227h-289v650h155v-216zM225 131h133c83 0 119 26 119 94c0 54 -37 82 -119 82h-133v-176z" />
    <glyph glyph-name="uni042A" unicode="&#x42a;" horiz-adv-x="774" 
d="M340 434h137c178 0 277 -68 277 -207c0 -140 -92 -227 -280 -227h-289v519h-180v131h335v-216zM340 131h133c83 0 119 26 119 94c0 54 -37 82 -119 82h-133v-176z" />
    <glyph glyph-name="uni042B" unicode="&#x42b;" horiz-adv-x="950" 
d="M225 434h137c178 0 277 -68 277 -207c0 -140 -92 -227 -280 -227h-289v650h155v-216zM880 0h-155v650h155v-650zM225 307v-176h133c83 0 119 26 119 94c0 54 -37 82 -119 82h-133z" />
    <glyph glyph-name="uni0409" unicode="&#x409;" horiz-adv-x="1012" 
d="M588 434h127c178 0 277 -68 277 -207c0 -140 -92 -227 -280 -227h-279v519h-145c-17 -156 -28 -223 -45 -309c-28 -143 -77 -222 -228 -222c-6 0 -14 0 -24 1l-1 122c8 -1 10 -1 15 -1c62 0 79 29 102 145c16 79 33 239 44 395h437v-216zM588 131h123c83 0 119 26 119 94
c0 54 -37 82 -119 82h-123v-176z" />
    <glyph glyph-name="uni040A" unicode="&#x40a;" horiz-adv-x="1081" 
d="M657 404h139c175 0 265 -65 265 -195c0 -124 -85 -209 -268 -209h-291v277h-277v-277h-155v650h155v-246h277v246h155v-246zM657 131h135c83 0 107 24 107 76c0 44 -28 70 -107 70h-135v-146z" />
    <glyph glyph-name="uni0405" unicode="&#x405;" horiz-adv-x="643" 
d="M332 662c91 0 168 -19 226 -33v-136c-84 20 -141 34 -237 34c-92 0 -122 -23 -122 -58c0 -21 14 -40 67 -54l171 -45c119 -31 166 -92 166 -176c0 -130 -96 -206 -288 -206c-121 0 -194 17 -265 36v141c69 -18 177 -42 246 -42c103 0 147 15 147 56c0 29 -29 53 -88 68
l-165 42c-97 25 -150 91 -150 178c0 130 94 195 292 195z" />
    <glyph glyph-name="uni0404" unicode="&#x404;" horiz-adv-x="630" 
d="M384 124c95 1 161 19 206 32v-145c-71 -15 -144 -23 -218 -23c-202 0 -332 109 -332 341c0 233 159 333 344 333c63 0 143 -9 205 -28v-138c-40 13 -98 30 -192 30c-118 0 -174 -42 -191 -131h279v-126h-281c15 -101 75 -146 180 -145z" />
    <glyph glyph-name="uni042D" unicode="&#x42d;" horiz-adv-x="630" 
d="M246 662c185 0 344 -98 344 -333c0 -237 -143 -341 -342 -341c-64 0 -137 6 -208 21v146c45 -13 111 -30 196 -31c102 -1 171 44 189 145h-280v126h279c-16 90 -73 131 -191 131c-94 0 -152 -17 -192 -30v138c62 19 142 28 205 28z" />
    <glyph glyph-name="uni0406" unicode="&#x406;" horiz-adv-x="295" 
d="M225 0h-155v650h155v-650z" />
    <glyph glyph-name="uni0407" unicode="&#x407;" horiz-adv-x="295" 
d="M107 706h-149v129h149v-129zM337 706h-149v129h149v-129zM225 0h-155v650h155v-650z" />
    <glyph glyph-name="uni0408" unicode="&#x408;" horiz-adv-x="496" 
d="M431 650v-435c0 -141 -85 -225 -247 -225c-68 0 -138 12 -179 22v136c42 -12 95 -23 156 -23c99 0 115 44 115 120v405h155z" />
    <glyph glyph-name="uni040B" unicode="&#x40b;" horiz-adv-x="835" 
d="M583 444c131 -1 197 -61 197 -230v-214h-155v212c0 73 -32 99 -88 99c-60 0 -106 -18 -148 -48v-263h-155v519h-214v131h583v-131h-214v-135c45 28 118 61 194 60z" />
    <glyph glyph-name="uni042E" unicode="&#x42e;" horiz-adv-x="1018" 
d="M638 660c157 0 340 -103 340 -331c0 -243 -171 -339 -341 -339c-151 0 -296 75 -327 262h-85v-252h-155v650h155v-267h82c26 191 186 277 331 277zM638 128c81 0 178 55 178 200c0 126 -85 194 -179 194c-93 0 -173 -68 -173 -194c0 -145 93 -200 174 -200z" />
    <glyph glyph-name="uni0402" unicode="&#x402;" horiz-adv-x="835" 
d="M583 444c131 -1 197 -61 197 -230v-40c0 -139 -102 -188 -209 -188c-47 0 -86 5 -125 19v134c27 -13 74 -19 93 -19c69 0 86 26 86 71v21c0 73 -32 99 -88 99c-60 0 -106 -18 -148 -48v-263h-155v519h-214v131h583v-131h-214v-135c45 28 118 61 194 60z" />
    <glyph glyph-name="uni0492" unicode="&#x492;" horiz-adv-x="535" 
d="M225 519v-130h115v-131h-115v-258h-155v258h-70v131h70v261h445v-131h-290z" />
    <glyph glyph-name="uni0496" unicode="&#x496;" horiz-adv-x="1019" 
d="M1034 131v-300h-150v169h-64c-54 91 -110 171 -173 251h-65v-251h-150v251h-65c-63 -80 -119 -160 -173 -251h-194c79 112 158 226 242 334c-42 73 -103 163 -224 316h186c46 -63 118 -172 170 -268h58v268h150v-268h58c52 96 124 205 170 268h186
c-121 -153 -182 -243 -224 -316c51 -66 101 -134 150 -203h112z" />
    <glyph glyph-name="uni049A" unicode="&#x49a;" horiz-adv-x="684" 
d="M704 131v-300h-150v169h-55c-60 84 -131 170 -206 252h-68v-252h-155v650h155v-268h59c61 96 147 205 199 268h193c-142 -153 -217 -243 -266 -316c65 -66 126 -134 182 -203h112z" />
    <glyph glyph-name="uni049C" unicode="&#x49c;" horiz-adv-x="693" 
d="M693 0h-194c-54 91 -111 171 -174 252h-16v-172h-61v172h-23v-252h-155v650h155v-268h23v131h61v-131h10c52 96 124 205 170 268h186c-121 -153 -182 -243 -224 -316c84 -108 163 -222 242 -334z" />
    <glyph glyph-name="uni049D" unicode="&#x49d;" horiz-adv-x="613" 
d="M623 0h-181c-41 67 -79 123 -135 199h-9v-149h-56v149h-26v-199h-151v513h151v-194h26v104h56v-104h11c40 76 75 139 114 194h171c-65 -87 -113 -158 -161 -247c65 -83 162 -225 190 -266z" />
    <glyph glyph-name="uni04A2" unicode="&#x4a2;" horiz-adv-x="752" 
d="M747 131v-300h-150v169h-85v252h-287v-252h-155v650h155v-267h287v267h155v-519h80z" />
    <glyph glyph-name="uni04AE" unicode="&#x4ae;" horiz-adv-x="632" 
d="M469 650h178c-20 -42 -136 -262 -256 -436v-214h-154v217c-150 205 -231 390 -252 433h176c9 -28 96 -216 153 -289c56 73 142 261 155 289z" />
    <glyph glyph-name="uni04AF" unicode="&#x4af;" horiz-adv-x="570" 
d="M419 513h161c-12 -38 -106 -320 -219 -513v-200h-151v200c-113 193 -208 475 -220 513h161c12 -44 84 -274 134 -385c50 111 122 341 134 385z" />
    <glyph glyph-name="uni04B2" unicode="&#x4b2;" horiz-adv-x="672" 
d="M692 131v-300h-150v169h-63l-154 213l-158 -213h-187l247 327l-246 323h198l144 -216l143 216h194l-236 -323l149 -196h119z" />
    <glyph glyph-name="uni04B8" unicode="&#x4b8;" horiz-adv-x="671" 
d="M601 650v-650h-155v216c-16 -10 -37 -21 -59 -31v-105h-121v76h-14c-131 1 -197 61 -197 230v264h155v-262c0 -58 20 -86 56 -95v220h121v-208c21 8 41 19 59 32v313h155z" />
    <glyph glyph-name="uni04B9" unicode="&#x4b9;" horiz-adv-x="607" 
d="M542 513v-513h-151v168c-15 -10 -31 -21 -50 -31v-87h-101v59h-19c-124 2 -181 60 -181 219v185h151v-181c0 -56 15 -85 49 -94v175h101v-164c20 9 35 22 50 36v228h151z" />
    <glyph glyph-name="uni04BA" unicode="&#x4ba;" horiz-adv-x="671" 
d="M419 474c131 -1 197 -61 197 -230v-244h-155v242c0 73 -32 99 -88 99c-60 0 -106 -18 -148 -48v-293h-155v650h155v-236c45 28 118 61 194 60z" />
    <glyph glyph-name="uni04C0" unicode="&#x4c0;" horiz-adv-x="295" 
d="M225 0h-155v650h155v-650z" />
    <glyph glyph-name="uni04CF" unicode="&#x4cf;" horiz-adv-x="281" 
d="M216 0h-151v691h151v-691z" />
    <glyph glyph-name="uni04D8" unicode="&#x4d8;" horiz-adv-x="761" 
d="M375 662c203 0 346 -102 346 -329c0 -246 -158 -345 -338 -345c-190 0 -343 97 -343 344v62h515c-15 81 -69 130 -181 130c-95 0 -169 -13 -251 -30v141c106 20 181 27 252 27zM384 124c83 0 158 37 170 139h-342c0 -104 99 -139 172 -139z" />
    <glyph glyph-name="uni04E8" unicode="&#x4e8;" horiz-adv-x="781" 
d="M391 662c167 0 350 -104 350 -331c0 -248 -171 -343 -351 -343s-350 95 -350 343c0 228 183 331 351 331zM390 524c-88 0 -164 -51 -183 -145h367c-19 94 -94 145 -184 145zM391 124c77 0 158 40 181 144h-364c23 -104 105 -144 183 -144z" />
    <glyph glyph-name="uni04E9" unicode="&#x4e9;" horiz-adv-x="658" 
d="M330 524c173 0 293 -94 293 -268c0 -175 -120 -268 -293 -268c-174 0 -295 92 -295 268c0 175 121 268 295 268zM326 399c-61 0 -108 -33 -126 -90h259c-18 58 -68 90 -133 90zM332 113c62 0 108 37 126 91h-258c18 -55 66 -91 132 -91z" />
    <glyph glyph-name="uni0430" unicode="&#x430;" horiz-adv-x="629" 
d="M298 524c151 0 266 -51 266 -212v-312h-119l-14 45c-30 -20 -93 -57 -186 -57c-130 0 -205 76 -205 171c0 121 117 159 215 159c41 0 95 -4 158 -27v20c0 72 -63 95 -160 95c-63 0 -117 -15 -171 -30v123c47 14 140 25 216 25zM196 156c0 -34 32 -57 96 -57
c47 0 90 20 121 35v62c-29 14 -70 22 -124 22c-63 0 -93 -24 -93 -62z" />
    <glyph glyph-name="uni0431" unicode="&#x431;" horiz-adv-x="660" 
d="M385 484c151 0 240 -82 240 -239c0 -170 -122 -257 -296 -257c-183 0 -289 81 -289 302v2c0 271 58 371 376 399c69 6 95 11 119 34l28 -122c-20 -25 -72 -41 -156 -45c-154 -7 -204 -46 -212 -144c49 42 121 70 190 70zM333 113c83 0 135 47 135 132
c0 76 -38 119 -121 119c-66 0 -121 -39 -153 -85c-4 -118 41 -166 139 -166z" />
    <glyph glyph-name="uni0432" unicode="&#x432;" horiz-adv-x="609" 
d="M65 513h282c144 0 206 -51 206 -127c0 -53 -29 -98 -110 -118v-3c89 -11 139 -53 139 -119c0 -87 -58 -146 -222 -146h-295v513zM216 396v-87h124c29 0 56 14 56 45c0 24 -20 42 -56 42h-124zM216 215v-98h143c42 0 66 15 66 51c0 29 -24 47 -62 47h-147z" />
    <glyph glyph-name="uni0433" unicode="&#x433;" horiz-adv-x="462" 
d="M442 392h-226v-392h-151v513h377v-121z" />
    <glyph glyph-name="uni0453" unicode="&#x453;" horiz-adv-x="462" 
d="M338 591h-116l74 145h143zM442 392h-226v-392h-151v513h377v-121z" />
    <glyph glyph-name="uni0491" unicode="&#x491;" horiz-adv-x="462" 
d="M442 682v-294h-226v-388h-151v513h230v169h147z" />
    <glyph glyph-name="uni0434" unicode="&#x434;" horiz-adv-x="612" 
d="M622 125v-294h-147v169h-328v-169h-147v294h65c40 45 58 171 70 389l404 -1v-388h83zM388 125v268h-120c-12 -139 -31 -216 -62 -268h182z" />
    <glyph glyph-name="uni0435" unicode="&#x435;" horiz-adv-x="612" 
d="M577 201h-387c10 -77 94 -93 152 -93c73 0 153 18 208 35v-118c-60 -19 -137 -37 -212 -37c-184 0 -303 83 -303 272c0 181 138 264 285 264c169 0 257 -90 257 -253v-70zM191 295h231c-1 69 -37 111 -101 111c-74 0 -122 -34 -130 -111z" />
    <glyph glyph-name="uni0450" unicode="&#x450;" horiz-adv-x="612" 
d="M271 591l-101 145h143l74 -145h-116zM577 201h-387c10 -77 94 -93 152 -93c73 0 153 18 208 35v-118c-60 -19 -137 -37 -212 -37c-184 0 -303 83 -303 272c0 181 138 264 285 264c169 0 257 -90 257 -253v-70zM191 295h231c-1 69 -37 111 -101 111
c-74 0 -122 -34 -130 -111z" />
    <glyph glyph-name="uni0451" unicode="&#x451;" horiz-adv-x="612" 
d="M276 586h-149v129h149v-129zM506 586h-149v129h149v-129zM577 201h-387c10 -77 94 -93 152 -93c73 0 153 18 208 35v-118c-60 -19 -137 -37 -212 -37c-184 0 -303 83 -303 272c0 181 138 264 285 264c169 0 257 -90 257 -253v-70zM191 295h231c-1 69 -37 111 -101 111
c-74 0 -122 -34 -130 -111z" />
    <glyph glyph-name="uni0436" unicode="&#x436;" horiz-adv-x="867" 
d="M877 0h-181c-41 67 -79 123 -135 199h-52v-199h-151v199h-57c-55 -76 -90 -133 -130 -199h-181c28 41 125 183 190 266c-48 89 -96 160 -161 247h171c39 -55 72 -118 112 -194h56v194h151v-194h54c40 76 75 139 114 194h171c-65 -87 -113 -158 -161 -247
c65 -83 162 -225 190 -266z" />
    <glyph glyph-name="uni0437" unicode="&#x437;" horiz-adv-x="487" 
d="M240 524c147 0 201 -59 201 -128c0 -61 -33 -107 -107 -128v-3c88 -16 126 -59 126 -125c0 -88 -71 -152 -242 -152c-49 0 -131 9 -188 23v120c41 -13 119 -25 192 -25c52 0 81 21 81 62c0 29 -24 47 -62 47h-157v94h134c39 0 66 16 66 47c0 29 -20 51 -71 51
c-60 0 -127 -15 -173 -32v121c61 18 123 28 200 28z" />
    <glyph glyph-name="uni0438" unicode="&#x438;" horiz-adv-x="633" 
d="M215 513v-294l187 294h166v-513h-150v311l-199 -311h-154v513h150z" />
    <glyph glyph-name="uni0439" unicode="&#x439;" horiz-adv-x="633" 
d="M482 725h-89c-15 -43 -38 -57 -77 -57c-31 0 -52 18 -58 57h-116c9 -92 61 -141 165 -141c95 0 162 51 175 141zM215 513v-294l187 294h166v-513h-150v311l-199 -311h-154v513h150z" />
    <glyph glyph-name="uni045D" unicode="&#x45d;" horiz-adv-x="633" 
d="M387 591h-116l-101 145h143zM215 513v-294l187 294h166v-513h-150v311l-199 -311h-154v513h150z" />
    <glyph glyph-name="uni043A" unicode="&#x43a;" horiz-adv-x="614" 
d="M624 0h-184c-39 58 -89 122 -159 199h-65v-199h-151v513h151v-194h50c52 77 97 137 147 194h182c-75 -87 -135 -158 -201 -247c91 -83 210 -240 230 -266z" />
    <glyph glyph-name="uni045C" unicode="&#x45c;" horiz-adv-x="614" 
d="M353 591h-116l74 145h143zM624 0h-184c-39 58 -89 122 -159 199h-65v-199h-151v513h151v-194h50c52 77 97 137 147 194h182c-75 -87 -135 -158 -201 -247c91 -83 210 -240 230 -266z" />
    <glyph glyph-name="uni043B" unicode="&#x43b;" horiz-adv-x="576" 
d="M511 513h-404c-15 -282 -41 -408 -112 -408c-5 0 -7 0 -15 1l1 -117c10 -1 21 -1 27 -1c141 0 204 84 232 405h120v-393h151v513z" />
    <glyph glyph-name="uni043C" unicode="&#x43c;" horiz-adv-x="778" 
d="M477 513h208c35 -225 50 -337 69 -513h-147c-18 184 -19 227 -38 359c-52 -145 -60 -173 -108 -318h-142c-43 145 -53 173 -108 318c-20 -132 -24 -176 -40 -359h-147c17 176 32 288 70 513h208c23 -73 65 -199 88 -295c24 96 64 222 87 295z" />
    <glyph glyph-name="uni043D" unicode="&#x43d;" horiz-adv-x="633" 
d="M417 0v194h-201v-194h-151v513h151v-194h201v194h151v-513h-151z" />
    <glyph glyph-name="uni043E" unicode="&#x43e;" horiz-adv-x="658" 
d="M330 524c173 0 293 -94 293 -268c0 -175 -120 -268 -293 -268c-174 0 -295 92 -295 268c0 175 121 268 295 268zM326 399c-79 0 -134 -54 -134 -143c0 -83 55 -143 140 -143c81 0 134 62 134 143c0 92 -58 143 -140 143z" />
    <glyph glyph-name="uni043F" unicode="&#x43f;" horiz-adv-x="648" 
d="M583 0h-151v388h-216v-388h-151v513h518v-513z" />
    <glyph glyph-name="uni0440" unicode="&#x440;" horiz-adv-x="671" 
d="M359 524c146 0 277 -81 277 -264c0 -175 -132 -272 -271 -272c-58 0 -109 13 -149 31v-219h-151v713h112l11 -37c60 32 116 48 171 48zM337 112c77 0 142 47 142 148c0 93 -57 140 -138 140c-49 0 -91 -14 -125 -33v-223c31 -19 71 -32 121 -32z" />
    <glyph glyph-name="uni0441" unicode="&#x441;" horiz-adv-x="553" 
d="M323 524c77 0 131 -9 190 -29v-129c-44 19 -93 33 -163 33c-84 0 -158 -43 -158 -141c0 -104 87 -145 159 -145c73 0 121 10 162 23v-127c-56 -12 -121 -21 -168 -21c-174 0 -310 81 -310 266c0 180 136 270 288 270z" />
    <glyph glyph-name="uni0442" unicode="&#x442;" horiz-adv-x="562" 
d="M542 393h-186v-393h-150v393h-186v120h522v-120z" />
    <glyph glyph-name="uni0443" unicode="&#x443;" horiz-adv-x="590" 
d="M436 513h164c-23 -66 -211 -527 -344 -713h-157c45 72 84 137 118 199c-108 202 -215 476 -227 514h164c12 -43 93 -255 138 -370c54 112 98 226 144 370z" />
    <glyph glyph-name="uni045E" unicode="&#x45e;" horiz-adv-x="590" 
d="M295 584c-123 0 -158 70 -164 139h101c7 -35 22 -55 63 -55c44 0 56 20 63 55h101c-5 -69 -42 -139 -164 -139zM436 513h164c-23 -66 -211 -527 -344 -713h-157c45 72 84 137 118 199c-108 202 -215 476 -227 514h164c12 -43 93 -255 138 -370c54 112 98 226 144 370z
" />
    <glyph glyph-name="uni0444" unicode="&#x444;" horiz-adv-x="831" 
d="M519 523c146 0 277 -80 277 -263c0 -175 -132 -270 -271 -270c-12 0 -23 0 -34 1v-191h-151v191c-11 -1 -22 -1 -34 -1c-139 0 -271 95 -271 270c0 183 131 263 277 263c9 0 19 0 28 -1v169h151v-169c9 1 19 1 28 1zM192 260c0 -101 65 -148 142 -148h9v289h-13
c-81 0 -138 -48 -138 -141zM488 112h9c77 0 142 47 142 148c0 93 -57 141 -138 141h-13v-289z" />
    <glyph glyph-name="uni0445" unicode="&#x445;" horiz-adv-x="583" 
d="M384 253l209 -253h-183l-124 159l-113 -159h-182l198 253l-199 260h188l110 -171l115 171h180z" />
    <glyph glyph-name="uni0447" unicode="&#x447;" horiz-adv-x="607" 
d="M542 513v-513h-151v168c-40 -29 -93 -60 -170 -59c-124 2 -181 60 -181 219v185h151v-181c0 -70 24 -98 79 -98c60 0 92 24 121 51v228h151z" />
    <glyph glyph-name="uni0446" unicode="&#x446;" horiz-adv-x="646" 
d="M656 125v-294h-147v169h-444v513h151v-388h206v388h151v-388h83z" />
    <glyph glyph-name="uni0448" unicode="&#x448;" horiz-adv-x="888" 
d="M823 513v-513h-758v513h151v-388h155v388h146v-388h155v388h151z" />
    <glyph glyph-name="uni0449" unicode="&#x449;" horiz-adv-x="896" 
d="M906 125v-294h-147v169h-694v513h151v-388h155v388h146v-388h155v388h151v-388h83z" />
    <glyph glyph-name="uni045F" unicode="&#x45f;" horiz-adv-x="638" 
d="M573 0h-180v-169h-148v169h-180v513h151v-388h206v388h151v-513z" />
    <glyph glyph-name="uni044F" unicode="&#x44f;" horiz-adv-x="634" 
d="M569 513v-513h-152v157c-38 -5 -71 -7 -103 -8c-48 -55 -84 -104 -115 -149h-184c13 17 75 94 141 167c-66 26 -102 79 -102 152c0 107 71 194 246 194h269zM286 267c35 0 96 2 132 5v123h-123c-63 0 -86 -28 -86 -67c0 -40 21 -61 77 -61z" />
    <glyph glyph-name="uni044C" unicode="&#x44c;" horiz-adv-x="614" 
d="M377 366c138 0 212 -70 212 -180c0 -127 -65 -196 -265 -196c-115 0 -191 10 -259 19v504h152v-179c63 23 119 32 160 32zM332 107c75 0 101 31 101 72c0 45 -26 67 -90 67c-55 0 -95 -9 -127 -22v-104c39 -8 69 -13 116 -13z" />
    <glyph glyph-name="uni044A" unicode="&#x44a;" horiz-adv-x="739" 
d="M502 366c138 0 212 -70 212 -180c0 -127 -65 -196 -265 -196c-115 0 -191 10 -259 19v379h-175v125h327v-179c63 23 119 32 160 32zM457 107c75 0 101 31 101 72c0 45 -26 67 -90 67c-55 0 -95 -9 -127 -22v-104c39 -8 69 -13 116 -13z" />
    <glyph glyph-name="uni044B" unicode="&#x44b;" horiz-adv-x="875" 
d="M373 366c132 0 206 -70 206 -180c0 -127 -74 -196 -259 -196c-107 0 -187 10 -255 19v504h152v-179c63 23 121 32 156 32zM810 0h-151v513h151v-513zM328 107c69 0 95 31 95 72c0 45 -26 67 -84 67c-47 0 -91 -9 -123 -22v-104c39 -8 72 -13 112 -13z" />
    <glyph glyph-name="uni0459" unicode="&#x459;" horiz-adv-x="890" 
d="M658 366c133 0 207 -70 207 -180c0 -127 -65 -196 -260 -196c-110 0 -186 10 -254 19v384h-111c-28 -321 -91 -405 -232 -405c-6 0 -17 0 -27 1l-1 117c8 -1 10 -1 15 -1c71 0 97 126 112 408h396v-179c63 23 114 32 155 32zM613 107c70 0 96 31 96 72
c0 45 -26 67 -85 67c-50 0 -90 -9 -122 -22v-104c39 -8 69 -13 111 -13z" />
    <glyph glyph-name="uni045A" unicode="&#x45a;" horiz-adv-x="955" 
d="M723 366c133 0 207 -70 207 -180c0 -127 -65 -196 -260 -196c-110 0 -185 10 -253 19v185h-201v-194h-151v513h151v-194h201v194h151v-179c63 23 114 32 155 32zM678 107c70 0 96 31 96 72c0 45 -26 67 -85 67c-49 0 -89 -9 -121 -22v-104c39 -8 68 -13 110 -13z" />
    <glyph glyph-name="uni0455" unicode="&#x455;" horiz-adv-x="547" 
d="M288 524c81 0 148 -15 191 -33v-120c-70 24 -127 34 -181 34c-45 0 -117 -3 -117 -37c0 -23 14 -24 76 -38l104 -23c108 -24 151 -73 151 -150c0 -97 -71 -169 -262 -169c-68 0 -163 19 -205 33v124c36 -12 131 -35 201 -35c93 0 116 14 116 42c0 17 -9 31 -78 45
l-112 23c-113 23 -137 82 -137 148c0 112 106 156 253 156z" />
    <glyph glyph-name="uni044D" unicode="&#x44d;" horiz-adv-x="530" 
d="M231 524c153 0 264 -84 264 -264c0 -183 -114 -270 -286 -270c-51 0 -116 8 -172 20v127c41 -12 89 -22 166 -22c62 0 114 28 130 95h-217v94h218c-13 66 -58 95 -130 95c-62 0 -123 -16 -167 -30v129c59 15 116 26 194 26z" />
    <glyph glyph-name="uni0454" unicode="&#x454;" horiz-adv-x="530" 
d="M326 399c-72 0 -117 -29 -130 -95h218v-94h-217c14 -67 62 -95 130 -95c77 0 125 10 166 22v-127c-56 -12 -121 -20 -172 -20c-172 0 -286 87 -286 270c0 180 111 264 264 264c78 0 135 -11 194 -26v-129c-44 14 -105 30 -167 30z" />
    <glyph glyph-name="uni0457" unicode="&#x457;" horiz-adv-x="281" 
d="M100 586h-149v129h149v-129zM330 586h-149v129h149v-129zM216 0h-151v513h151v-513z" />
    <glyph glyph-name="uni0456" unicode="&#x456;" horiz-adv-x="281" 
d="M225 586h-169v129h169v-129zM216 0h-151v513h151v-513z" />
    <glyph glyph-name="uni0458" unicode="&#x458;" horiz-adv-x="285" 
d="M229 586h-169v129h169v-129zM220 513v-547c0 -129 -98 -178 -205 -178c-47 0 -86 5 -125 19v124c27 -13 74 -19 93 -19c69 0 86 26 86 71v530h151z" />
    <glyph glyph-name="uni045B" unicode="&#x45b;" horiz-adv-x="668" 
d="M412 524c113 -2 191 -48 191 -205v-319h-151v300c0 63 -22 99 -89 99c-65 0 -115 -25 -146 -48l-1 -351h-151v560h-86v90h86v41h152v-41h130v-90h-130v-92c45 27 116 58 195 56z" />
    <glyph glyph-name="uni044E" unicode="&#x44e;" horiz-adv-x="871" 
d="M552 524c153 0 284 -89 284 -268c0 -178 -131 -266 -284 -266c-136 0 -252 68 -278 206h-58v-196h-151v513h151v-197h58c26 140 142 208 278 208zM554 116c69 0 124 61 124 140c0 92 -58 141 -130 141c-69 0 -124 -52 -124 -141c0 -81 57 -140 130 -140z" />
    <glyph glyph-name="uni0452" unicode="&#x452;" horiz-adv-x="668" 
d="M412 524c113 -2 191 -48 191 -205v-353c0 -129 -98 -178 -205 -178c-47 0 -86 5 -125 19v124c27 -13 74 -19 93 -19c69 0 86 26 86 71v317c0 63 -22 99 -89 99c-65 0 -115 -25 -146 -48l-1 -351h-151v560h-86v90h86v41h152v-41h130v-90h-130v-92c45 27 116 58 195 56z
" />
    <glyph glyph-name="uni0493" unicode="&#x493;" horiz-adv-x="474" 
d="M228 392v-89h130v-120h-130v-183h-151v183h-87v120h87v210h377v-121h-226z" />
    <glyph glyph-name="uni0497" unicode="&#x497;" horiz-adv-x="867" 
d="M886 125v-294h-147v169h-43c-41 67 -79 123 -135 199h-52v-199h-151v199h-57c-55 -76 -90 -133 -130 -199h-181c28 41 125 183 190 266c-48 89 -96 160 -161 247h171c39 -55 72 -118 112 -194h56v194h151v-194h54c40 76 75 139 114 194h171c-65 -87 -113 -158 -161 -247
c31 -39 69 -92 103 -141h96z" />
    <glyph glyph-name="uni049B" unicode="&#x49b;" horiz-adv-x="614" 
d="M624 125v-294h-147v169h-37c-39 58 -89 122 -159 199h-65v-199h-151v513h151v-194h50c52 77 97 137 147 194h182c-75 -87 -135 -158 -201 -247c42 -38 89 -92 131 -141h99z" />
    <glyph glyph-name="uni04A3" unicode="&#x4a3;" horiz-adv-x="641" 
d="M651 125v-294h-147v169h-87v194h-201v-194h-151v513h151v-194h201v194h151v-388h83z" />
    <glyph glyph-name="uni04B3" unicode="&#x4b3;" horiz-adv-x="583" 
d="M593 125v-294h-147v169h-36l-124 159l-113 -159h-182l198 253l-199 260h188l110 -171l115 171h180l-199 -260l106 -128h103z" />
    <glyph glyph-name="uni04BB" unicode="&#x4bb;" horiz-adv-x="668" 
d="M412 514c113 -2 191 -48 191 -205v-309h-151v290c0 63 -22 99 -89 99c-65 0 -115 -25 -147 -48v-341h-151v691h152v-233c45 27 116 58 195 56z" />
    <glyph glyph-name="uni04D9" unicode="&#x4d9;" horiz-adv-x="607" 
d="M280 524c178 0 292 -81 292 -266s-134 -268 -281 -268c-171 0 -261 84 -261 273v50h387c-8 76 -82 91 -141 91c-74 0 -164 -16 -219 -29v118c60 15 147 31 223 31zM286 108c74 0 121 34 130 111h-231c1 -69 37 -111 101 -111z" />
    <glyph glyph-name="Kanji" unicode="&#x5186;" horiz-adv-x="833" 
d="M763 650v-504c0 -92 -52 -156 -172 -156c-58 0 -82 2 -117 3v124c23 -1 46 -2 74 -2c56 0 63 14 63 50v82h-386v-247h-155v650h693zM350 519h-125v-141h125v141zM608 519h-127v-141h127v141z" />
    <glyph glyph-name="uni5143" unicode="&#x5143;" horiz-adv-x="869" 
d="M725 519h-637v131h637v-131zM770 307h-181v-145c0 -22 7 -34 34 -34c44 0 45 27 56 94l130 -21c-26 -152 -56 -201 -213 -201c-112 0 -162 44 -162 132v175h-78v-66c0 -160 -95 -209 -259 -252l-39 139c101 28 143 42 143 133v46h-158v131h727v-131z" />
    <glyph glyph-name="fraction" unicode="&#x2044;" horiz-adv-x="197" 
d="M-8 0h-122l337 650h120z" />
    <glyph glyph-name="onehalf" unicode="&#xbd;" horiz-adv-x="935" 
d="M194 284v261l-119 -17v82l214 42v-368h-95zM343 0h-122l337 650h120zM741 370c70 0 138 -39 138 -121c0 -74 -63 -122 -152 -170h146v-79h-287v80c121 68 196 117 196 158c0 38 -30 52 -69 52c-28 0 -66 -9 -113 -22v80c43 13 94 22 141 22z" />
    <glyph glyph-name="onequarter" unicode="&#xbc;" horiz-adv-x="911" 
d="M194 284v261l-119 -17v82l214 42v-368h-95zM343 0h-122l337 650h120zM895 69h-59v-69h-95v69h-207v70c58 91 95 142 159 221h116c-71 -81 -114 -137 -161 -212h93v86h95v-86h59v-79z" />
    <glyph glyph-name="threequarters" unicode="&#xbe;" horiz-adv-x="920" 
d="M334 589l-82 -83c62 -11 93 -53 93 -104c0 -89 -72 -121 -171 -121c-44 0 -78 5 -127 18v80c46 -12 89 -18 121 -18c47 0 80 15 80 42c0 36 -36 48 -115 48h-9v39l83 82h-157v78h284v-61zM229 0h122l335 650h-120zM904 69h-59v-69h-95v69h-207v70c58 91 95 142 159 221
h116c-71 -81 -114 -137 -161 -212h93v86h95v-86h59v-79z" />
    <glyph glyph-name="oneeighth" unicode="&#x215b;" horiz-adv-x="933" 
d="M194 284v261l-119 -17v82l214 42v-368h-95zM343 0h-122l337 650h120zM733 370c84 0 147 -35 147 -107c0 -36 -20 -62 -47 -78c31 -13 57 -47 57 -83c0 -75 -56 -111 -157 -111c-100 0 -156 35 -156 111c0 36 24 69 57 83c-28 17 -48 41 -48 78c0 72 63 106 147 107z
M734 297c-35 0 -52 -21 -52 -40c0 -20 18 -41 51 -41s51 21 51 41c0 19 -17 40 -50 40zM734 148c-48 0 -60 -24 -60 -40c0 -26 24 -40 59 -40c34 0 60 14 60 40c0 16 -13 40 -59 40z" />
    <glyph glyph-name="threeeighths" unicode="&#x215c;" horiz-adv-x="942" 
d="M334 589l-82 -83c62 -11 93 -53 93 -104c0 -89 -72 -121 -171 -121c-44 0 -78 5 -127 18v80c46 -12 89 -18 121 -18c47 0 80 15 80 42c0 36 -36 48 -115 48h-9v39l83 82h-157v78h284v-61zM228 0h122l335 650h-120zM742 370c84 0 147 -35 147 -107c0 -36 -20 -62 -47 -78
c31 -13 57 -47 57 -83c0 -75 -56 -111 -157 -111c-100 0 -156 35 -156 111c0 36 24 69 57 83c-28 17 -48 41 -48 78c0 72 63 106 147 107zM743 297c-35 0 -52 -21 -52 -40c0 -20 18 -41 51 -41s51 21 51 41c0 19 -17 40 -50 40zM743 148c-48 0 -60 -24 -60 -40
c0 -26 24 -40 59 -40c34 0 60 14 60 40c0 16 -13 40 -59 40z" />
    <glyph glyph-name="fiveeighths" unicode="&#x215d;" horiz-adv-x="953" 
d="M321 571h-165l-4 -47c13 3 28 5 53 5c98 0 153 -50 153 -119c0 -77 -59 -129 -173 -129c-42 0 -91 7 -131 19v81c48 -12 94 -20 122 -20c60 0 85 17 85 50c0 23 -22 39 -77 39c-41 0 -78 -4 -124 -14l16 214h245v-79zM238 0h122l335 650h-120zM753 370
c84 0 147 -35 147 -107c0 -36 -20 -62 -47 -78c31 -13 57 -47 57 -83c0 -75 -56 -111 -157 -111c-100 0 -156 35 -156 111c0 36 24 69 57 83c-28 17 -48 41 -48 78c0 72 63 106 147 107zM754 297c-35 0 -52 -21 -52 -40c0 -20 18 -41 51 -41s51 21 51 41c0 19 -17 40 -50 40
zM754 148c-48 0 -60 -24 -60 -40c0 -26 24 -40 59 -40c34 0 60 14 60 40c0 16 -13 40 -59 40z" />
    <glyph glyph-name="seveneighths" unicode="&#x215e;" horiz-adv-x="887" 
d="M354 650v-63c-70 -101 -142 -220 -172 -297h-102c55 123 126 239 157 281h-181v79h298zM173 0h122l335 650h-120zM687 370c84 0 147 -35 147 -107c0 -36 -20 -62 -47 -78c31 -13 57 -47 57 -83c0 -75 -56 -111 -157 -111c-100 0 -156 35 -156 111c0 36 24 69 57 83
c-28 17 -48 41 -48 78c0 72 63 106 147 107zM688 297c-35 0 -52 -21 -52 -40c0 -20 18 -41 51 -41s51 21 51 41c0 19 -17 40 -50 40zM688 148c-48 0 -60 -24 -60 -40c0 -26 24 -40 59 -40c34 0 60 14 60 40c0 16 -13 40 -59 40z" />
    <glyph glyph-name="zero.dnom" 
d="M198 370c117 0 176 -74 176 -192c0 -113 -63 -187 -177 -187c-110 0 -171 73 -171 187c0 118 56 192 172 192zM198 290c-47 0 -75 -40 -75 -112c0 -76 33 -107 75 -107c41 0 79 31 79 107c0 72 -35 112 -79 112z" />
    <glyph glyph-name="one.dnom" 
d="M194 0v261l-119 -17v82l214 42v-368h-95z" />
    <glyph glyph-name="two.dnom" 
d="M206 370c70 0 138 -39 138 -121c0 -74 -63 -122 -152 -170h146v-79h-287v80c121 68 196 117 196 158c0 38 -30 52 -69 52c-28 0 -66 -9 -113 -22v80c43 13 94 22 141 22z" />
    <glyph glyph-name="three.dnom" 
d="M334 299l-82 -83c62 -11 93 -53 93 -104c0 -89 -72 -121 -171 -121c-44 0 -78 5 -127 18v80c46 -12 89 -18 121 -18c47 0 80 15 80 42c0 36 -36 48 -115 48h-9v39l83 82h-157v78h284v-61z" />
    <glyph glyph-name="four.dnom" 
d="M384 69h-59v-69h-95v69h-207v70c58 91 95 142 159 221h116c-71 -81 -114 -137 -161 -212h93v86h95v-86h59v-79z" />
    <glyph glyph-name="five.dnom" 
d="M321 281h-165l-4 -47c13 3 28 5 53 5c98 0 153 -50 153 -119c0 -77 -59 -129 -173 -129c-42 0 -91 7 -131 19v81c48 -12 94 -20 122 -20c60 0 85 17 85 50c0 23 -22 39 -77 39c-41 0 -78 -4 -124 -14l16 214h245v-79z" />
    <glyph glyph-name="six.dnom" 
d="M331 370v-83c-70 4 -126 1 -178 -42c21 10 50 18 76 18c89 0 136 -57 136 -132c0 -84 -62 -140 -158 -140c-97 0 -169 47 -169 158c0 126 78 227 293 221zM207 190c-49 0 -72 -25 -72 -63c0 -33 18 -57 69 -57c46 0 64 31 64 60c0 31 -19 60 -61 60z" />
    <glyph glyph-name="seven.dnom" 
d="M354 360v-63c-70 -101 -142 -220 -172 -297h-102c55 123 126 239 157 281h-181v79h298z" />
    <glyph glyph-name="eight.dnom" 
d="M200 370c84 0 147 -35 147 -107c0 -36 -20 -62 -47 -78c31 -13 57 -47 57 -83c0 -75 -56 -111 -157 -111c-100 0 -156 35 -156 111c0 36 24 69 57 83c-28 17 -48 41 -48 78c0 72 63 106 147 107zM201 297c-35 0 -52 -21 -52 -40c0 -20 18 -41 51 -41s51 21 51 41
c0 19 -17 40 -50 40zM201 148c-48 0 -60 -24 -60 -40c0 -26 24 -40 59 -40c34 0 60 14 60 40c0 16 -13 40 -59 40z" />
    <glyph glyph-name="nine.dnom" 
d="M71 -9v83c70 -4 126 -1 178 42c-21 -10 -50 -18 -76 -18c-89 0 -136 57 -136 132c0 84 62 140 158 140c97 0 169 -49 169 -158c0 -126 -78 -227 -293 -221zM195 171c49 0 72 25 72 63c0 32 -20 57 -67 57c-48 0 -66 -31 -66 -60c0 -31 19 -60 61 -60z" />
    <glyph glyph-name="zero.numr" 
d="M198 660c117 0 176 -74 176 -192c0 -113 -63 -187 -177 -187c-110 0 -171 73 -171 187c0 118 56 192 172 192zM198 580c-47 0 -75 -40 -75 -112c0 -76 33 -107 75 -107c41 0 79 31 79 107c0 72 -35 112 -79 112z" />
    <glyph glyph-name="one.numr" 
d="M194 290v261l-119 -17v82l214 42v-368h-95z" />
    <glyph glyph-name="two.numr" 
d="M206 660c70 0 138 -39 138 -121c0 -74 -63 -122 -152 -170h146v-79h-287v80c121 68 196 117 196 158c0 38 -30 52 -69 52c-28 0 -66 -9 -113 -22v80c43 13 94 22 141 22z" />
    <glyph glyph-name="three.numr" 
d="M334 589l-82 -83c62 -11 93 -53 93 -104c0 -89 -72 -121 -171 -121c-44 0 -78 5 -127 18v80c46 -12 89 -18 121 -18c47 0 80 15 80 42c0 36 -36 48 -115 48h-9v39l83 82h-157v78h284v-61z" />
    <glyph glyph-name="four.numr" 
d="M384 359h-59v-69h-95v69h-207v70c58 91 95 142 159 221h116c-71 -81 -114 -137 -161 -212h93v86h95v-86h59v-79z" />
    <glyph glyph-name="five.numr" 
d="M321 571h-165l-4 -47c13 3 28 5 53 5c98 0 153 -50 153 -119c0 -77 -59 -129 -173 -129c-42 0 -91 7 -131 19v81c48 -12 94 -20 122 -20c60 0 85 17 85 50c0 23 -22 39 -77 39c-41 0 -78 -4 -124 -14l16 214h245v-79z" />
    <glyph glyph-name="six.numr" 
d="M331 660v-83c-70 4 -126 1 -178 -42c21 10 50 18 76 18c89 0 136 -57 136 -132c0 -84 -62 -140 -158 -140c-97 0 -169 47 -169 158c0 126 78 227 293 221zM207 480c-49 0 -72 -25 -72 -63c0 -33 18 -57 69 -57c46 0 64 31 64 60c0 31 -19 60 -61 60z" />
    <glyph glyph-name="seven.numr" 
d="M354 650v-63c-70 -101 -142 -220 -172 -297h-102c55 123 126 239 157 281h-181v79h298z" />
    <glyph glyph-name="eight.numr" 
d="M200 660c84 0 147 -35 147 -107c0 -36 -20 -62 -47 -78c31 -13 57 -47 57 -83c0 -75 -56 -111 -157 -111c-100 0 -156 35 -156 111c0 36 24 69 57 83c-28 17 -48 41 -48 78c0 72 63 106 147 107zM201 587c-35 0 -52 -21 -52 -40c0 -20 18 -41 51 -41s51 21 51 41
c0 19 -17 40 -50 40zM201 438c-48 0 -60 -24 -60 -40c0 -26 24 -40 59 -40c34 0 60 14 60 40c0 16 -13 40 -59 40z" />
    <glyph glyph-name="nine.numr" 
d="M71 281v83c70 -4 126 -1 178 42c-21 -10 -50 -18 -76 -18c-89 0 -136 57 -136 132c0 84 62 140 158 140c97 0 169 -49 169 -158c0 -126 -78 -227 -293 -221zM195 461c49 0 72 25 72 63c0 32 -20 57 -67 57c-48 0 -66 -31 -66 -60c0 -31 19 -60 61 -60z" />
    <glyph glyph-name="zeroinferior" unicode="&#x2080;" 
d="M198 270c117 0 176 -74 176 -192c0 -113 -63 -187 -177 -187c-110 0 -171 73 -171 187c0 118 56 192 172 192zM198 190c-47 0 -75 -40 -75 -112c0 -76 33 -107 75 -107c41 0 79 31 79 107c0 72 -35 112 -79 112z" />
    <glyph glyph-name="oneinferior" unicode="&#x2081;" 
d="M194 -100v261l-119 -17v82l214 42v-368h-95z" />
    <glyph glyph-name="twoinferior" unicode="&#x2082;" 
d="M206 270c70 0 138 -39 138 -121c0 -74 -63 -122 -152 -170h146v-79h-287v80c121 68 196 117 196 158c0 38 -30 52 -69 52c-28 0 -66 -9 -113 -22v80c43 13 94 22 141 22z" />
    <glyph glyph-name="threeinferior" unicode="&#x2083;" 
d="M334 199l-82 -83c62 -11 93 -53 93 -104c0 -89 -72 -121 -171 -121c-44 0 -78 5 -127 18v80c46 -12 89 -18 121 -18c47 0 80 15 80 42c0 36 -36 48 -115 48h-9v39l83 82h-157v78h284v-61z" />
    <glyph glyph-name="fourinferior" unicode="&#x2084;" 
d="M384 -31h-59v-69h-95v69h-207v70c58 91 95 142 159 221h116c-71 -81 -114 -137 -161 -212h93v86h95v-86h59v-79z" />
    <glyph glyph-name="fiveinferior" unicode="&#x2085;" 
d="M321 181h-165l-4 -47c13 3 28 5 53 5c98 0 153 -50 153 -119c0 -77 -59 -129 -173 -129c-42 0 -91 7 -131 19v81c48 -12 94 -20 122 -20c60 0 85 17 85 50c0 23 -22 39 -77 39c-41 0 -78 -4 -124 -14l16 214h245v-79z" />
    <glyph glyph-name="sixinferior" unicode="&#x2086;" 
d="M331 270v-83c-70 4 -126 1 -178 -42c21 10 50 18 76 18c89 0 136 -57 136 -132c0 -84 -62 -140 -158 -140c-97 0 -169 47 -169 158c0 126 78 227 293 221zM207 90c-49 0 -72 -25 -72 -63c0 -33 18 -57 69 -57c46 0 64 31 64 60c0 31 -19 60 -61 60z" />
    <glyph glyph-name="seveninferior" unicode="&#x2087;" 
d="M354 260v-63c-70 -101 -142 -220 -172 -297h-102c55 123 126 239 157 281h-181v79h298z" />
    <glyph glyph-name="eightinferior" unicode="&#x2088;" 
d="M200 270c84 0 147 -35 147 -107c0 -36 -20 -62 -47 -78c31 -13 57 -47 57 -83c0 -75 -56 -111 -157 -111c-100 0 -156 35 -156 111c0 36 24 69 57 83c-28 17 -48 41 -48 78c0 72 63 106 147 107zM201 197c-35 0 -52 -21 -52 -40c0 -20 18 -41 51 -41s51 21 51 41
c0 19 -17 40 -50 40zM201 48c-48 0 -60 -24 -60 -40c0 -26 24 -40 59 -40c34 0 60 14 60 40c0 16 -13 40 -59 40z" />
    <glyph glyph-name="nineinferior" unicode="&#x2089;" 
d="M71 -109v83c70 -4 126 -1 178 42c-21 -10 -50 -18 -76 -18c-89 0 -136 57 -136 132c0 84 62 140 158 140c97 0 169 -49 169 -158c0 -126 -78 -227 -293 -221zM195 71c49 0 72 25 72 63c0 32 -20 57 -67 57c-48 0 -66 -31 -66 -60c0 -31 19 -60 61 -60z" />
    <glyph glyph-name="zerosuperior" unicode="&#x2070;" 
d="M198 754c117 0 176 -74 176 -192c0 -113 -63 -187 -177 -187c-110 0 -171 73 -171 187c0 118 56 192 172 192zM198 674c-47 0 -75 -40 -75 -112c0 -76 33 -107 75 -107c41 0 79 31 79 107c0 72 -35 112 -79 112z" />
    <glyph glyph-name="onesuperior" unicode="&#xb9;" 
d="M194 384v261l-119 -17v82l214 42v-368h-95z" />
    <glyph glyph-name="twosuperior" unicode="&#xb2;" 
d="M206 754c70 0 138 -39 138 -121c0 -74 -63 -122 -152 -170h146v-79h-287v80c121 68 196 117 196 158c0 38 -30 52 -69 52c-28 0 -66 -9 -113 -22v80c43 13 94 22 141 22z" />
    <glyph glyph-name="threesuperior" unicode="&#xb3;" 
d="M334 683l-82 -83c62 -11 93 -53 93 -104c0 -89 -72 -121 -171 -121c-44 0 -78 5 -127 18v80c46 -12 89 -18 121 -18c47 0 80 15 80 42c0 36 -36 48 -115 48h-9v39l83 82h-157v78h284v-61z" />
    <glyph glyph-name="foursuperior" unicode="&#x2074;" 
d="M384 453h-59v-69h-95v69h-207v70c58 91 95 142 159 221h116c-71 -81 -114 -137 -161 -212h93v86h95v-86h59v-79z" />
    <glyph glyph-name="fivesuperior" unicode="&#x2075;" 
d="M321 665h-165l-4 -47c13 3 28 5 53 5c98 0 153 -50 153 -119c0 -77 -59 -129 -173 -129c-42 0 -91 7 -131 19v81c48 -12 94 -20 122 -20c60 0 85 17 85 50c0 23 -22 39 -77 39c-41 0 -78 -4 -124 -14l16 214h245v-79z" />
    <glyph glyph-name="sixsuperior" unicode="&#x2076;" 
d="M331 754v-83c-70 4 -126 1 -178 -42c21 10 50 18 76 18c89 0 136 -57 136 -132c0 -84 -62 -140 -158 -140c-97 0 -169 47 -169 158c0 126 78 227 293 221zM207 574c-49 0 -72 -25 -72 -63c0 -33 18 -57 69 -57c46 0 64 31 64 60c0 31 -19 60 -61 60z" />
    <glyph glyph-name="sevensuperior" unicode="&#x2077;" 
d="M354 744v-63c-70 -101 -142 -220 -172 -297h-102c55 123 126 239 157 281h-181v79h298z" />
    <glyph glyph-name="eightsuperior" unicode="&#x2078;" 
d="M200 754c84 0 147 -35 147 -107c0 -36 -20 -62 -47 -78c31 -13 57 -47 57 -83c0 -75 -56 -111 -157 -111c-100 0 -156 35 -156 111c0 36 24 69 57 83c-28 17 -48 41 -48 78c0 72 63 106 147 107zM201 681c-35 0 -52 -21 -52 -40c0 -20 18 -41 51 -41s51 21 51 41
c0 19 -17 40 -50 40zM201 532c-48 0 -60 -24 -60 -40c0 -26 24 -40 59 -40c34 0 60 14 60 40c0 16 -13 40 -59 40z" />
    <glyph glyph-name="ninesuperior" unicode="&#x2079;" 
d="M71 375v83c70 -4 126 -1 178 42c-21 -10 -50 -18 -76 -18c-89 0 -136 57 -136 132c0 84 62 140 158 140c97 0 169 -49 169 -158c0 -126 -78 -227 -293 -221zM195 555c49 0 72 25 72 63c0 32 -20 57 -67 57c-48 0 -66 -31 -66 -60c0 -31 19 -60 61 -60z" />
    <glyph glyph-name="periodcentered" unicode="&#xb7;" horiz-adv-x="252" 
d="M207 217h-162v155h162v-155z" />
    <glyph glyph-name="bullet" unicode="&#x2022;" horiz-adv-x="322" 
d="M277 184h-232v221h232v-221z" />
    <glyph glyph-name="ellipsis" unicode="&#x2026;" horiz-adv-x="756" 
d="M207 0h-162v155h162v-155zM459 0h-162v155h162v-155zM711 0h-162v155h162v-155z" />
    <glyph glyph-name="exclamdbl" unicode="&#x203c;" horiz-adv-x="522" 
d="M45 650h169l-12 -416h-145zM308 650h169l-12 -416h-145zM211 155v-155h-162v155h162zM474 155v-155h-162v155h162z" />
    <glyph glyph-name="exclamdown" unicode="&#xa1;" horiz-adv-x="253" 
d="M46 358v155h162v-155h-162zM54 279h145l12 -416h-169z" />
    <glyph glyph-name="overline" unicode="&#x203e;" horiz-adv-x="520" 
d="M520 614h-520v136h520v-136z" />
    <glyph glyph-name="questiondown" unicode="&#xbf;" horiz-adv-x="555" 
d="M257 513h162v-155h-162v155zM314 -147c-175 0 -279 60 -279 175c0 159 170 177 220 229c7 7 9 14 10 26h152c3 -14 4 -23 4 -36c0 -132 -215 -124 -215 -204c0 -41 38 -53 111 -53c84 0 152 15 227 33v-139c-59 -14 -139 -31 -230 -31z" />
    <glyph glyph-name="underscoredbl" unicode="&#x2017;" horiz-adv-x="520" 
d="M520 -54h-520v136h520v-136zM520 -300h-520v136h520v-136z" />
    <glyph glyph-name="uni208D" unicode="&#x208d;" horiz-adv-x="170" 
d="M91 302h98c-43 -84 -72 -160 -72 -246c0 -85 28 -160 73 -248h-99c-45 85 -66 160 -66 248c0 89 21 161 66 246z" />
    <glyph glyph-name="parenleftsuperior" unicode="&#x207d;" horiz-adv-x="170" 
d="M91 792h98c-43 -84 -72 -160 -72 -246c0 -85 28 -160 73 -248h-99c-45 85 -66 160 -66 248c0 89 21 161 66 246z" />
    <glyph glyph-name="uni208E" unicode="&#x208e;" horiz-adv-x="170" 
d="M-19 302h98c45 -85 66 -157 66 -246c0 -88 -21 -163 -66 -248h-99c45 88 73 163 73 248c0 86 -29 162 -72 246z" />
    <glyph glyph-name="parenrightsuperior" unicode="&#x207e;" horiz-adv-x="170" 
d="M-19 792h98c45 -85 66 -157 66 -246c0 -88 -21 -163 -66 -248h-99c45 88 73 163 73 248c0 86 -29 162 -72 246z" />
    <glyph glyph-name="emdash" unicode="&#x2014;" horiz-adv-x="860" 
d="M825 223h-790v145h790v-145z" />
    <glyph glyph-name="endash" unicode="&#x2013;" horiz-adv-x="560" 
d="M525 223h-490v145h490v-145z" />
    <glyph glyph-name="uni2015" unicode="&#x2015;" horiz-adv-x="860" 
d="M825 223h-790v145h790v-145z" />
    <glyph glyph-name="hyphentwo" unicode="&#x2010;" horiz-adv-x="460" 
d="M425 223h-390v145h390v-145z" />
    <glyph glyph-name="softhyphen" unicode="&#xad;" horiz-adv-x="460" 
d="M425 223h-390v145h390v-145z" />
    <glyph glyph-name="guillemotleft" unicode="&#xab;" horiz-adv-x="583" 
d="M181 265l109 -194h-118l-117 196l116 194h119zM418 265l110 -194h-119l-117 196l117 194h118z" />
    <glyph glyph-name="guillemotright" unicode="&#xbb;" horiz-adv-x="583" 
d="M291 267l-117 -196h-119l110 194l-109 196h118zM528 267l-117 -196h-118l109 194l-109 196h119z" />
    <glyph glyph-name="guilsinglleft" unicode="&#x2039;" horiz-adv-x="345" 
d="M181 265l109 -194h-118l-117 196l116 194h119z" />
    <glyph glyph-name="guilsinglright" unicode="&#x203a;" horiz-adv-x="345" 
d="M290 267l-117 -196h-118l109 194l-109 196h119z" />
    <glyph glyph-name="quotedblbase" unicode="&#x201e;" horiz-adv-x="392" 
d="M104 -81h-109l46 236h134zM301 -81h-109l46 236h134z" />
    <glyph glyph-name="quotedblleft" unicode="&#x201c;" horiz-adv-x="392" 
d="M154 427h-134l71 236h109zM351 427h-134l71 236h109z" />
    <glyph glyph-name="quotedblright" unicode="&#x201d;" horiz-adv-x="392" 
d="M104 427h-109l46 236h134zM301 427h-109l46 236h134z" />
    <glyph glyph-name="quoteleft" unicode="&#x2018;" horiz-adv-x="195" 
d="M91 663h109l-46 -236h-134z" />
    <glyph glyph-name="quotereversed" unicode="&#x201b;" horiz-adv-x="195" 
d="M154 663l46 -236h-109l-71 236h134z" />
    <glyph glyph-name="quoteright" unicode="&#x2019;" horiz-adv-x="195" 
d="M104 427h-109l46 236h134z" />
    <glyph glyph-name="quotesinglbase" unicode="&#x201a;" horiz-adv-x="195" 
d="M104 -81h-109l46 236h134z" />
    <glyph glyph-name="uni00A0" unicode="&#xa0;" horiz-adv-x="241" 
 />
    <glyph glyph-name="uni20BD" unicode="&#x20bd;" horiz-adv-x="664" 
d="M70 650h292c145 0 270 -45 270 -201c0 -166 -141 -210 -269 -210h-138v-45h115v-111h-115v-83h-155v83h-70v111h70v45h-70v121h70v290zM225 360h134c61 0 111 7 111 87c0 56 -48 72 -114 72h-131v-159z" />
    <glyph glyph-name="cent" unicode="&#xa2;" horiz-adv-x="553" 
d="M350 464c-84 0 -158 -43 -158 -141c0 -102 87 -143 159 -143c73 0 121 10 162 23v-127c-38 -8 -80 -15 -118 -18v-87h-151v94c-123 27 -209 108 -209 254c0 148 92 235 209 261v101h151v-95c42 -4 79 -13 118 -26v-129c-44 19 -93 33 -163 33z" />
    <glyph glyph-name="currency" unicode="&#xa4;" horiz-adv-x="600" 
d="M564 516l-65 -66c23 -39 34 -78 34 -118c0 -39 -11 -78 -34 -116l66 -65l-68 -69l-66 66c-38 -23 -77 -34 -116 -34c-40 0 -79 11 -117 34l-67 -66l-68 68l66 66c-23 37 -34 76 -34 117c0 39 11 79 34 118l-66 65l68 68l66 -66c40 23 79 35 116 35c39 0 78 -12 119 -35
l65 65zM314 452c-67 0 -118 -53 -118 -120c0 -65 53 -117 118 -117c67 0 118 51 118 117c0 67 -57 120 -118 120z" />
    <glyph glyph-name="Euro" unicode="&#x20ac;" horiz-adv-x="691" 
d="M465 126c75 1 141 18 186 31v-146c-71 -15 -144 -21 -198 -21c-162 0 -285 61 -325 213h-118l34 90h71l-1 29v11h-84l34 90h61c39 163 174 237 330 237c53 0 133 -9 195 -28v-138c-40 13 -98 30 -182 30c-99 0 -153 -36 -177 -101h232l-34 -90h-213v-10
c0 -10 0 -20 1 -30h226l-34 -90h-166c31 -54 87 -78 162 -77z" />
    <glyph glyph-name="florin" unicode="&#x192;" horiz-adv-x="490" 
d="M374 538c-40 0 -57 -17 -63 -63l-4 -23h159l-17 -120h-159l-41 -281c-18 -122 -91 -178 -213 -178c-34 0 -67 4 -116 17l17 122c38 -10 70 -15 99 -15c40 0 56 17 63 63l40 272h-106l17 120h106l5 32c17 122 91 178 213 178c34 0 67 -4 116 -17l-17 -122
c-38 10 -70 15 -99 15z" />
    <glyph glyph-name="franc" unicode="&#x20a3;" horiz-adv-x="605" 
d="M225 519v-115h307v-131h-307v-59h115v-121h-115v-93h-155v93h-70v121h70v436h495v-131h-340z" />
    <glyph glyph-name="lira" unicode="&#x20a4;" horiz-adv-x="556" 
d="M551 0h-481v88c50 40 75 96 75 140v10h-89v90h89v41h-89v90h89v11c0 129 68 192 202 192c43 0 92 -5 134 -17v-122c-30 9 -78 15 -102 15c-67 0 -79 -22 -79 -67v-12h124v-90h-124v-41h124v-90h-124v-2c0 -49 -13 -74 -49 -105h300v-131z" />
    <glyph glyph-name="uni20BA" unicode="&#x20ba;" horiz-adv-x="638" 
d="M448 364h155c0 -222 -191 -364 -377 -364c-15 0 -96 2 -110 3v210l-76 -41v101l76 41v56l-76 -41v101l76 41v180h155v-97l133 72v-101l-133 -72v-56l133 72v-101l-133 -72v-158c106 12 177 84 177 226z" />
    <glyph glyph-name="peseta" unicode="&#x20a7;" horiz-adv-x="1327" 
d="M70 650h272c149 0 285 -47 285 -235c0 -181 -156 -236 -284 -236h-118v-179h-155v650zM225 519v-209h104c76 0 136 16 136 109c0 81 -59 100 -139 100h-101zM757 291h90v-76h-90v-108c0 -26 7 -41 39 -41c10 0 32 4 51 10v-77c-24 -9 -42 -11 -69 -11
c-63 0 -114 24 -114 103v124h-50v76h50l5 72h88v-72zM1014 297c35 0 86 -7 112 -14v-77c-52 12 -93 16 -113 16c-39 0 -55 -2 -55 -17c0 -10 11 -13 40 -19l59 -11c64 -12 88 -43 88 -90c0 -55 -41 -97 -156 -97c-35 0 -74 5 -116 17v79c43 -13 82 -20 120 -20
c46 0 59 7 59 18c0 14 -5 16 -41 23l-63 12c-66 13 -80 48 -80 88c0 66 61 92 146 92z" />
    <glyph glyph-name="uni20B9" unicode="&#x20b9;" horiz-adv-x="590" 
d="M557 560h-110c20 -25 32 -53 36 -81h92l-18 -90h-85c-24 -69 -86 -132 -185 -163l167 -226h-153l-180 239l33 81c81 0 130 24 155 69h-282l18 90h283c-3 49 -44 81 -117 81h-186l18 90h532z" />
    <glyph glyph-name="sterling" unicode="&#xa3;" horiz-adv-x="556" 
d="M551 0h-481v88c50 40 75 96 75 170v34h-89v120h89v58c0 129 68 192 202 192c43 0 92 -5 134 -17v-122c-30 9 -78 15 -102 15c-67 0 -79 -22 -79 -67v-59h124v-120h-124v-16c0 -92 -13 -114 -49 -145h300v-131z" />
    <glyph glyph-name="yen" unicode="&#xa5;" horiz-adv-x="703" 
d="M490 650h180c-31 -59 -81 -133 -147 -227h131v-120h-223v-67h223v-116h-223v-120h-152v120h-221v116h221v67h-221v120h128c-75 105 -116 170 -143 227h174c31 -65 94 -177 138 -235c43 58 103 169 135 235z" />
    <glyph glyph-name="Omega" unicode="&#x3a9;" horiz-adv-x="760" 
d="M730 336c0 -94 -35 -169 -95 -215h100v-121h-300v127c40 21 133 75 133 208c0 120 -67 189 -189 189c-104 0 -187 -53 -187 -191c0 -118 79 -179 133 -206v-127h-300v121h100c-56 42 -95 119 -95 213c0 207 138 328 350 328c227 0 350 -136 350 -326z" />
    <glyph glyph-name="approxequal" unicode="&#x2248;" horiz-adv-x="559" 
d="M417 510h107c0 -89 -58 -160 -146 -160c-77 0 -122 43 -179 43c-33 0 -53 -16 -63 -47h-101c0 90 64 160 152 160c79 0 122 -46 181 -46c27 0 43 17 49 50zM417 277h107c0 -89 -58 -160 -146 -160c-77 0 -122 43 -179 43c-33 0 -53 -16 -63 -47h-101c0 90 64 160 152 160
c79 0 122 -46 181 -46c27 0 43 17 49 50z" />
    <glyph glyph-name="bulletoperator" unicode="&#x2219;" horiz-adv-x="252" 
d="M277 184h-232v221h232v-221z" />
    <glyph glyph-name="divide" unicode="&#xf7;" horiz-adv-x="560" 
d="M361 409h-162v135h162v-135zM35 359h490v-145h-490v145zM361 29h-162v135h162v-135z" />
    <glyph glyph-name="divisionslash" unicode="&#x2215;" horiz-adv-x="548" 
d="M210 0h-155l279 650h159z" />
    <glyph glyph-name="uni208C" unicode="&#x208c;" horiz-adv-x="305" 
d="M295 186v-90h-285v90h285zM295 46v-90h-285v90h285z" />
    <glyph glyph-name="equalsuperior" unicode="&#x207c;" horiz-adv-x="305" 
d="M295 676v-90h-285v90h285zM295 536v-90h-285v90h285z" />
    <glyph glyph-name="greaterequal" unicode="&#x2265;" horiz-adv-x="595" 
d="M559 484v-157l-524 -156v140l391 94l-391 95v140zM560 0h-525v145h525v-145z" />
    <glyph glyph-name="Delta" unicode="&#x394;" horiz-adv-x="728" 
d="M254 650h216s121 -253 223 -562v-88h-657v88c111 342 218 562 218 562zM209 131h299c-44 134 -88 256 -151 404c-56 -130 -105 -267 -148 -404z" />
    <glyph glyph-name="infinity" unicode="&#x221e;" horiz-adv-x="668" 
d="M484 465c97 0 154 -68 154 -162c0 -91 -58 -162 -150 -162c-70 0 -104 27 -154 80c-50 -53 -84 -80 -154 -80c-92 0 -150 71 -150 162c0 94 57 162 154 162c65 0 109 -39 150 -86c41 47 85 86 150 86zM186 352c-25 0 -41 -22 -41 -51c0 -28 16 -48 40 -48
c23 0 39 15 73 50c-25 29 -49 49 -72 49zM482 352c-23 0 -47 -20 -72 -49c34 -35 50 -50 73 -50c24 0 40 20 40 48c0 29 -16 51 -41 51z" />
    <glyph glyph-name="integral" unicode="&#x222b;" horiz-adv-x="385" 
d="M288 750c23 0 70 -4 97 -10v-121c-30 4 -48 6 -66 6c-37 0 -51 -10 -51 -54v-600c0 -112 -57 -183 -171 -183c-23 0 -70 4 -97 10v121c30 -4 48 -6 66 -6c34 0 51 12 51 54v600c0 114 59 183 171 183z" />
    <glyph glyph-name="lessequal" unicode="&#x2264;" horiz-adv-x="595" 
d="M560 500l-391 -95l391 -94v-140l-524 156v157l524 156v-140zM560 145v-145h-525v145h525z" />
    <glyph glyph-name="logicalnot" unicode="&#xac;" horiz-adv-x="560" 
d="M380 77v168h-345v145h490v-313h-145z" />
    <glyph glyph-name="mu" unicode="&#x3bc;" horiz-adv-x="658" 
d="M593 513v-513h-122l-16 54c-44 -29 -121 -67 -199 -65c-15 0 -28 3 -40 7v-196h-151v713h151v-300c0 -63 22 -99 89 -99c56 0 105 25 137 48v351h151z" />
    <glyph glyph-name="minus" unicode="&#x2212;" horiz-adv-x="560" 
d="M525 243h-490v145h490v-145z" />
    <glyph glyph-name="uni208B" unicode="&#x208b;" horiz-adv-x="305" 
d="M295 28h-285v90h285v-90z" />
    <glyph glyph-name="uni207B" unicode="&#x207b;" horiz-adv-x="305" 
d="M295 518h-285v90h285v-90z" />
    <glyph glyph-name="multiply" unicode="&#xd7;" horiz-adv-x="547" 
d="M493 169l-102 -102l-117 117l-118 -117l-102 102l117 118l-117 117l102 102l118 -117l117 117l102 -102l-117 -117z" />
    <glyph glyph-name="notequal" unicode="&#x2260;" horiz-adv-x="560" 
d="M525 363h-149l-46 -105h195v-145h-254l-43 -99h-155l43 99h-81v145h147l45 105h-192v145h250l43 100h159l-43 -100h81v-145z" />
    <glyph glyph-name="partialdiff" unicode="&#x2202;" horiz-adv-x="658" 
d="M166 603l41 120c180 -24 416 -111 416 -417c0 -215 -120 -318 -293 -318c-174 0 -295 94 -295 248c0 175 121 248 245 248c76 0 126 -20 164 -47c-43 110 -146 149 -278 166zM332 113c78 0 130 60 134 180c-46 46 -101 66 -147 66c-83 0 -127 -40 -127 -123
c0 -61 55 -123 140 -123z" />
    <glyph glyph-name="perthousand" unicode="&#x2030;" horiz-adv-x="1255" 
d="M180 663c112 0 165 -78 165 -187s-50 -194 -168 -194c-116 0 -167 85 -167 192c0 109 52 189 170 189zM326 0h-122l337 650h120zM179 579c-41 0 -61 -41 -61 -113c0 -63 20 -99 59 -99s59 38 59 104c0 69 -19 108 -57 108zM688 368c116 0 167 -85 167 -192
c0 -109 -52 -189 -170 -189c-112 0 -165 78 -165 187s50 194 168 194zM1078 368c116 0 167 -85 167 -192c0 -109 -52 -189 -170 -189c-112 0 -165 78 -165 187s50 194 168 194zM688 283c-39 0 -59 -38 -59 -104c0 -69 19 -108 57 -108c41 0 61 41 61 113c0 63 -20 99 -59 99
zM1078 283c-39 0 -59 -38 -59 -104c0 -69 19 -108 57 -108c41 0 61 41 61 113c0 63 -20 99 -59 99z" />
    <glyph glyph-name="uni208A" unicode="&#x208a;" horiz-adv-x="298" 
d="M194 28v-94h-90v94h-94v90h94v94h90v-94h94v-90h-94z" />
    <glyph glyph-name="plusminus" unicode="&#xb1;" horiz-adv-x="569" 
d="M352 176h-145v88h-156v145h156v144h145v-144h166v-145h-166v-88zM518 0h-467v145h467v-145z" />
    <glyph glyph-name="plussuperior" unicode="&#x207a;" horiz-adv-x="298" 
d="M194 518v-94h-90v94h-94v90h94v94h90v-94h94v-90h-94z" />
    <glyph glyph-name="product" unicode="&#x220f;" horiz-adv-x="732" 
d="M662 -200h-155v760h-282v-760h-155v891h592v-891z" />
    <glyph glyph-name="radical" unicode="&#x221a;" horiz-adv-x="551" 
d="M352 -199h-119l-142 300l-41 -20l-50 109l156 71l107 -240l147 728h136z" />
    <glyph glyph-name="summation" unicode="&#x2211;" horiz-adv-x="617" 
d="M248 -69h339v-131h-557v88l287 357l-287 358v88h557v-131h-339l212 -265v-101z" />
    <glyph glyph-name="lozenge" unicode="&#x25ca;" horiz-adv-x="565" 
d="M555 326l-200 -341h-145l-200 341l200 337h145zM179 326l103 -203l104 203l-104 202z" />
    <glyph glyph-name="uniF8FF" unicode="&#xf8ff;" horiz-adv-x="542" 
d="M542 750v-750h-542v750h542zM394 145v460h-246v-460h246z" />
    <glyph glyph-name="brokenbar" unicode="&#xa6;" horiz-adv-x="291" 
d="M70 751h151v-421h-151v421zM221 -250h-151v420h151v-420z" />
    <glyph glyph-name="paragraph" unicode="&#xb6;" horiz-adv-x="671" 
d="M601 -75h-151v605h-69v-605h-151v311c-128 11 -200 88 -200 200c0 148 109 214 262 214h309v-725z" />
    <glyph glyph-name="uni2105" unicode="&#x2105;" horiz-adv-x="884" 
d="M197 662c45 0 76 -6 112 -18v-83c-30 13 -60 22 -97 22c-46 0 -85 -23 -85 -75c0 -55 47 -77 86 -77c42 0 70 7 96 14v-80c-35 -7 -74 -13 -99 -13c-101 0 -180 47 -180 153c0 105 79 157 167 157zM322 0h-122l337 650h120zM685 295c99 0 169 -54 169 -156
c0 -100 -70 -154 -169 -154c-101 0 -171 53 -171 154c0 102 70 156 171 156zM682 216c-43 0 -71 -28 -71 -77c0 -43 28 -75 75 -75c43 0 71 33 71 75c0 49 -31 77 -75 77z" />
    <glyph glyph-name="copyright" unicode="&#xa9;" horiz-adv-x="832" 
d="M792 362c0 210 -160 376 -376 376s-376 -166 -376 -376c0 -213 160 -373 376 -373c214 0 376 165 376 373zM738 362c0 -181 -145 -319 -322 -319c-183 0 -321 144 -321 319c0 179 140 321 321 321c179 0 322 -144 322 -321zM422 568c59 0 100 -7 146 -22v-99
c-34 14 -77 25 -126 25c-64 0 -121 -33 -121 -108c0 -79 67 -110 122 -110c56 0 93 7 125 17v-97c-43 -9 -93 -16 -129 -16c-134 0 -239 62 -239 203c0 138 105 207 222 207z" />
    <glyph glyph-name="registered" unicode="&#xae;" horiz-adv-x="522" 
d="M261 662c127 0 221 -98 221 -221s-95 -220 -221 -220c-127 0 -221 94 -221 220c0 123 94 221 221 221zM261 267c96 0 175 75 175 174c0 96 -78 174 -175 174c-98 0 -175 -77 -175 -174c0 -95 75 -174 175 -174zM369 483c0 -35 -24 -61 -54 -70c26 -31 52 -70 64 -90h-74
c-15 28 -33 53 -54 77h-28v-77h-63v237h111c45 0 98 -14 98 -77zM224 454h37c32 0 42 7 42 29c0 14 -9 24 -43 24h-36v-53z" />
    <glyph glyph-name="uni2117" unicode="&#x2117;" horiz-adv-x="832" 
d="M792 362c0 210 -160 376 -376 376s-376 -166 -376 -376c0 -213 160 -373 376 -373c214 0 376 165 376 373zM738 362c0 -181 -145 -319 -322 -319c-183 0 -321 144 -321 319c0 179 140 321 321 321c179 0 322 -144 322 -321zM374 278v-122h-106v403h188
c97 0 166 -45 166 -137c0 -86 -46 -144 -176 -144h-72zM376 468v-99h63c51 0 72 12 72 53c0 29 -20 46 -74 46h-61z" />
    <glyph glyph-name="section" unicode="&#xa7;" horiz-adv-x="524" 
d="M366 186c68 -33 98 -69 98 -124c0 -90 -52 -146 -214 -146c-47 0 -123 10 -170 22v127c42 -13 121 -25 167 -25c57 0 63 7 63 19c0 9 -4 18 -41 35l-101 46c-81 37 -108 83 -108 133c0 51 25 87 93 117c-64 31 -93 74 -93 135c0 80 54 137 207 137c37 0 110 -7 157 -18
v-127c-42 12 -117 21 -153 21c-48 0 -56 -7 -56 -19s4 -16 46 -37l95 -47c82 -41 108 -77 108 -128c0 -53 -26 -91 -98 -121zM263 343l-13 6c-27 -19 -36 -38 -36 -62c0 -25 13 -39 47 -54l11 -5c29 20 38 39 38 63s-10 36 -47 52z" />
    <glyph glyph-name="trademark" unicode="&#x2122;" horiz-adv-x="811" 
d="M336 561h-113v-273h-100v273h-113v89h326v-89zM619 650h133c22 -117 38 -239 49 -362h-99c-10 121 -15 169 -26 238c-22 -65 -43 -142 -60 -206h-92c-21 77 -35 132 -61 208c-10 -60 -18 -137 -25 -240h-100c11 120 25 234 49 362h133c31 -98 42 -137 50 -172
c15 56 40 139 49 172z" />
    <glyph glyph-name="degree" unicode="&#xb0;" horiz-adv-x="350" 
d="M135 514c-69 0 -125 56 -125 125s56 125 125 125s125 -56 125 -125s-56 -125 -125 -125zM135 578c34 0 61 27 61 61s-27 61 -61 61s-61 -27 -61 -61s27 -61 61 -61z" />
    <glyph glyph-name="estimated" unicode="&#x212e;" horiz-adv-x="828" 
d="M414 662c234 0 368 -161 368 -348h-587c-8 0 -13 -5 -13 -11v-161c0 -19 2 -31 14 -42c56 -55 129 -88 218 -88c95 0 180 44 230 106h66c-43 -61 -139 -129 -296 -129c-223 0 -369 141 -369 335c0 190 139 338 369 338zM414 637c-89 0 -162 -34 -218 -90
c-12 -11 -14 -21 -14 -39v-161c0 -7 5 -11 13 -11h437c8 0 13 4 13 11v161c0 18 -3 28 -15 39c-66 65 -142 90 -216 90z" />
    <glyph glyph-name="uni2113" unicode="&#x2113;" horiz-adv-x="479" 
d="M324 122c38 0 71 6 90 12l1 -124c-19 -6 -77 -14 -100 -14c-147 0 -214 41 -214 159v47l-54 -26l-37 81c31 17 62 34 91 51v207c0 144 63 220 206 220c97 0 172 -51 172 -147c0 -111 -88 -210 -227 -300v-77c0 -67 15 -89 72 -89zM252 515v-108c65 52 106 106 106 168
c0 38 -19 56 -49 56c-39 0 -57 -31 -57 -116z" />
    <glyph glyph-name="uni2116" unicode="&#x2116;" horiz-adv-x="1310" 
d="M1031 663c144 0 244 -80 244 -225c0 -144 -100 -223 -244 -223c-146 0 -247 77 -247 223c0 147 101 225 247 225zM679 0h-154l-303 438v-438h-152v649h179l278 -407v407h152v-649zM1028 543c-58 0 -98 -40 -98 -105c0 -59 40 -103 103 -103c58 0 97 45 97 103
c0 68 -43 105 -102 105zM1250 0h-440v145h440v-145z" />
    <glyph glyph-name="dagger" unicode="&#x2020;" horiz-adv-x="547" 
d="M346 0h-145v359h-166v145h166v166h145v-166h166v-145h-166v-359z" />
    <glyph glyph-name="daggerdbl" unicode="&#x2021;" horiz-adv-x="547" 
d="M346 359v-65h166v-145h-166v-149h-145v149h-166v145h166v65h-166v145h166v166h145v-166h166v-145h-166z" />
    <glyph glyph-name="uni203D" unicode="&#x203d;" horiz-adv-x="535" 
d="M241 660c175 0 279 -60 279 -175c0 -159 -170 -177 -226 -229c-7 -7 -9 -14 -10 -26h-147l-9 236h163l-2 -56c33 16 60 33 60 60c0 41 -38 53 -111 53c-84 0 -152 -15 -227 -33v139c59 14 139 31 230 31zM298 155v-155h-162v155h162z" />
    <glyph glyph-name="minute" unicode="&#x2032;" horiz-adv-x="316" 
d="M209 478h-101l-23 245h146z" />
    <glyph glyph-name="second" unicode="&#x2033;" horiz-adv-x="316" 
d="M231 723l-22 -245h-101l-23 245h146z" />
    <glyph glyph-name="ampersand.001" horiz-adv-x="729" 
d="M319 668c135 0 197 -86 197 -167c0 -75 -71 -130 -133 -165c30 -33 62 -61 95 -89c23 25 49 63 71 100h162c-48 -84 -98 -154 -134 -190c65 -67 135 -124 172 -157h-207c-30 26 -60 55 -68 62c-71 -51 -129 -77 -221 -77c-152 0 -223 74 -223 180c0 70 47 141 145 199
c-35 46 -57 83 -57 134c0 79 66 170 201 170zM318 552c-37 0 -62 -25 -62 -55c0 -26 18 -55 38 -80c30 16 79 47 79 81c0 32 -23 54 -55 54zM263 265c-58 -28 -83 -52 -83 -90c0 -37 27 -60 81 -60c51 0 78 15 114 46c-35 31 -82 74 -112 104z" />
    <glyph glyph-name="acute" unicode="&#xb4;" horiz-adv-x="277" 
d="M146 591h-116l74 145h143z" />
    <glyph glyph-name="breve" unicode="&#x2d8;" horiz-adv-x="388" 
d="M257 723h101c-5 -69 -42 -139 -164 -139c-123 0 -158 70 -164 139h101c7 -35 22 -55 63 -55c44 0 56 20 63 55z" />
    <glyph glyph-name="caron" unicode="&#x2c7;" horiz-adv-x="429" 
d="M292 591h-155l-107 145h116l69 -73l68 73h116z" />
    <glyph glyph-name="cedilla" unicode="&#xb8;" horiz-adv-x="268" 
d="M176 5l-13 -37c53 -9 75 -36 75 -82c0 -63 -39 -93 -115 -93c-26 0 -54 3 -93 14v73c42 -13 65 -17 93 -17c27 0 39 8 39 25s-13 25 -43 25c-20 0 -30 -1 -42 -3l31 95h68z" />
    <glyph glyph-name="circumflex" unicode="&#x2c6;" horiz-adv-x="429" 
d="M215 664l-69 -73h-116l107 145h155l107 -145h-116z" />
    <glyph glyph-name="dieresis" unicode="&#xa8;" horiz-adv-x="439" 
d="M179 586h-149v129h149v-129zM409 586h-149v129h149v-129z" />
    <glyph glyph-name="dotaccent" unicode="&#x2d9;" horiz-adv-x="209" 
d="M179 586h-149v129h149v-129z" />
    <glyph glyph-name="hungarumlaut" unicode="&#x2dd;" horiz-adv-x="473" 
d="M143 591h-113l74 145h143zM339 591h-113l74 145h143z" />
    <glyph glyph-name="macron" unicode="&#xaf;" horiz-adv-x="382" 
d="M352 592h-322v106h322v-106z" />
    <glyph glyph-name="ogonek" unicode="&#x2db;" horiz-adv-x="273" 
d="M136 6h107c-70 -27 -118 -62 -118 -87c0 -13 5 -18 29 -18c25 0 62 10 88 23l1 -86c-27 -12 -66 -20 -100 -20c-77 0 -113 27 -113 76c0 56 64 99 106 112z" />
    <glyph glyph-name="ring" unicode="&#x2da;" horiz-adv-x="278" 
d="M139 574c-70 0 -109 37 -109 92s39 92 109 92s109 -37 109 -92s-39 -92 -109 -92zM139 702c-25 0 -49 -9 -49 -36s24 -36 49 -36s49 9 49 36s-24 36 -49 36z" />
    <glyph glyph-name="tilde" unicode="&#x2dc;" horiz-adv-x="418" 
d="M300 724h88c-7 -69 -42 -126 -117 -126c-54 0 -84 38 -116 38c-24 0 -30 -12 -37 -36h-88c7 69 43 126 117 126c54 0 84 -38 116 -38c24 0 30 12 37 36z" />
    <glyph glyph-name="acute.case" horiz-adv-x="277" 
d="M146 710h-116l74 145h143z" />
    <glyph glyph-name="breve.case" horiz-adv-x="388" 
d="M257 847h101c-5 -69 -42 -139 -164 -139c-123 0 -158 70 -164 139h101c7 -35 22 -55 63 -55c44 0 56 20 63 55z" />
    <glyph glyph-name="caron.alt" horiz-adv-x="250" 
d="M154 496h-124l37 195h153z" />
    <glyph glyph-name="caron.case" horiz-adv-x="429" 
d="M292 710h-155l-107 145h116l69 -73l68 73h116z" />
    <glyph glyph-name="circumflex.case" horiz-adv-x="429" 
d="M399 710h-116l-68 73l-69 -73h-116l107 145h155z" />
    <glyph glyph-name="dieresis.case" horiz-adv-x="439" 
d="M179 706h-149v129h149v-129zM409 706h-149v129h149v-129z" />
    <glyph glyph-name="dotaccent.case" horiz-adv-x="209" 
d="M179 706h-149v129h149v-129z" />
    <glyph glyph-name="grave.case" horiz-adv-x="277" 
d="M247 710h-116l-101 145h143z" />
    <glyph glyph-name="hungarumlaut.case" horiz-adv-x="473" 
d="M143 711h-113l74 145h143zM339 711h-113l74 145h143z" />
    <glyph glyph-name="macron.case" horiz-adv-x="382" 
d="M352 722h-322v106h322v-106z" />
    <glyph glyph-name="ring.case" horiz-adv-x="278" 
d="M139 693c-70 0 -109 37 -109 92s39 92 109 92s109 -37 109 -92s-39 -92 -109 -92zM139 821c-25 0 -49 -9 -49 -36s24 -36 49 -36s49 9 49 36s-24 36 -49 36z" />
    <glyph glyph-name="tilde.case" horiz-adv-x="418" 
d="M300 844h88c-7 -69 -42 -126 -117 -126c-54 0 -84 38 -116 38c-24 0 -30 -12 -37 -36h-88c7 69 43 126 117 126c54 0 84 -38 116 -38c24 0 30 12 37 36z" />
    <glyph glyph-name="uni0326" unicode="&#x326;" horiz-adv-x="0" 
d="M154 -250h-124l37 195h153z" />
    <glyph glyph-name="uni0312" unicode="&#x312;" horiz-adv-x="0" 
d="M96 786h124l-37 -195h-153z" />
    <glyph glyph-name="brevecy" horiz-adv-x="0" 
d="M370 725h-89c-15 -43 -38 -57 -77 -57c-31 0 -52 18 -58 57h-116c9 -92 61 -141 165 -141c95 0 162 51 175 141z" />
    <glyph glyph-name="brevecy.case" horiz-adv-x="0" 
d="M370 835h-89c-15 -43 -38 -57 -77 -57c-31 0 -52 18 -58 57h-116c9 -92 61 -141 165 -141c95 0 162 51 175 141z" />
    <glyph glyph-name="uni02BC" unicode="&#x2bc;" horiz-adv-x="250" 
d="M154 496h-124l37 195h153z" />
    <glyph glyph-name="firsttonechinese" unicode="&#x2c9;" horiz-adv-x="382" 
d="M352 592h-322v106h322v-106z" />
    <glyph glyph-name="uni20BC" unicode="&#x20bc;" horiz-adv-x="664" 
d="M70 650h292c145 0 270 -45 270 -201c0 -166 -141 -210 -269 -210h-138v-45h115v-111h-115v-83h-155v83h-70v111h70v45h-70v121h70v290zM225 360h134c61 0 111 7 111 87c0 56 -48 72 -114 72h-131v-159z" />
    <glyph glyph-name="uniFEFF" unicode="&#xfeff;" horiz-adv-x="600" 
 />
    <glyph glyph-name="Abreve" unicode="&#x102;" horiz-adv-x="683" 
d="M337 708c-123 0 -158 70 -164 139h101c7 -35 22 -55 63 -55c44 0 56 20 63 55h101c-5 -69 -42 -139 -164 -139zM527 0l-38 118h-307c-12 -39 -24 -79 -36 -118h-161c70 229 162 472 246 650h216c93 -197 186 -440 251 -650h-171zM225 249h220c-32 91 -66 182 -111 286
c-40 -92 -76 -189 -109 -286z" />
    <glyph glyph-name="Amacron" unicode="&#x100;" horiz-adv-x="683" 
d="M497 722h-322v106h322v-106zM527 0l-38 118h-307c-12 -39 -24 -79 -36 -118h-161c70 229 162 472 246 650h216c93 -197 186 -440 251 -650h-171zM225 249h220c-32 91 -66 182 -111 286c-40 -92 -76 -189 -109 -286z" />
    <glyph glyph-name="Aogonek" unicode="&#x104;" horiz-adv-x="683" 
d="M543 -99c25 0 62 10 88 23l1 -86c-27 -12 -66 -20 -100 -20c-77 0 -113 27 -113 76c0 56 64 99 106 112l-36 112h-307c-12 -39 -24 -79 -36 -118h-161c70 229 162 472 246 650h216c93 -197 186 -440 251 -650h-81c-62 -26 -103 -58 -103 -81c0 -13 6 -18 29 -18zM225 249
h220c-32 91 -66 182 -111 286c-40 -92 -76 -189 -109 -286z" />
    <glyph glyph-name="Aringacute" unicode="&#x1fa;" horiz-adv-x="683" 
d="M400 913h-116l74 145h143zM342 693c-70 0 -109 37 -109 92s39 92 109 92s109 -37 109 -92s-39 -92 -109 -92zM342 821c-25 0 -49 -9 -49 -36s24 -36 49 -36s49 9 49 36s-24 36 -49 36zM527 0l-38 118h-307c-12 -39 -24 -79 -36 -118h-161c70 229 162 472 246 650h216
c93 -197 186 -440 251 -650h-171zM225 249h220c-32 91 -66 182 -111 286c-40 -92 -76 -189 -109 -286z" />
    <glyph glyph-name="AEacute" unicode="&#x1fc;" horiz-adv-x="1021" 
d="M746 710h-116l74 145h143zM976 131v-131h-472v118h-275c-25 -40 -48 -79 -71 -118h-178c201 333 343 525 450 650h539v-131h-310v-124h277v-126h-277v-138h317zM504 249l1 276c-66 -88 -131 -181 -193 -276h192z" />
    <glyph glyph-name="Cacute" unicode="&#x106;" horiz-adv-x="657" 
d="M446 710h-116l74 145h143zM421 662c53 0 133 -9 195 -28v-138c-40 13 -98 30 -182 30c-151 0 -232 -72 -232 -200c0 -139 102 -203 229 -202c75 1 141 19 186 32v-146c-71 -15 -144 -22 -198 -22c-209 0 -379 98 -379 337c0 233 186 337 381 337z" />
    <glyph glyph-name="Ccaron" unicode="&#x10c;" horiz-adv-x="657" 
d="M479 710h-155l-107 145h116l69 -73l68 73h116zM421 662c53 0 133 -9 195 -28v-138c-40 13 -98 30 -182 30c-151 0 -232 -72 -232 -200c0 -139 102 -203 229 -202c75 1 141 19 186 32v-146c-71 -15 -144 -22 -198 -22c-209 0 -379 98 -379 337c0 233 186 337 381 337z" />
    <glyph glyph-name="Ccircumflex" unicode="&#x108;" horiz-adv-x="657" 
d="M586 710h-116l-68 73l-69 -73h-116l107 145h155zM421 662c53 0 133 -9 195 -28v-138c-40 13 -98 30 -182 30c-151 0 -232 -72 -232 -200c0 -139 102 -203 229 -202c75 1 141 19 186 32v-146c-71 -15 -144 -22 -198 -22c-209 0 -379 98 -379 337c0 233 186 337 381 337z
" />
    <glyph glyph-name="Cdotaccent" unicode="&#x10a;" horiz-adv-x="657" 
d="M476 706h-149v129h149v-129zM421 662c53 0 133 -9 195 -28v-138c-40 13 -98 30 -182 30c-151 0 -232 -72 -232 -200c0 -139 102 -203 229 -202c75 1 141 19 186 32v-146c-71 -15 -144 -22 -198 -22c-209 0 -379 98 -379 337c0 233 186 337 381 337z" />
    <glyph glyph-name="Dcaron" unicode="&#x10e;" horiz-adv-x="727" 
d="M401 710h-155l-107 145h116l69 -73l68 73h116zM70 650h259c179 0 353 -67 353 -319c0 -246 -172 -331 -362 -331h-250v650zM225 519v-388h93c130 0 202 60 202 197c0 123 -74 191 -196 191h-99z" />
    <glyph glyph-name="Dcroat" unicode="&#x110;" horiz-adv-x="727" 
d="M70 650h259c179 0 353 -67 353 -319c0 -246 -172 -331 -362 -331h-250v258h-70v131h70v261zM225 131h93c130 0 202 60 202 197c0 123 -74 191 -196 191h-99v-130h115v-131h-115v-127z" />
    <glyph glyph-name="Ebreve" unicode="&#x114;" horiz-adv-x="627" 
d="M383 847h101c-5 -69 -42 -139 -164 -139c-123 0 -158 70 -164 139h101c7 -35 22 -55 63 -55c44 0 56 20 63 55zM575 519h-350v-124h317v-126h-317v-138h357v-131h-512v650h505v-131z" />
    <glyph glyph-name="Ecaron" unicode="&#x11a;" horiz-adv-x="627" 
d="M402 710h-155l-107 145h116l69 -73l68 73h116zM575 519h-350v-124h317v-126h-317v-138h357v-131h-512v650h505v-131z" />
    <glyph glyph-name="Edotaccent" unicode="&#x116;" horiz-adv-x="627" 
d="M399 706h-149v129h149v-129zM575 519h-350v-124h317v-126h-317v-138h357v-131h-512v650h505v-131z" />
    <glyph glyph-name="Emacron" unicode="&#x112;" horiz-adv-x="627" 
d="M480 722h-322v106h322v-106zM575 519h-350v-124h317v-126h-317v-138h357v-131h-512v650h505v-131z" />
    <glyph glyph-name="Eogonek" unicode="&#x118;" horiz-adv-x="627" 
d="M582 0h-91c-62 -26 -103 -58 -103 -81c0 -13 5 -18 29 -18c25 0 62 10 88 23l1 -86c-27 -12 -66 -20 -100 -20c-77 0 -113 27 -113 76s49 88 90 106h-313v650h505v-131h-350v-124h317v-126h-317v-138h357v-131z" />
    <glyph glyph-name="Gbreve" unicode="&#x11e;" horiz-adv-x="707" 
d="M432 847h101c-5 -69 -42 -139 -164 -139c-123 0 -158 70 -164 139h101c7 -35 22 -55 63 -55c44 0 56 20 63 55zM421 662c50 0 133 -8 195 -28v-138c-48 14 -95 30 -182 30c-150 0 -232 -72 -232 -200c0 -149 104 -201 208 -201c24 0 63 5 88 13v206h149v-321
c-44 -11 -121 -33 -252 -33c-183 0 -355 98 -355 337c0 237 183 335 381 335z" />
    <glyph glyph-name="Gcircumflex" unicode="&#x11c;" horiz-adv-x="707" 
d="M558 710h-116l-68 73l-69 -73h-116l107 145h155zM421 662c50 0 133 -8 195 -28v-138c-48 14 -95 30 -182 30c-150 0 -232 -72 -232 -200c0 -149 104 -201 208 -201c24 0 63 5 88 13v206h149v-321c-44 -11 -121 -33 -252 -33c-183 0 -355 98 -355 337
c0 237 183 335 381 335z" />
    <glyph glyph-name="Gcommaaccent" unicode="&#x122;" horiz-adv-x="707" 
d="M421 662c50 0 133 -8 195 -28v-138c-48 14 -95 30 -182 30c-150 0 -232 -72 -232 -200c0 -149 104 -201 208 -201c24 0 63 5 88 13v206h149v-321c-44 -11 -121 -33 -252 -33c-183 0 -355 98 -355 337c0 237 183 335 381 335zM406 -250h-124l37 195h153z" />
    <glyph glyph-name="Gdotaccent" unicode="&#x120;" horiz-adv-x="707" 
d="M448 706h-149v129h149v-129zM421 662c50 0 133 -8 195 -28v-138c-48 14 -95 30 -182 30c-150 0 -232 -72 -232 -200c0 -149 104 -201 208 -201c24 0 63 5 88 13v206h149v-321c-44 -11 -121 -33 -252 -33c-183 0 -355 98 -355 337c0 237 183 335 381 335z" />
    <glyph glyph-name="Hbar" unicode="&#x126;" horiz-adv-x="737" 
d="M737 478h-70v-478h-155v252h-287v-252h-155v478h-70v90h70v82h155v-82h287v82h155v-82h70v-90zM512 478h-287v-95h287v95z" />
    <glyph glyph-name="Hcircumflex" unicode="&#x124;" horiz-adv-x="737" 
d="M553 710h-116l-68 73l-69 -73h-116l107 145h155zM667 0h-155v252h-287v-252h-155v650h155v-267h287v267h155v-650z" />
    <glyph glyph-name="IJ" unicode="&#x132;" horiz-adv-x="791" 
d="M225 0h-155v650h155v-650zM726 650v-435c0 -141 -85 -225 -247 -225c-68 0 -138 12 -179 22v136c42 -12 95 -23 156 -23c99 0 115 44 115 120v405h155z" />
    <glyph glyph-name="Ibreve" unicode="&#x12c;" horiz-adv-x="295" 
d="M206 847h101c-5 -69 -42 -139 -164 -139c-123 0 -158 70 -164 139h101c7 -35 22 -55 63 -55c44 0 56 20 63 55zM225 0h-155v650h155v-650z" />
    <glyph glyph-name="Idotaccent" unicode="&#x130;" horiz-adv-x="295" 
d="M222 706h-149v129h149v-129zM225 0h-155v650h155v-650z" />
    <glyph glyph-name="Imacron" unicode="&#x12a;" horiz-adv-x="295" 
d="M303 722h-322v106h322v-106zM225 0h-155v650h155v-650z" />
    <glyph glyph-name="Iogonek" unicode="&#x12e;" horiz-adv-x="295" 
d="M225 0h-63c-62 -26 -103 -58 -103 -81c0 -13 6 -18 29 -18c25 0 62 10 88 23l1 -86c-27 -12 -66 -20 -100 -20c-77 0 -113 27 -113 76c0 56 64 99 106 112v644h155v-650z" />
    <glyph glyph-name="Itilde" unicode="&#x128;" horiz-adv-x="295" 
d="M232 844h88c-7 -69 -42 -126 -117 -126c-54 0 -84 38 -116 38c-24 0 -30 -12 -37 -36h-88c7 69 43 126 117 126c54 0 84 -38 116 -38c24 0 30 12 37 36zM225 0h-155v650h155v-650z" />
    <glyph glyph-name="Jcircumflex" unicode="&#x134;" horiz-adv-x="496" 
d="M422 710h-116l-68 73l-69 -73h-116l107 145h155zM431 650v-435c0 -141 -85 -225 -247 -225c-68 0 -138 12 -179 22v136c42 -12 95 -23 156 -23c99 0 115 44 115 120v405h155z" />
    <glyph glyph-name="Kcommaaccent" unicode="&#x136;" horiz-adv-x="695" 
d="M225 0h-155v650h155v-650zM474 650h208c-137 -157 -213 -253 -262 -326c121 -116 255 -294 280 -324h-205c-76 104 -162 209 -256 313c59 106 171 257 235 337zM365 -250h-124l37 195h153z" />
    <glyph glyph-name="Lacute" unicode="&#x139;" horiz-adv-x="536" 
d="M203 710h-116l74 145h143zM225 131h306v-131h-461v650h155v-519z" />
    <glyph glyph-name="Lcaron" unicode="&#x13d;" horiz-adv-x="536" 
d="M225 131h306v-131h-461v650h155v-519zM427 455h-124l37 195h153z" />
    <glyph glyph-name="Lcommaaccent" unicode="&#x13b;" horiz-adv-x="536" 
d="M225 131h306v-131h-461v650h155v-519zM315 -250h-124l37 195h153z" />
    <glyph glyph-name="Ldot" unicode="&#x13f;" horiz-adv-x="536" 
d="M225 131h306v-131h-461v650h155v-519zM481 320h-162v155h162v-155z" />
    <glyph glyph-name="Nacute" unicode="&#x143;" horiz-adv-x="749" 
d="M434 710h-116l74 145h143zM679 0h-154l-303 438v-438h-152v649h179l278 -407v407h152v-649z" />
    <glyph glyph-name="Ncaron" unicode="&#x147;" horiz-adv-x="749" 
d="M467 710h-155l-107 145h116l69 -73l68 73h116zM679 0h-154l-303 438v-438h-152v649h179l278 -407v407h152v-649z" />
    <glyph glyph-name="Ncommaaccent" unicode="&#x145;" horiz-adv-x="749" 
d="M679 0h-154l-303 438v-438h-152v649h179l278 -407v407h152v-649zM422 -250h-124l37 195h153z" />
    <glyph glyph-name="Eng" unicode="&#x14a;" horiz-adv-x="749" 
d="M679 649v-644c0 -191 -82 -255 -244 -255c-68 0 -138 12 -179 22v136c42 -12 95 -23 156 -23c101 0 118 44 118 110v5l-308 438v-438h-152v649h179l278 -407v407h152z" />
    <glyph glyph-name="Obreve" unicode="&#x14e;" horiz-adv-x="781" 
d="M449 847h101c-5 -69 -42 -139 -164 -139c-123 0 -158 70 -164 139h101c7 -35 22 -55 63 -55c44 0 56 20 63 55zM391 662c167 0 350 -104 350 -331c0 -248 -171 -343 -351 -343s-350 95 -350 343c0 228 183 331 351 331zM390 524c-103 0 -188 -69 -188 -194
c0 -150 98 -206 189 -206s188 56 188 206c0 125 -85 194 -189 194z" />
    <glyph glyph-name="Ohungarumlaut" unicode="&#x150;" horiz-adv-x="781" 
d="M345 711h-113l74 145h143zM541 711h-113l74 145h143zM391 662c167 0 350 -104 350 -331c0 -248 -171 -343 -351 -343s-350 95 -350 343c0 228 183 331 351 331zM390 524c-103 0 -188 -69 -188 -194c0 -150 98 -206 189 -206s188 56 188 206c0 125 -85 194 -189 194z" />
    <glyph glyph-name="Omacron" unicode="&#x14c;" horiz-adv-x="781" 
d="M546 722h-322v106h322v-106zM391 662c167 0 350 -104 350 -331c0 -248 -171 -343 -351 -343s-350 95 -350 343c0 228 183 331 351 331zM390 524c-103 0 -188 -69 -188 -194c0 -150 98 -206 189 -206s188 56 188 206c0 125 -85 194 -189 194z" />
    <glyph glyph-name="Oslashacute" unicode="&#x1fe;" horiz-adv-x="781" 
d="M435 710h-116l74 145h143zM707 600l-44 -52c48 -53 78 -125 78 -217c0 -248 -171 -343 -351 -343c-60 0 -119 11 -171 34l-50 -60l-95 79l45 53c-49 55 -79 132 -79 237c0 228 183 331 351 331c59 0 119 -13 173 -39l48 56zM202 330c0 -45 9 -81 23 -110l244 289
c-24 10 -51 15 -79 15c-103 0 -188 -69 -188 -194zM391 124c91 0 188 56 188 206c0 36 -7 68 -20 95l-242 -288c24 -9 49 -13 74 -13z" />
    <glyph glyph-name="Racute" unicode="&#x154;" horiz-adv-x="692" 
d="M380 710h-116l74 145h143zM675 0h-194c-52 86 -107 161 -152 207h-104v-207h-155v650h306c127 0 271 -40 271 -217c0 -99 -69 -174 -158 -195c80 -84 152 -186 186 -238zM228 338h121c89 0 136 27 136 95c0 58 -45 86 -139 86h-118v-181z" />
    <glyph glyph-name="Rcaron" unicode="&#x158;" horiz-adv-x="692" 
d="M258 710l-107 145h116l69 -73l68 73h116l-107 -145h-155zM675 0h-194c-52 86 -107 161 -152 207h-104v-207h-155v650h306c127 0 271 -40 271 -217c0 -99 -69 -174 -158 -195c80 -84 152 -186 186 -238zM228 338h121c89 0 136 27 136 95c0 58 -45 86 -139 86h-118v-181z
" />
    <glyph glyph-name="Rcommaaccent" unicode="&#x156;" horiz-adv-x="692" 
d="M489 238c80 -84 152 -186 186 -238h-194c-52 86 -107 161 -152 207h-104v-207h-155v650h306c127 0 271 -40 271 -217c0 -99 -69 -174 -158 -195zM228 338h121c89 0 136 27 136 95c0 58 -45 86 -139 86h-118v-181zM276 -55h153l-66 -195h-124z" />
    <glyph glyph-name="Sacute" unicode="&#x15a;" horiz-adv-x="643" 
d="M366 710h-116l74 145h143zM332 662c91 0 168 -19 226 -33v-136c-84 20 -141 34 -237 34c-92 0 -122 -23 -122 -58c0 -21 14 -40 67 -54l171 -45c119 -31 166 -92 166 -176c0 -130 -96 -206 -288 -206c-121 0 -194 17 -265 36v141c69 -18 177 -42 246 -42
c103 0 147 15 147 56c0 29 -29 53 -88 68l-165 42c-97 25 -150 91 -150 178c0 130 94 195 292 195z" />
    <glyph glyph-name="Scedilla" unicode="&#x15e;" horiz-adv-x="643" 
d="M603 194c0 -115 -75 -188 -226 -203l-8 -23c53 -9 75 -36 75 -82c0 -63 -39 -93 -115 -93c-26 0 -54 3 -93 14v73c42 -13 65 -17 93 -17c27 0 39 8 39 25s-13 25 -43 25c-20 0 -30 -1 -42 -3l25 78c-117 1 -188 17 -258 36v141c69 -18 177 -42 246 -42
c103 0 147 15 147 56c0 29 -29 53 -88 68l-165 42c-97 25 -150 91 -150 178c0 130 94 195 292 195c91 0 168 -19 226 -33v-136c-84 20 -141 34 -237 34c-92 0 -122 -23 -122 -58c0 -21 14 -40 67 -54l171 -45c119 -31 166 -92 166 -176z" />
    <glyph glyph-name="Scircumflex" unicode="&#x15c;" horiz-adv-x="643" 
d="M506 710h-116l-68 73l-69 -73h-116l107 145h155zM332 662c91 0 168 -19 226 -33v-136c-84 20 -141 34 -237 34c-92 0 -122 -23 -122 -58c0 -21 14 -40 67 -54l171 -45c119 -31 166 -92 166 -176c0 -130 -96 -206 -288 -206c-121 0 -194 17 -265 36v141
c69 -18 177 -42 246 -42c103 0 147 15 147 56c0 29 -29 53 -88 68l-165 42c-97 25 -150 91 -150 178c0 130 94 195 292 195z" />
    <glyph glyph-name="Scommaaccent" unicode="&#x218;" horiz-adv-x="643" 
d="M332 662c91 0 168 -19 226 -33v-136c-84 20 -141 34 -237 34c-92 0 -122 -23 -122 -58c0 -21 14 -40 67 -54l171 -45c119 -31 166 -92 166 -176c0 -130 -96 -206 -288 -206c-121 0 -194 17 -265 36v141c69 -18 177 -42 246 -42c103 0 147 15 147 56c0 29 -29 53 -88 68
l-165 42c-97 25 -150 91 -150 178c0 130 94 195 292 195zM369 -250h-124l37 195h153z" />
    <glyph glyph-name="uni1E9E" unicode="&#x1e9e;" horiz-adv-x="770" 
d="M687 529l-118 -122c124 -36 169 -112 169 -204c0 -118 -82 -215 -248 -215c-86 0 -146 12 -217 37v141c69 -25 155 -42 216 -42c65 0 87 20 87 72c0 60 -39 95 -196 106v95l106 107c-31 16 -65 23 -104 23c-112 0 -157 -47 -157 -191v-336h-155v336
c0 224 104 326 313 326c129 0 251 -55 304 -133z" />
    <glyph glyph-name="Schwa" unicode="&#x18f;" horiz-adv-x="761" 
d="M375 662c203 0 346 -102 346 -329c0 -246 -158 -345 -338 -345c-190 0 -343 97 -343 344v62h515c-15 81 -69 130 -181 130c-95 0 -169 -13 -251 -30v141c106 20 181 27 252 27zM384 124c83 0 158 37 170 139h-342c0 -104 99 -139 172 -139z" />
    <glyph glyph-name="Tbar" unicode="&#x166;" horiz-adv-x="623" 
d="M389 519v-130h113v-131h-113v-258h-155v258h-113v131h113v130h-214v131h583v-131h-214z" />
    <glyph glyph-name="Tcaron" unicode="&#x164;" horiz-adv-x="623" 
d="M389 710h-155l-107 145h116l69 -73l68 73h116zM603 519h-214v-519h-155v519h-214v131h583v-131z" />
    <glyph glyph-name="Tcedilla" unicode="&#x162;" horiz-adv-x="623" 
d="M603 519h-214v-519h-155v519h-214v131h583v-131zM319 -250h-124l37 195h153z" />
    <glyph glyph-name="uni021A" unicode="&#x21a;" horiz-adv-x="623" 
d="M603 519h-214v-519h-155v519h-214v131h583v-131zM319 -250h-124l37 195h153z" />
    <glyph glyph-name="Ubreve" unicode="&#x16c;" horiz-adv-x="738" 
d="M427 847h101c-5 -69 -42 -139 -164 -139c-123 0 -158 70 -164 139h101c7 -35 22 -55 63 -55c44 0 56 20 63 55zM673 650v-352c0 -192 -87 -310 -306 -310c-214 0 -302 118 -302 310v352h155v-353c0 -117 58 -171 149 -171s149 54 149 171v353h155z" />
    <glyph glyph-name="Uhungarumlaut" unicode="&#x170;" horiz-adv-x="738" 
d="M323 711h-113l74 145h143zM519 711h-113l74 145h143zM673 650v-352c0 -192 -87 -310 -306 -310c-214 0 -302 118 -302 310v352h155v-353c0 -117 58 -171 149 -171s149 54 149 171v353h155z" />
    <glyph glyph-name="Umacron" unicode="&#x16a;" horiz-adv-x="738" 
d="M524 722h-322v106h322v-106zM673 650v-352c0 -192 -87 -310 -306 -310c-214 0 -302 118 -302 310v352h155v-353c0 -117 58 -171 149 -171s149 54 149 171v353h155z" />
    <glyph glyph-name="Uogonek" unicode="&#x172;" horiz-adv-x="738" 
d="M673 650v-352c0 -157 -58 -264 -199 -298c-61 -26 -102 -58 -102 -81c0 -13 5 -18 29 -18c25 0 62 10 88 23l1 -86c-27 -12 -66 -20 -100 -20c-77 0 -113 27 -113 76c0 40 33 74 68 94c-198 9 -280 125 -280 310v352h155v-353c0 -117 58 -171 149 -171s149 54 149 171
v353h155z" />
    <glyph glyph-name="Uring" unicode="&#x16e;" horiz-adv-x="738" 
d="M369 693c-70 0 -109 37 -109 92s39 92 109 92s109 -37 109 -92s-39 -92 -109 -92zM369 821c-25 0 -49 -9 -49 -36s24 -36 49 -36s49 9 49 36s-24 36 -49 36zM673 650v-352c0 -192 -87 -310 -306 -310c-214 0 -302 118 -302 310v352h155v-353c0 -117 58 -171 149 -171
s149 54 149 171v353h155z" />
    <glyph glyph-name="Utilde" unicode="&#x168;" horiz-adv-x="738" 
d="M453 844h88c-7 -69 -42 -126 -117 -126c-54 0 -84 38 -116 38c-24 0 -30 -12 -37 -36h-88c7 69 43 126 117 126c54 0 84 -38 116 -38c24 0 30 12 37 36zM673 650v-352c0 -192 -87 -310 -306 -310c-214 0 -302 118 -302 310v352h155v-353c0 -117 58 -171 149 -171
s149 54 149 171v353h155z" />
    <glyph glyph-name="Wacute" unicode="&#x1e82;" horiz-adv-x="938" 
d="M513 710h-116l74 145h143zM779 650h154c-38 -206 -91 -449 -141 -650h-215c-32 99 -83 263 -108 371c-27 -108 -80 -272 -112 -371h-210c-50 201 -103 444 -142 650h155c24 -164 61 -348 99 -492c51 144 103 309 126 403h170c23 -94 75 -259 125 -403
c38 144 75 328 99 492z" />
    <glyph glyph-name="Wcircumflex" unicode="&#x174;" horiz-adv-x="938" 
d="M653 710h-116l-68 73l-69 -73h-116l107 145h155zM779 650h154c-38 -206 -91 -449 -141 -650h-215c-32 99 -83 263 -108 371c-27 -108 -80 -272 -112 -371h-210c-50 201 -103 444 -142 650h155c24 -164 61 -348 99 -492c51 144 103 309 126 403h170
c23 -94 75 -259 125 -403c38 144 75 328 99 492z" />
    <glyph glyph-name="Wdieresis" unicode="&#x1e84;" horiz-adv-x="938" 
d="M428 706h-149v129h149v-129zM658 706h-149v129h149v-129zM779 650h154c-38 -206 -91 -449 -141 -650h-215c-32 99 -83 263 -108 371c-27 -108 -80 -272 -112 -371h-210c-50 201 -103 444 -142 650h155c24 -164 61 -348 99 -492c51 144 103 309 126 403h170
c23 -94 75 -259 125 -403c38 144 75 328 99 492z" />
    <glyph glyph-name="Wgrave" unicode="&#x1e80;" horiz-adv-x="938" 
d="M538 710h-116l-101 145h143zM779 650h154c-38 -206 -91 -449 -141 -650h-215c-32 99 -83 263 -108 371c-27 -108 -80 -272 -112 -371h-210c-50 201 -103 444 -142 650h155c24 -164 61 -348 99 -492c51 144 103 309 126 403h170c23 -94 75 -259 125 -403
c38 144 75 328 99 492z" />
    <glyph glyph-name="Ycircumflex" unicode="&#x176;" horiz-adv-x="632" 
d="M500 710h-116l-68 73l-69 -73h-116l107 145h155zM469 650h178c-20 -42 -136 -262 -256 -436v-214h-154v217c-150 205 -231 390 -252 433h176c9 -28 96 -216 153 -289c56 73 142 261 155 289z" />
    <glyph glyph-name="Ygrave" unicode="&#x1ef2;" horiz-adv-x="632" 
d="M385 710h-116l-101 145h143zM469 650h178c-20 -42 -136 -262 -256 -436v-214h-154v217c-150 205 -231 390 -252 433h176c9 -28 96 -216 153 -289c56 73 142 261 155 289z" />
    <glyph glyph-name="Zacute" unicode="&#x179;" horiz-adv-x="625" 
d="M357 710h-116l74 145h143zM595 562l-347 -431h339v-131h-557v88l347 431h-332v131h550v-88z" />
    <glyph glyph-name="Zdotaccent" unicode="&#x17b;" horiz-adv-x="625" 
d="M387 706h-149v129h149v-129zM595 562l-347 -431h339v-131h-557v88l347 431h-332v131h550v-88z" />
    <glyph glyph-name="abreve" unicode="&#x103;" horiz-adv-x="629" 
d="M315 584c-123 0 -158 70 -164 139h101c7 -35 22 -55 63 -55c44 0 56 20 63 55h101c-5 -69 -42 -139 -164 -139zM298 524c151 0 266 -51 266 -212v-312h-119l-14 45c-30 -20 -93 -57 -186 -57c-130 0 -205 76 -205 171c0 121 117 159 215 159c41 0 95 -4 158 -27v20
c0 72 -63 95 -160 95c-63 0 -117 -15 -171 -30v123c47 14 140 25 216 25zM196 156c0 -34 32 -57 96 -57c47 0 90 20 121 35v62c-29 14 -70 22 -124 22c-63 0 -93 -24 -93 -62z" />
    <glyph glyph-name="amacron" unicode="&#x101;" horiz-adv-x="629" 
d="M476 592h-322v106h322v-106zM298 524c151 0 266 -51 266 -212v-312h-119l-14 45c-30 -20 -93 -57 -186 -57c-130 0 -205 76 -205 171c0 121 117 159 215 159c41 0 95 -4 158 -27v20c0 72 -63 95 -160 95c-63 0 -117 -15 -171 -30v123c47 14 140 25 216 25zM196 156
c0 -34 32 -57 96 -57c47 0 90 20 121 35v62c-29 14 -70 22 -124 22c-63 0 -93 -24 -93 -62z" />
    <glyph glyph-name="aogonek" unicode="&#x105;" horiz-adv-x="629" 
d="M564 0h-28c-62 -26 -103 -58 -103 -81c0 -13 6 -18 29 -18c25 0 62 10 88 23l1 -86c-27 -12 -66 -20 -100 -20c-77 0 -113 27 -113 76c0 56 63 98 105 112l-12 39c-30 -20 -93 -57 -186 -57c-130 0 -205 76 -205 171c0 121 117 159 215 159c41 0 95 -4 158 -27v20
c0 72 -63 95 -160 95c-63 0 -117 -15 -171 -30v123c47 14 140 25 216 25c151 0 266 -51 266 -212v-312zM196 156c0 -34 32 -57 96 -57c47 0 90 20 121 35v62c-29 14 -70 22 -124 22c-63 0 -93 -24 -93 -62z" />
    <glyph glyph-name="aringacute" unicode="&#x1fb;" horiz-adv-x="629" 
d="M371 796h-116l74 145h143zM315 574c-70 0 -109 37 -109 92s39 92 109 92s109 -37 109 -92s-39 -92 -109 -92zM315 702c-25 0 -49 -9 -49 -36s24 -36 49 -36s49 9 49 36s-24 36 -49 36zM298 524c151 0 266 -51 266 -212v-312h-119l-14 45c-30 -20 -93 -57 -186 -57
c-130 0 -205 76 -205 171c0 121 117 159 215 159c41 0 95 -4 158 -27v20c0 72 -63 95 -160 95c-63 0 -117 -15 -171 -30v123c47 14 140 25 216 25zM196 156c0 -34 32 -57 96 -57c47 0 90 20 121 35v62c-29 14 -70 22 -124 22c-63 0 -93 -24 -93 -62z" />
    <glyph glyph-name="aeacute" unicode="&#x1fd;" horiz-adv-x="991" 
d="M581 591h-116l74 145h143zM694 524c174 0 262 -90 262 -253v-70h-387c10 -76 94 -93 152 -93c73 0 153 18 208 35v-118c-60 -19 -137 -37 -212 -37c-101 0 -176 24 -232 77c-71 -50 -147 -77 -240 -77c-130 0 -205 76 -205 171c0 121 117 159 215 159c41 0 95 -4 158 -27
v20c0 72 -63 95 -160 95c-63 0 -117 -15 -171 -30v123c47 14 140 25 216 25c88 0 161 -19 208 -71c52 49 120 71 188 71zM700 406c-74 0 -121 -34 -130 -111h231c-1 69 -37 111 -101 111zM289 218c-63 0 -93 -24 -93 -62c0 -34 32 -57 96 -57c45 0 96 21 141 46
c-6 15 -10 31 -13 48c-30 16 -73 25 -131 25z" />
    <glyph glyph-name="cacute" unicode="&#x107;" horiz-adv-x="553" 
d="M366 591h-116l74 145h143zM323 524c77 0 131 -9 190 -29v-129c-44 19 -93 33 -163 33c-84 0 -158 -43 -158 -141c0 -104 87 -145 159 -145c73 0 121 10 162 23v-127c-56 -12 -121 -21 -168 -21c-174 0 -310 81 -310 266c0 180 136 270 288 270z" />
    <glyph glyph-name="ccaron" unicode="&#x10d;" horiz-adv-x="553" 
d="M397 591h-155l-107 145h116l69 -73l68 73h116zM323 524c77 0 131 -9 190 -29v-129c-44 19 -93 33 -163 33c-84 0 -158 -43 -158 -141c0 -104 87 -145 159 -145c73 0 121 10 162 23v-127c-56 -12 -121 -21 -168 -21c-174 0 -310 81 -310 266c0 180 136 270 288 270z" />
    <glyph glyph-name="ccircumflex" unicode="&#x109;" horiz-adv-x="553" 
d="M320 664l-69 -73h-116l107 145h155l107 -145h-116zM323 524c77 0 131 -9 190 -29v-129c-44 19 -93 33 -163 33c-84 0 -158 -43 -158 -141c0 -104 87 -145 159 -145c73 0 121 10 162 23v-127c-56 -12 -121 -21 -168 -21c-174 0 -310 81 -310 266c0 180 136 270 288 270z
" />
    <glyph glyph-name="cdotaccent" unicode="&#x10b;" horiz-adv-x="553" 
d="M394 586h-149v129h149v-129zM323 524c77 0 131 -9 190 -29v-129c-44 19 -93 33 -163 33c-84 0 -158 -43 -158 -141c0 -104 87 -145 159 -145c73 0 121 10 162 23v-127c-56 -12 -121 -21 -168 -21c-174 0 -310 81 -310 266c0 180 136 270 288 270z" />
    <glyph glyph-name="dcaron" unicode="&#x10f;" horiz-adv-x="836" 
d="M455 691h151v-691h-112l-14 44c-42 -28 -102 -54 -174 -54c-147 0 -271 99 -271 269c0 185 129 265 277 265c52 0 103 -16 143 -36v203zM836 691l-66 -195h-124l37 195h153zM192 260c0 -102 65 -146 142 -146c49 0 90 18 121 39v210c-34 21 -76 37 -125 37
c-81 0 -138 -46 -138 -140z" />
    <glyph glyph-name="dcroat" unicode="&#x111;" horiz-adv-x="671" 
d="M693 560h-87v-560h-112l-14 44c-42 -28 -102 -54 -174 -54c-147 0 -271 99 -271 269c0 185 129 265 277 265c52 0 103 -16 143 -36v72h-130v90h130v41h151v-41h87v-90zM192 260c0 -102 65 -146 142 -146c49 0 90 18 121 39v210c-34 21 -76 37 -125 37
c-81 0 -138 -46 -138 -140z" />
    <glyph glyph-name="ebreve" unicode="&#x115;" horiz-adv-x="612" 
d="M317 584c-123 0 -158 70 -164 139h101c7 -35 22 -55 63 -55c44 0 56 20 63 55h101c-5 -69 -42 -139 -164 -139zM577 201h-387c10 -77 94 -93 152 -93c73 0 153 18 208 35v-118c-60 -19 -137 -37 -212 -37c-184 0 -303 83 -303 272c0 181 138 264 285 264
c169 0 257 -90 257 -253v-70zM191 295h231c-1 69 -37 111 -101 111c-74 0 -122 -34 -130 -111z" />
    <glyph glyph-name="ecaron" unicode="&#x11b;" horiz-adv-x="612" 
d="M239 591l-107 145h116l69 -73l68 73h116l-107 -145h-155zM577 201h-387c10 -77 94 -93 152 -93c73 0 153 18 208 35v-118c-60 -19 -137 -37 -212 -37c-184 0 -303 83 -303 272c0 181 138 264 285 264c169 0 257 -90 257 -253v-70zM191 295h231c-1 69 -37 111 -101 111
c-74 0 -122 -34 -130 -111z" />
    <glyph glyph-name="edotaccent" unicode="&#x117;" horiz-adv-x="612" 
d="M391 586h-149v129h149v-129zM577 201h-387c10 -77 94 -93 152 -93c73 0 153 18 208 35v-118c-60 -19 -137 -37 -212 -37c-184 0 -303 83 -303 272c0 181 138 264 285 264c169 0 257 -90 257 -253v-70zM191 295h231c-1 69 -37 111 -101 111c-74 0 -122 -34 -130 -111z" />
    <glyph glyph-name="emacron" unicode="&#x113;" horiz-adv-x="612" 
d="M478 592h-322v106h322v-106zM577 201h-387c10 -77 94 -93 152 -93c73 0 153 18 208 35v-118c-60 -19 -137 -37 -212 -37c-184 0 -303 83 -303 272c0 181 138 264 285 264c169 0 257 -90 257 -253v-70zM191 295h231c-1 69 -37 111 -101 111c-74 0 -122 -34 -130 -111z" />
    <glyph glyph-name="eogonek" unicode="&#x119;" horiz-adv-x="612" 
d="M577 201h-387c10 -77 94 -93 152 -93c73 0 153 18 208 35v-118c-21 -7 -44 -13 -69 -19c-70 -27 -118 -62 -118 -87c0 -13 5 -18 29 -18c25 0 62 10 88 23l1 -86c-27 -12 -66 -20 -100 -20c-77 0 -113 27 -113 76c0 40 33 73 67 94c-182 1 -300 84 -300 272
c0 181 138 264 285 264c169 0 257 -90 257 -253v-70zM191 295h231c-1 69 -37 111 -101 111c-74 0 -122 -34 -130 -111z" />
    <glyph glyph-name="gbreve" unicode="&#x11f;" horiz-adv-x="671" 
d="M319 584c-123 0 -158 70 -164 139h101c7 -35 22 -55 63 -55c44 0 56 20 63 55h101c-5 -69 -42 -139 -164 -139zM606 513v-469c0 -192 -141 -256 -299 -256c-108 0 -164 14 -220 33v127c38 -12 118 -36 203 -36c90 0 165 30 165 106v12c-40 -22 -91 -40 -149 -40
c-147 0 -271 98 -271 268c0 185 129 265 277 265c64 0 127 -23 169 -50l13 40h112zM334 114c49 0 90 18 121 39v209c-34 21 -76 37 -125 37c-81 0 -138 -45 -138 -139c0 -102 65 -146 142 -146z" />
    <glyph glyph-name="gcircumflex" unicode="&#x11d;" horiz-adv-x="671" 
d="M250 591h-116l107 145h155l107 -145h-116l-68 73zM606 513v-469c0 -192 -141 -256 -299 -256c-108 0 -164 14 -220 33v127c38 -12 118 -36 203 -36c90 0 165 30 165 106v12c-40 -22 -91 -40 -149 -40c-147 0 -271 98 -271 268c0 185 129 265 277 265
c64 0 127 -23 169 -50l13 40h112zM334 114c49 0 90 18 121 39v209c-34 21 -76 37 -125 37c-81 0 -138 -45 -138 -139c0 -102 65 -146 142 -146z" />
    <glyph glyph-name="gcommaaccent" unicode="&#x123;" horiz-adv-x="671" 
d="M377 591h-153l66 195h124zM606 513v-469c0 -192 -141 -256 -299 -256c-108 0 -164 14 -220 33v127c38 -12 118 -36 203 -36c90 0 165 30 165 106v12c-40 -22 -91 -40 -149 -40c-147 0 -271 98 -271 268c0 185 129 265 277 265c64 0 127 -23 169 -50l13 40h112zM334 114
c49 0 90 18 121 39v209c-34 21 -76 37 -125 37c-81 0 -138 -45 -138 -139c0 -102 65 -146 142 -146z" />
    <glyph glyph-name="gdotaccent" unicode="&#x121;" horiz-adv-x="671" 
d="M393 586h-149v129h149v-129zM606 513v-469c0 -192 -141 -256 -299 -256c-108 0 -164 14 -220 33v127c38 -12 118 -36 203 -36c90 0 165 30 165 106v12c-40 -22 -91 -40 -149 -40c-147 0 -271 98 -271 268c0 185 129 265 277 265c64 0 127 -23 169 -50l13 40h112zM334 114
c49 0 90 18 121 39v209c-34 21 -76 37 -125 37c-81 0 -138 -45 -138 -139c0 -102 65 -146 142 -146z" />
    <glyph glyph-name="hbar" unicode="&#x127;" horiz-adv-x="668" 
d="M412 524c113 -2 191 -48 191 -205v-319h-151v300c0 63 -22 99 -89 99c-65 0 -115 -25 -146 -48l-1 -351h-151v560h-86v90h86v41h152v-41h130v-90h-130v-92c45 27 116 58 195 56z" />
    <glyph glyph-name="hcircumflex" unicode="&#x125;" horiz-adv-x="668" 
d="M185 731h-116l107 145h155l107 -145h-116l-68 73zM412 524c113 -2 191 -48 191 -205v-319h-151v300c0 63 -22 99 -89 99c-65 0 -115 -25 -146 -48l-1 -351h-151v691h152v-223c45 27 116 58 195 56z" />
    <glyph glyph-name="ibreve" unicode="&#x12d;" horiz-adv-x="281" 
d="M204 723h101c-5 -69 -42 -139 -164 -139c-123 0 -158 70 -164 139h101c7 -35 22 -55 63 -55c44 0 56 20 63 55zM216 0h-151v513h151v-513z" />
    <glyph glyph-name="ij" unicode="&#x133;" horiz-adv-x="566" 
d="M225 586h-169v129h169v-129zM510 586h-169v129h169v-129zM216 0h-151v513h151v-513zM501 513v-547c0 -129 -98 -178 -205 -178c-47 0 -86 5 -125 19v124c27 -13 74 -19 93 -19c69 0 86 26 86 71v530h151z" />
    <glyph glyph-name="imacron" unicode="&#x12b;" horiz-adv-x="281" 
d="M302 592h-322v106h322v-106zM216 0h-151v513h151v-513z" />
    <glyph glyph-name="iogonek" unicode="&#x12f;" horiz-adv-x="281" 
d="M215 586h-149v129h149v-129zM216 0h-59c-62 -26 -103 -58 -103 -81c0 -13 5 -18 29 -18c25 0 62 10 88 23l1 -86c-27 -12 -66 -20 -100 -20c-77 0 -113 27 -113 76c0 56 64 99 106 112v507h151v-513z" />
    <glyph glyph-name="itilde" unicode="&#x129;" horiz-adv-x="281" 
d="M232 724h88c-7 -69 -42 -126 -117 -126c-54 0 -84 38 -116 38c-24 0 -30 -12 -37 -36h-88c7 69 43 126 117 126c54 0 84 -38 116 -38c24 0 30 12 37 36zM216 0h-151v513h151v-513z" />
    <glyph glyph-name="dotlessj" unicode="&#x237;" horiz-adv-x="285" 
d="M220 513v-547c0 -129 -98 -178 -205 -178c-47 0 -86 5 -125 19v124c27 -13 74 -19 93 -19c69 0 86 26 86 71v530h151z" />
    <glyph glyph-name="jcircumflex" unicode="&#x135;" horiz-adv-x="285" 
d="M143 664l-69 -73h-116l107 145h155l107 -145h-116zM220 513v-547c0 -129 -98 -178 -205 -178c-47 0 -86 5 -125 19v124c27 -13 74 -19 93 -19c69 0 86 26 86 71v530h151z" />
    <glyph glyph-name="kcommaaccent" unicode="&#x137;" horiz-adv-x="614" 
d="M216 0h-151v691h151v-691zM413 513h182c-75 -87 -135 -158 -201 -247c91 -83 210 -240 230 -266h-184c-49 72 -114 154 -214 257c69 109 125 185 187 256zM338 -250h-124l37 195h153z" />
    <glyph glyph-name="kgreenlandic" unicode="&#x138;" horiz-adv-x="614" 
d="M216 0h-151v513h151v-513zM413 513h182c-75 -87 -135 -158 -201 -247c91 -83 210 -240 230 -266h-184c-49 72 -114 154 -214 257c69 109 125 185 187 256z" />
    <glyph glyph-name="lacute" unicode="&#x13a;" horiz-adv-x="281" 
d="M187 731h-116l74 145h143zM216 0h-151v691h151v-691z" />
    <glyph glyph-name="lcaron" unicode="&#x13e;" horiz-adv-x="476" 
d="M216 0h-151v691h151v-691zM410 496h-124l37 195h153z" />
    <glyph glyph-name="lcommaaccent" unicode="&#x13c;" horiz-adv-x="281" 
d="M216 0h-151v691h151v-691zM149 -250h-124l37 195h153z" />
    <glyph glyph-name="ldot" unicode="&#x140;" horiz-adv-x="456" 
d="M216 0h-151v691h151v-691zM446 392h-162v155h162v-155z" />
    <glyph glyph-name="nacute" unicode="&#x144;" horiz-adv-x="668" 
d="M380 591h-116l74 145h143zM412 524c113 0 191 -48 191 -205v-319h-151v300c0 63 -22 99 -89 99c-65 0 -115 -25 -147 -48v-351h-151v513h122l16 -54c44 29 122 65 209 65z" />
    <glyph glyph-name="napostrophe" unicode="&#x149;" horiz-adv-x="758" 
d="M180 691l-66 -195h-124l37 195h153zM502 524c113 0 191 -48 191 -205v-319h-151v300c0 63 -22 99 -89 99c-65 0 -115 -25 -147 -48v-351h-151v513h122l16 -54c44 29 122 65 209 65z" />
    <glyph glyph-name="ncaron" unicode="&#x148;" horiz-adv-x="668" 
d="M256 591l-107 145h116l69 -73l68 73h116l-107 -145h-155zM412 524c113 0 191 -48 191 -205v-319h-151v300c0 63 -22 99 -89 99c-65 0 -115 -25 -147 -48v-351h-151v513h122l16 -54c44 29 122 65 209 65z" />
    <glyph glyph-name="ncommaaccent" unicode="&#x146;" horiz-adv-x="668" 
d="M412 524c113 0 191 -48 191 -205v-319h-151v300c0 63 -22 99 -89 99c-65 0 -115 -25 -147 -48v-351h-151v513h122l16 -54c44 29 122 65 209 65zM258 -55h153l-66 -195h-124z" />
    <glyph glyph-name="eng" unicode="&#x14b;" horiz-adv-x="668" 
d="M412 524c113 0 191 -48 191 -205v-353c0 -129 -98 -178 -205 -178c-47 0 -86 5 -125 19v124c27 -13 74 -19 93 -19c69 0 86 26 86 71v317c0 63 -22 99 -89 99c-65 0 -115 -25 -147 -48v-351h-151v513h122l16 -54c44 29 122 65 209 65z" />
    <glyph glyph-name="obreve" unicode="&#x14f;" horiz-adv-x="658" 
d="M393 723h101c-5 -69 -42 -139 -164 -139c-123 0 -158 70 -164 139h101c7 -35 22 -55 63 -55c44 0 56 20 63 55zM330 524c173 0 293 -94 293 -268c0 -175 -120 -268 -293 -268c-174 0 -295 92 -295 268c0 175 121 268 295 268zM326 399c-79 0 -134 -54 -134 -143
c0 -83 55 -143 140 -143c81 0 134 62 134 143c0 92 -58 143 -140 143z" />
    <glyph glyph-name="ohungarumlaut" unicode="&#x151;" horiz-adv-x="658" 
d="M297 591h-113l74 145h143zM493 591h-113l74 145h143zM330 524c173 0 293 -94 293 -268c0 -175 -120 -268 -293 -268c-174 0 -295 92 -295 268c0 175 121 268 295 268zM326 399c-79 0 -134 -54 -134 -143c0 -83 55 -143 140 -143c81 0 134 62 134 143
c0 92 -58 143 -140 143z" />
    <glyph glyph-name="omacron" unicode="&#x14d;" horiz-adv-x="658" 
d="M491 592h-322v106h322v-106zM330 524c173 0 293 -94 293 -268c0 -175 -120 -268 -293 -268c-174 0 -295 92 -295 268c0 175 121 268 295 268zM326 399c-79 0 -134 -54 -134 -143c0 -83 55 -143 140 -143c81 0 134 62 134 143c0 92 -58 143 -140 143z" />
    <glyph glyph-name="oslashacute" unicode="&#x1ff;" horiz-adv-x="658" 
d="M376 591h-116l74 145h143zM593 490l-39 -46c44 -45 69 -108 69 -188c0 -175 -120 -268 -293 -268c-52 0 -100 8 -141 25l-45 -54l-79 61l40 47c-44 45 -70 108 -70 189c0 175 121 268 295 268c52 0 99 -9 140 -25l44 52zM192 256c0 -25 5 -48 15 -68l172 203
c-16 5 -34 8 -53 8c-79 0 -134 -54 -134 -143zM332 113c81 0 134 62 134 143c0 26 -5 49 -13 68l-172 -203c15 -5 32 -8 51 -8z" />
    <glyph glyph-name="racute" unicode="&#x155;" horiz-adv-x="426" 
d="M289 591h-116l74 145h143zM187 513l17 -56c51 35 115 65 204 67v-144c-82 1 -144 -23 -192 -51v-329h-151v513h122z" />
    <glyph glyph-name="rcaron" unicode="&#x159;" horiz-adv-x="426" 
d="M165 591l-107 145h116l69 -73l68 73h116l-107 -145h-155zM187 513l17 -56c51 35 115 65 204 67v-144c-82 1 -144 -23 -192 -51v-329h-151v513h122z" />
    <glyph glyph-name="rcommaaccent" unicode="&#x157;" horiz-adv-x="426" 
d="M187 513l17 -56c51 35 115 65 204 67v-144c-82 1 -144 -23 -192 -51v-329h-151v513h122zM60 -55h153l-66 -195h-124z" />
    <glyph glyph-name="sacute" unicode="&#x15b;" horiz-adv-x="547" 
d="M314 591h-116l74 145h143zM288 524c81 0 148 -15 191 -33v-120c-70 24 -127 34 -181 34c-45 0 -117 -3 -117 -37c0 -23 14 -24 76 -38l104 -23c108 -24 151 -73 151 -150c0 -97 -71 -169 -262 -169c-68 0 -163 19 -205 33v124c36 -12 131 -35 201 -35c93 0 116 14 116 42
c0 17 -9 31 -78 45l-112 23c-113 23 -137 82 -137 148c0 112 106 156 253 156z" />
    <glyph glyph-name="scedilla" unicode="&#x15f;" horiz-adv-x="547" 
d="M512 157c0 -88 -58 -155 -210 -167l-8 -22c53 -9 75 -36 75 -82c0 -63 -39 -93 -115 -93c-26 0 -54 3 -93 14v73c42 -13 65 -17 93 -17c27 0 39 8 39 25s-13 25 -43 25c-20 0 -30 -1 -42 -3l26 78c-67 3 -150 20 -189 33v124c36 -12 131 -35 201 -35c93 0 116 14 116 42
c0 17 -9 31 -78 45l-112 23c-113 23 -137 82 -137 148c0 112 106 156 253 156c81 0 148 -15 191 -33v-120c-70 24 -127 34 -181 34c-45 0 -117 -3 -117 -37c0 -23 14 -24 76 -38l104 -23c108 -24 151 -73 151 -150z" />
    <glyph glyph-name="scircumflex" unicode="&#x15d;" horiz-adv-x="547" 
d="M268 664l-69 -73h-116l107 145h155l107 -145h-116zM288 524c81 0 148 -15 191 -33v-120c-70 24 -127 34 -181 34c-45 0 -117 -3 -117 -37c0 -23 14 -24 76 -38l104 -23c108 -24 151 -73 151 -150c0 -97 -71 -169 -262 -169c-68 0 -163 19 -205 33v124
c36 -12 131 -35 201 -35c93 0 116 14 116 42c0 17 -9 31 -78 45l-112 23c-113 23 -137 82 -137 148c0 112 106 156 253 156z" />
    <glyph glyph-name="scommaaccent" unicode="&#x219;" horiz-adv-x="547" 
d="M288 524c81 0 148 -15 191 -33v-120c-70 24 -127 34 -181 34c-45 0 -117 -3 -117 -37c0 -23 14 -24 76 -38l104 -23c108 -24 151 -73 151 -150c0 -97 -71 -169 -262 -169c-68 0 -163 19 -205 33v124c36 -12 131 -35 201 -35c93 0 116 14 116 42c0 17 -9 31 -78 45
l-112 23c-113 23 -137 82 -137 148c0 112 106 156 253 156zM294 -250h-124l37 195h153z" />
    <glyph glyph-name="longs" unicode="&#x17f;" horiz-adv-x="387" 
d="M294 723c47 0 70 -3 109 -17v-122c-27 11 -58 15 -77 15c-67 0 -79 -18 -79 -63v-536h-151v393h-106v120h106v32c0 129 91 178 198 178z" />
    <glyph glyph-name="schwa" unicode="&#x259;" horiz-adv-x="607" 
d="M280 524c178 0 292 -81 292 -266s-134 -268 -281 -268c-171 0 -261 84 -261 273v50h387c-8 76 -82 91 -141 91c-74 0 -164 -16 -219 -29v118c60 15 147 31 223 31zM286 108c74 0 121 34 130 111h-231c1 -69 37 -111 101 -111z" />
    <glyph glyph-name="tbar" unicode="&#x167;" horiz-adv-x="413" 
d="M228 393v-40h160v-120h-160v-40c0 -49 15 -80 77 -80c19 0 56 5 83 14v-120c-39 -14 -68 -19 -115 -19c-107 0 -196 43 -196 178v67h-87v120h87v40h-87v120h93l17 131h128v-131h160v-120h-160z" />
    <glyph glyph-name="tcaron" unicode="&#x165;" horiz-adv-x="413" 
d="M422 546h-124l37 195h153zM388 513v-120h-160v-200c0 -49 15 -80 77 -80c19 0 56 5 83 14v-120c-39 -14 -68 -19 -115 -19c-107 0 -196 43 -196 178v227h-87v120h93l17 131h128v-131h160z" />
    <glyph glyph-name="tcedilla" unicode="&#x163;" horiz-adv-x="413" 
d="M388 513v-120h-160v-200c0 -49 15 -80 77 -80c19 0 56 5 83 14v-120c-39 -14 -68 -19 -115 -19c-107 0 -196 43 -196 178v227h-87v120h93l17 131h128v-131h160zM252 -250h-124l37 195h153z" />
    <glyph glyph-name="uni021B" unicode="&#x21b;" horiz-adv-x="413" 
d="M388 513v-120h-160v-200c0 -49 15 -80 77 -80c19 0 56 5 83 14v-120c-39 -14 -68 -19 -115 -19c-107 0 -196 43 -196 178v227h-87v120h93l17 131h128v-131h160zM252 -250h-124l37 195h153z" />
    <glyph glyph-name="ubreve" unicode="&#x16d;" horiz-adv-x="658" 
d="M329 584c-123 0 -158 70 -164 139h101c7 -35 22 -55 63 -55c44 0 56 20 63 55h101c-5 -69 -42 -139 -164 -139zM593 513v-513h-122l-16 54c-44 -29 -121 -66 -199 -66c-113 0 -191 49 -191 206v319h151v-300c0 -63 22 -100 89 -100c56 0 105 26 137 49v351h151z" />
    <glyph glyph-name="uhungarumlaut" unicode="&#x171;" horiz-adv-x="658" 
d="M296 591h-113l74 145h143zM379 591l74 145h143l-104 -145h-113zM442 513h151v-513h-122l-16 54c-44 -29 -121 -66 -199 -66c-113 0 -191 49 -191 206v319h151v-300c0 -63 22 -100 89 -100c56 0 105 26 137 49v351z" />
    <glyph glyph-name="umacron" unicode="&#x16b;" horiz-adv-x="658" 
d="M490 592h-322v106h322v-106zM593 513v-513h-122l-16 54c-44 -29 -121 -66 -199 -66c-113 0 -191 49 -191 206v319h151v-300c0 -63 22 -100 89 -100c56 0 105 26 137 49v351h151z" />
    <glyph glyph-name="uogonek" unicode="&#x173;" horiz-adv-x="658" 
d="M593 513v-513h-14c-59 -25 -107 -52 -107 -81c0 -18 9 -26 32 -26c25 0 62 10 88 23l1 -75c-27 -12 -66 -20 -100 -20c-77 0 -106 24 -106 73c0 47 45 88 84 106l-16 54c-44 -29 -121 -66 -199 -66c-113 0 -191 49 -191 206v319h151v-300c0 -63 22 -100 89 -100
c56 0 105 26 137 49v351h151z" />
    <glyph glyph-name="uring" unicode="&#x16f;" horiz-adv-x="658" 
d="M329 574c-70 0 -109 37 -109 92s39 92 109 92s109 -37 109 -92s-39 -92 -109 -92zM329 702c-25 0 -49 -9 -49 -36s24 -36 49 -36s49 9 49 36s-24 36 -49 36zM593 513v-513h-122l-16 54c-44 -29 -121 -66 -199 -66c-113 0 -191 49 -191 206v319h151v-300
c0 -63 22 -100 89 -100c56 0 105 26 137 49v351h151z" />
    <glyph glyph-name="utilde" unicode="&#x169;" horiz-adv-x="658" 
d="M275 636c-24 0 -30 -12 -37 -36h-88c7 69 43 126 117 126c54 0 84 -38 116 -38c24 0 30 12 37 36h88c-7 -69 -42 -126 -117 -126c-54 0 -84 38 -116 38zM593 513v-513h-122l-16 54c-44 -29 -121 -66 -199 -66c-113 0 -191 49 -191 206v319h151v-300
c0 -63 22 -100 89 -100c56 0 105 26 137 49v351h151z" />
    <glyph glyph-name="wacute" unicode="&#x1e83;" horiz-adv-x="880" 
d="M486 591h-116l74 145h143zM726 513h159c-9 -38 -82 -320 -181 -513h-164c-44 111 -81 217 -100 290c-19 -73 -55 -179 -100 -290h-165c-99 193 -171 475 -180 513h159c9 -44 60 -266 104 -377c46 111 94 333 106 377h152c12 -44 60 -266 106 -377c44 111 95 333 104 377z
" />
    <glyph glyph-name="wcircumflex" unicode="&#x175;" horiz-adv-x="880" 
d="M440 664l-69 -73h-116l107 145h155l107 -145h-116zM726 513h159c-9 -38 -82 -320 -181 -513h-164c-44 111 -81 217 -100 290c-19 -73 -55 -179 -100 -290h-165c-99 193 -171 475 -180 513h159c9 -44 60 -266 104 -377c46 111 94 333 106 377h152c12 -44 60 -266 106 -377
c44 111 95 333 104 377z" />
    <glyph glyph-name="wdieresis" unicode="&#x1e85;" horiz-adv-x="880" 
d="M399 586h-149v129h149v-129zM629 586h-149v129h149v-129zM726 513h159c-9 -38 -82 -320 -181 -513h-164c-44 111 -81 217 -100 290c-19 -73 -55 -179 -100 -290h-165c-99 193 -171 475 -180 513h159c9 -44 60 -266 104 -377c46 111 94 333 106 377h152
c12 -44 60 -266 106 -377c44 111 95 333 104 377z" />
    <glyph glyph-name="wgrave" unicode="&#x1e81;" horiz-adv-x="880" 
d="M510 591h-116l-101 145h143zM726 513h159c-9 -38 -82 -320 -181 -513h-164c-44 111 -81 217 -100 290c-19 -73 -55 -179 -100 -290h-165c-99 193 -171 475 -180 513h159c9 -44 60 -266 104 -377c46 111 94 333 106 377h152c12 -44 60 -266 106 -377
c44 111 95 333 104 377z" />
    <glyph glyph-name="ycircumflex" unicode="&#x177;" horiz-adv-x="590" 
d="M226 591h-116l107 145h155l107 -145h-116l-68 73zM436 513h164c-23 -66 -211 -527 -344 -713h-157c45 72 84 137 118 199c-108 202 -215 476 -227 514h164c12 -43 93 -255 138 -370c54 112 98 226 144 370z" />
    <glyph glyph-name="ygrave" unicode="&#x1ef3;" horiz-adv-x="590" 
d="M249 591l-101 145h143l74 -145h-116zM436 513h164c-23 -66 -211 -527 -344 -713h-157c45 72 84 137 118 199c-108 202 -215 476 -227 514h164c12 -43 93 -255 138 -370c54 112 98 226 144 370z" />
    <glyph glyph-name="zacute" unicode="&#x17a;" horiz-adv-x="571" 
d="M341 591h-116l74 145h143zM529 415l-292 -295h294v-120h-491v98l292 295h-284v120h481v-98z" />
    <glyph glyph-name="zdotaccent" unicode="&#x17c;" horiz-adv-x="571" 
d="M369 586h-149v129h149v-129zM529 415l-292 -295h294v-120h-491v98l292 295h-284v120h481v-98z" />
    <glyph glyph-name="nsuperior" unicode="&#x207f;" horiz-adv-x="668" 
d="M412 524c113 0 191 -48 191 -205v-319h-151v300c0 63 -22 99 -89 99c-65 0 -115 -25 -147 -48v-351h-151v513h122l16 -54c44 29 122 65 209 65z" />
    <glyph glyph-name="Alpha" unicode="&#x391;" horiz-adv-x="683" 
d="M489 118h-307l-36 -118h-161c119 387 246 650 246 650h216s142 -295 251 -650h-171zM225 249h220c-32 91 -66 182 -111 286c-40 -92 -76 -189 -109 -286z" />
    <glyph glyph-name="Beta" unicode="&#x392;" horiz-adv-x="702" 
d="M70 650h267c137 0 291 -28 291 -166c0 -57 -34 -118 -115 -146v-3c69 -11 144 -60 144 -145c0 -158 -150 -190 -282 -190h-305v650zM225 386h118c65 0 122 11 122 72s-61 67 -118 67h-122v-139zM225 125h149c80 0 121 18 121 73c0 65 -55 77 -132 77h-138v-150z" />
    <glyph glyph-name="Gamma" unicode="&#x393;" horiz-adv-x="595" 
d="M225 0h-155v650h485v-131h-330v-519z" />
    <glyph glyph-name="Epsilon" unicode="&#x395;" horiz-adv-x="627" 
d="M225 519v-124h317v-126h-317v-138h357v-131h-512v650h505v-131h-350z" />
    <glyph glyph-name="Zeta" unicode="&#x396;" horiz-adv-x="625" 
d="M248 131h339v-131h-557v88l347 431h-332v131h550v-88z" />
    <glyph glyph-name="Eta" unicode="&#x397;" horiz-adv-x="737" 
d="M512 0v252h-287v-252h-155v650h155v-267h287v267h155v-650h-155z" />
    <glyph glyph-name="Theta" unicode="&#x398;" horiz-adv-x="781" 
d="M391 662c167 0 350 -104 350 -331c0 -248 -171 -345 -351 -345s-350 97 -350 345c0 228 183 331 351 331zM390 524c-103 0 -188 -69 -188 -194c0 -150 98 -208 189 -208s188 58 188 208c0 125 -85 194 -189 194zM262 379h256v-108h-256v108z" />
    <glyph glyph-name="Iota" unicode="&#x399;" horiz-adv-x="295" 
d="M70 0v650h155v-650h-155z" />
    <glyph glyph-name="Kappa" unicode="&#x39a;" horiz-adv-x="695" 
d="M70 0v650h155v-650h-155zM474 650h208c-137 -157 -213 -253 -262 -326c121 -116 255 -294 280 -324h-205c-76 104 -162 209 -256 313c59 106 171 257 235 337z" />
    <glyph glyph-name="Lambda" unicode="&#x39b;" horiz-adv-x="703" 
d="M344 535c-74 -172 -134 -353 -188 -535h-161c119 387 246 650 246 650h216s142 -295 251 -650h-171c-83 267 -148 431 -193 535z" />
    <glyph glyph-name="Mu" unicode="&#x39c;" horiz-adv-x="910" 
d="M564 650h224c43 -225 66 -431 87 -650h-151c-20 231 -38 364 -60 496c-50 -145 -96 -290 -136 -435h-146c-40 145 -86 290 -136 435c-22 -132 -40 -265 -60 -496h-151c21 219 44 425 87 650h224c23 -73 89 -274 109 -365c21 91 86 292 109 365z" />
    <glyph glyph-name="Nu" unicode="&#x39d;" horiz-adv-x="749" 
d="M525 0l-303 438v-438h-152v649h179l278 -407v407h152v-649h-154z" />
    <glyph glyph-name="Xi" unicode="&#x39e;" horiz-adv-x="651" 
d="M52 650h547v-141h-547v141zM85 400h481v-136h-481v136zM45 141h561v-141h-561v141z" />
    <glyph glyph-name="Omicron" unicode="&#x39f;" horiz-adv-x="781" 
d="M391 662c167 0 350 -104 350 -331c0 -248 -171 -343 -351 -343s-350 95 -350 343c0 228 183 331 351 331zM390 524c-103 0 -188 -69 -188 -194c0 -150 98 -206 189 -206s188 56 188 206c0 125 -85 194 -189 194z" />
    <glyph glyph-name="Pi" unicode="&#x3a0;" horiz-adv-x="727" 
d="M502 0v519h-277v-519h-155v650h587v-650h-155z" />
    <glyph glyph-name="Rho" unicode="&#x3a1;" horiz-adv-x="689" 
d="M70 650h302c149 0 285 -47 285 -235c0 -181 -156 -236 -284 -236h-148v-179h-155v650zM225 310h134c76 0 136 16 136 109c0 81 -59 100 -139 100h-131v-209z" />
    <glyph glyph-name="Sigma" unicode="&#x3a3;" horiz-adv-x="617" 
d="M243 136h344v-136h-553v115l169 189l-173 218v128h557v-137h-339l153 -186z" />
    <glyph glyph-name="Tau" unicode="&#x3a4;" horiz-adv-x="623" 
d="M389 519v-519h-155v519h-214v131h583v-131h-214z" />
    <glyph glyph-name="Upsilon" unicode="&#x3a5;" horiz-adv-x="632" 
d="M469 650h178c-20 -42 -136 -262 -256 -436v-214h-154v217c-150 205 -231 390 -252 433h176c9 -28 96 -216 153 -289c56 73 142 261 155 289z" />
    <glyph glyph-name="Phi" unicode="&#x3a6;" horiz-adv-x="911" 
d="M533 -51h-155v53c-237 10 -348 127 -348 324c0 185 105 310 348 320v54h155v-54c230 -11 348 -121 348 -320c0 -212 -126 -314 -348 -324v-53zM191 325c0 -157 98 -193 187 -193v384c-101 0 -187 -48 -187 -191zM720 325c0 157 -102 191 -187 191v-384
c102 0 187 47 187 193z" />
    <glyph glyph-name="Chi" unicode="&#x3a7;" horiz-adv-x="652" 
d="M672 0h-193l-154 213l-158 -213h-187l247 327l-246 323h198l144 -216l143 216h194l-236 -323z" />
    <glyph glyph-name="Psi" unicode="&#x3a8;" horiz-adv-x="893" 
d="M369 0v120c-193 0 -304 67 -304 248v282h155v-263c0 -77 20 -129 149 -129v392h155v-392c108 0 149 33 149 129v263h155v-279c0 -156 -75 -251 -304 -251v-120h-155z" />
    <glyph glyph-name="Alphatonos" unicode="&#x386;" horiz-adv-x="683" 
d="M-35 485l34 165h161l-94 -165h-101zM489 118h-307l-36 -118h-161c119 387 246 650 246 650h216s142 -295 251 -650h-171zM225 249h220c-32 91 -66 182 -111 286c-40 -92 -76 -189 -109 -286z" />
    <glyph glyph-name="Epsilontonos" unicode="&#x388;" horiz-adv-x="627" 
d="M-195 485l34 165h161l-94 -165h-101zM225 519v-124h317v-126h-317v-138h357v-131h-512v650h505v-131h-350z" />
    <glyph glyph-name="Etatonos" unicode="&#x389;" horiz-adv-x="737" 
d="M-195 485l34 165h161l-94 -165h-101zM512 0v252h-287v-252h-155v650h155v-267h287v267h155v-650h-155z" />
    <glyph glyph-name="Iotatonos" unicode="&#x38a;" horiz-adv-x="295" 
d="M-195 485l34 165h161l-94 -165h-101zM70 0v650h155v-650h-155z" />
    <glyph glyph-name="Omicrontonos" unicode="&#x38c;" horiz-adv-x="781" 
d="M391 662c167 0 350 -104 350 -331c0 -248 -171 -343 -351 -343s-350 95 -350 343c0 228 183 331 351 331zM-98 485l34 165h161l-94 -165h-101zM390 524c-103 0 -188 -69 -188 -194c0 -150 98 -206 189 -206s188 56 188 206c0 125 -85 194 -189 194z" />
    <glyph glyph-name="Upsilontonos" unicode="&#x38e;" horiz-adv-x="632" 
d="M-233 485l34 165h161l-94 -165h-101zM469 650h178c-20 -42 -136 -262 -256 -436v-214h-154v217c-150 205 -231 390 -252 433h176c9 -28 96 -216 153 -289c56 73 142 261 155 289z" />
    <glyph glyph-name="Omegatonos" unicode="&#x38f;" horiz-adv-x="760" 
d="M730 336c0 -94 -35 -169 -95 -215h100v-121h-300v127c40 21 133 75 133 208c0 120 -67 189 -189 189c-104 0 -187 -53 -187 -191c0 -118 79 -179 133 -206v-127h-300v121h100c-56 42 -95 119 -95 213c0 207 138 328 350 328c227 0 350 -136 350 -326zM-108 485l34 165
h161l-94 -165h-101z" />
    <glyph glyph-name="Iotadieresis" unicode="&#x3aa;" horiz-adv-x="295" 
d="M107 706h-149v129h149v-129zM337 706h-149v129h149v-129zM225 0h-155v650h155v-650z" />
    <glyph glyph-name="Upsilondieresis" unicode="&#x3ab;" horiz-adv-x="632" 
d="M275 706h-149v129h149v-129zM505 706h-149v129h149v-129zM469 650h178c-20 -42 -136 -262 -256 -436v-214h-154v217c-150 205 -231 390 -252 433h176c9 -28 96 -216 153 -289c56 73 142 261 155 289z" />
    <glyph glyph-name="alpha" unicode="&#x3b1;" horiz-adv-x="671" 
d="M487 0l-14 45c-38 -33 -109 -57 -167 -57c-147 0 -271 101 -271 271c0 185 129 265 277 265c64 0 127 -23 170 -50l12 39h112v-513h-119zM334 113c49 0 90 18 121 39v211c-34 21 -76 37 -125 37c-81 0 -138 -46 -138 -140c0 -102 65 -147 142 -147z" />
    <glyph glyph-name="beta" unicode="&#x3b2;" horiz-adv-x="681" 
d="M589 541c0 -75 -40 -136 -91 -155c89 -7 148 -79 148 -172c0 -115 -65 -226 -262 -226c-81 0 -136 17 -168 31v-219h-151v672c0 95 15 251 266 251c209 0 258 -95 258 -182zM335 599c-101 0 -119 -60 -119 -114v-341c37 -22 84 -32 145 -32c96 0 128 53 128 109
c0 92 -79 89 -142 89h-60v120h59c76 0 106 29 106 87c0 54 -37 82 -117 82z" />
    <glyph glyph-name="gamma" unicode="&#x3b3;" horiz-adv-x="636" 
d="M244 -200v144c0 31 -169 436 -229 569h165c50 -121 103 -260 150 -406c78 138 115 269 119 406h162c-3 -215 -114 -415 -216 -544v-169h-151z" />
    <glyph glyph-name="delta" unicode="&#x3b4;" horiz-adv-x="641" 
d="M313 -11c-202 0 -283 125 -283 247c0 105 53 201 169 234c-37 27 -67 54 -67 111c0 90 86 142 227 142c96 0 148 -12 189 -26v-122c-28 11 -94 25 -157 25c-49 0 -80 -7 -80 -33c0 -62 295 -83 295 -322c0 -122 -84 -256 -293 -256zM318 109c86 0 129 66 129 131
c0 71 -33 115 -115 150l-12 5c-86 -16 -133 -69 -133 -152c0 -85 48 -134 131 -134z" />
    <glyph glyph-name="epsilon" unicode="&#x3b5;" horiz-adv-x="554" 
d="M499 138v-127c-75 -17 -133 -23 -210 -23c-186 0 -254 70 -254 160c0 56 28 105 89 119c-60 24 -73 66 -73 105c0 139 151 152 263 152c71 0 142 -11 185 -29v-129c-47 20 -111 30 -185 30c-79 0 -108 -17 -108 -48c0 -23 19 -34 54 -34h127v-115h-144
c-40 0 -51 -18 -51 -38c0 -39 43 -48 136 -48c49 0 110 5 171 25z" />
    <glyph glyph-name="zeta" unicode="&#x3b6;" horiz-adv-x="546" 
d="M201 265c0 -83 51 -123 145 -138c116 -18 172 -46 172 -160c0 -46 -15 -106 -41 -167h-156c22 42 40 91 40 122c0 56 -21 64 -96 76c-100 17 -230 74 -230 254c0 131 72 245 192 309h-152v130h446v-112c-161 -50 -320 -141 -320 -314z" />
    <glyph glyph-name="eta" unicode="&#x3b7;" horiz-adv-x="663" 
d="M407 524c113 -2 191 -48 191 -205v-519h-151v500c0 63 -22 99 -89 99c-65 0 -110 -25 -142 -48v-351h-151v513h122l16 -54c44 29 117 67 204 65z" />
    <glyph glyph-name="theta" unicode="&#x3b8;" horiz-adv-x="658" 
d="M328 -12c-221 0 -293 139 -293 373c0 223 87 362 293 362c196 0 295 -119 295 -363c0 -251 -86 -372 -295 -372zM182 420h294c-2 116 -57 178 -148 178c-105 0 -144 -81 -146 -178zM476 300h-294c0 -116 33 -187 146 -187c110 0 148 63 148 187z" />
    <glyph glyph-name="iota" unicode="&#x3b9;" horiz-adv-x="396" 
d="M211 513v-320c0 -49 15 -80 77 -80c19 0 56 5 83 14v-120c-39 -14 -68 -19 -115 -19c-107 0 -196 43 -196 178v347h151z" />
    <glyph glyph-name="kappa" unicode="&#x3ba;" horiz-adv-x="614" 
d="M65 0v513h151v-513h-151zM413 513h182c-75 -87 -135 -158 -201 -247c91 -83 210 -240 230 -266h-184c-49 72 -114 154 -214 257c69 109 125 185 187 256z" />
    <glyph glyph-name="lambda" unicode="&#x3bb;" horiz-adv-x="615" 
d="M126 598c-22 0 -45 -7 -64 -14v120c29 11 52 19 92 19c113 0 164 -39 244 -202c116 -236 173 -398 207 -521h-161c-31 110 -83 266 -129 348c-32 -59 -99 -215 -139 -348h-161c42 155 149 386 222 503c-42 81 -63 95 -111 95z" />
    <glyph glyph-name="nu" unicode="&#x3bd;" horiz-adv-x="570" 
d="M419 513h161c-12 -38 -104 -320 -217 -513h-156c-113 193 -205 475 -217 513h161c12 -44 84 -274 134 -385c50 111 122 341 134 385z" />
    <glyph glyph-name="xi" unicode="&#x3be;" horiz-adv-x="570" 
d="M35 195c0 82 41 162 152 185c-79 21 -121 76 -121 155c0 126 100 188 279 188c78 0 143 -10 185 -29v-129c-32 16 -79 33 -163 33c-88 0 -139 -16 -139 -82c0 -69 61 -81 148 -81h107v-130h-140c-94 0 -142 -18 -142 -80c0 -64 57 -80 158 -98c100 -18 169 -37 169 -158
c0 -47 -15 -110 -41 -169h-156c28 53 40 98 40 124c0 54 -23 63 -94 74c-121 19 -242 56 -242 197z" />
    <glyph glyph-name="omicron" unicode="&#x3bf;" horiz-adv-x="658" 
d="M330 524c173 0 293 -95 293 -269c0 -173 -120 -266 -293 -266c-174 0 -295 92 -295 266c0 175 121 269 295 269zM326 399c-79 0 -134 -55 -134 -144c0 -81 55 -141 140 -141c81 0 134 62 134 141c0 92 -58 144 -140 144z" />
    <glyph glyph-name="pi" unicode="&#x3c0;" horiz-adv-x="782" 
d="M747 513v-130h-135v-188c0 -49 5 -80 57 -80c25 0 34 5 61 14v-120c-39 -14 -66 -19 -103 -19c-107 0 -166 43 -166 178v215h-167v-383h-151v383h-123v130h727z" />
    <glyph glyph-name="rho" unicode="&#x3c1;" horiz-adv-x="656" 
d="M332 524c206 0 289 -123 289 -264c0 -175 -132 -272 -271 -272c-58 0 -109 13 -149 31v-219h-151v446c0 143 62 278 282 278zM322 112c77 0 142 47 142 148c0 93 -59 139 -134 139c-60 0 -129 -26 -129 -154v-101c31 -19 71 -32 121 -32z" />
    <glyph glyph-name="sigmafinal" unicode="&#x3c2;" horiz-adv-x="558" 
d="M35 252c0 158 85 272 294 272c70 0 125 -9 184 -29v-129c-44 19 -97 33 -159 33c-98 0 -153 -37 -153 -134c0 -83 51 -123 145 -138c116 -18 172 -46 172 -160c0 -46 -17 -110 -41 -167h-156c11 20 40 83 40 122c0 53 -15 64 -105 78c-89 14 -221 72 -221 252z" />
    <glyph glyph-name="sigma" unicode="&#x3c3;" horiz-adv-x="697" 
d="M327 -11c-184 0 -292 103 -292 262c0 167 115 262 292 262h345v-130h-101c29 -36 40 -83 40 -132c0 -173 -122 -262 -284 -262zM325 112c79 0 132 59 132 139c0 70 -34 107 -76 132h-57c-95 0 -135 -65 -135 -136c0 -93 57 -135 136 -135z" />
    <glyph glyph-name="tau" unicode="&#x3c4;" horiz-adv-x="593" 
d="M563 513v-130h-215v-188c0 -49 15 -80 77 -80c19 0 56 5 83 14v-120c-39 -14 -68 -19 -115 -19c-107 0 -196 43 -196 178v215h-172v130h538z" />
    <glyph glyph-name="upsilon" unicode="&#x3c5;" horiz-adv-x="650" 
d="M315 -12c-230 0 -250 125 -250 231v294h151v-287c0 -81 37 -114 105 -114c88 0 127 56 127 167c0 68 -17 164 -63 234h166c40 -70 54 -142 54 -224c0 -184 -83 -301 -290 -301z" />
    <glyph glyph-name="phi" unicode="&#x3c6;" horiz-adv-x="831" 
d="M491 -200h-151v183c-152 0 -305 69 -305 275c0 171 119 272 305 272v132h151v-132c186 0 305 -101 305 -272c0 -206 -153 -275 -305 -275v-183zM340 102v306c-79 0 -144 -49 -144 -152c0 -98 63 -154 144 -154zM491 408v-306c81 0 144 56 144 154c0 103 -65 152 -144 152
z" />
    <glyph glyph-name="chi" unicode="&#x3c7;" horiz-adv-x="599" 
d="M415 513h179l-210 -352l209 -361h-184l-116 225l-110 -225h-178l210 352l-208 361h183l115 -227z" />
    <glyph glyph-name="psi" unicode="&#x3c8;" horiz-adv-x="841" 
d="M340 -12h-13c-210 0 -262 102 -262 228v297h151v-281c0 -86 42 -120 124 -120v550h152v-550c117 0 147 71 147 174c0 63 -17 157 -63 227h166c40 -70 54 -142 54 -224c0 -179 -99 -300 -305 -301v-188h-151v188z" />
    <glyph glyph-name="omega" unicode="&#x3c9;" horiz-adv-x="826" 
d="M488 381v-193c0 -52 30 -74 70 -74c53 0 71 41 71 100c0 101 -41 222 -100 299h163c63 -86 94 -191 94 -296c0 -133 -60 -227 -208 -227c-91 0 -137 35 -164 92h-2c-27 -57 -73 -92 -164 -92c-148 0 -208 94 -208 227c0 105 31 210 94 296h163
c-59 -77 -100 -198 -100 -299c0 -82 34 -100 72 -100c37 0 69 20 69 74v193h150z" />
    <glyph glyph-name="iotatonos" unicode="&#x3af;" horiz-adv-x="396" 
d="M71 592l34 165h161l-94 -165h-101zM211 513v-320c0 -49 15 -80 77 -80c19 0 56 5 83 14v-120c-39 -14 -68 -19 -115 -19c-107 0 -196 43 -196 178v347h151z" />
    <glyph glyph-name="iotadieresis" unicode="&#x3ca;" horiz-adv-x="396" 
d="M90 715v-129h-149v129h149zM320 715v-129h-149v129h149zM211 513v-320c0 -49 15 -80 77 -80c19 0 56 5 83 14v-120c-39 -14 -68 -19 -115 -19c-107 0 -196 43 -196 178v347h151z" />
    <glyph glyph-name="iotadieresistonos" unicode="&#x390;" horiz-adv-x="396" 
d="M72 592l24 165h161l-84 -165h-101zM-128 592v129h149v-129h-149zM281 592v129h149v-129h-149zM211 513v-320c0 -49 15 -80 77 -80c19 0 56 5 83 14v-120c-39 -14 -68 -19 -115 -19c-107 0 -196 43 -196 178v347h151z" />
    <glyph glyph-name="upsilontonos" unicode="&#x3cd;" horiz-adv-x="650" 
d="M250 592l34 165h161l-94 -165h-101zM315 -12c-230 0 -250 125 -250 231v294h151v-287c0 -81 37 -114 105 -114c88 0 127 56 127 167c0 68 -17 164 -63 234h166c40 -70 54 -142 54 -224c0 -184 -83 -301 -290 -301z" />
    <glyph glyph-name="upsilondieresis" unicode="&#x3cb;" horiz-adv-x="650" 
d="M264 715v-129h-149v129h149zM494 715v-129h-149v129h149zM315 -12c-230 0 -250 125 -250 231v294h151v-287c0 -81 37 -114 105 -114c88 0 127 56 127 167c0 68 -17 164 -63 234h166c40 -70 54 -142 54 -224c0 -184 -83 -301 -290 -301z" />
    <glyph glyph-name="upsilondieresistonos" unicode="&#x3b0;" horiz-adv-x="650" 
d="M236 592l24 165h161l-84 -165h-101zM36 592v129h149v-129h-149zM445 592v129h149v-129h-149zM315 -12c-230 0 -250 125 -250 231v294h151v-287c0 -81 37 -114 105 -114c88 0 127 56 127 167c0 68 -17 164 -63 234h166c40 -70 54 -142 54 -224c0 -184 -83 -301 -290 -301z
" />
    <glyph glyph-name="omicrontonos" unicode="&#x3cc;" horiz-adv-x="658" 
d="M272 592l34 165h161l-94 -165h-101zM330 524c173 0 293 -95 293 -269c0 -173 -120 -266 -293 -266c-174 0 -295 92 -295 266c0 175 121 269 295 269zM326 399c-79 0 -134 -55 -134 -144c0 -81 55 -141 140 -141c81 0 134 62 134 141c0 92 -58 144 -140 144z" />
    <glyph glyph-name="omegatonos" unicode="&#x3ce;" horiz-adv-x="826" 
d="M361 592l34 165h161l-94 -165h-101zM488 381v-193c0 -52 30 -74 70 -74c53 0 71 41 71 100c0 101 -41 222 -100 299h163c63 -86 94 -191 94 -296c0 -133 -60 -227 -208 -227c-91 0 -137 35 -164 92h-2c-27 -57 -73 -92 -164 -92c-148 0 -208 94 -208 227
c0 105 31 210 94 296h163c-59 -77 -100 -198 -100 -299c0 -82 34 -100 72 -100c37 0 69 20 69 74v193h150z" />
    <glyph glyph-name="alphatonos" unicode="&#x3ac;" horiz-adv-x="671" 
d="M273 592l34 165h161l-94 -165h-101zM487 0l-14 45c-38 -33 -109 -57 -167 -57c-147 0 -271 101 -271 271c0 185 129 265 277 265c64 0 127 -23 170 -50l12 39h112v-513h-119zM334 113c49 0 90 18 121 39v211c-34 21 -76 37 -125 37c-81 0 -138 -46 -138 -140
c0 -102 65 -147 142 -147z" />
    <glyph glyph-name="epsilontonos" unicode="&#x3ad;" horiz-adv-x="554" 
d="M244 592l34 165h161l-94 -165h-101zM499 138v-127c-75 -17 -133 -23 -210 -23c-186 0 -254 70 -254 160c0 56 28 105 89 119c-60 24 -73 66 -73 105c0 139 151 152 263 152c71 0 142 -11 185 -29v-129c-47 20 -111 30 -185 30c-79 0 -108 -17 -108 -48
c0 -23 19 -34 54 -34h127v-115h-144c-40 0 -51 -18 -51 -38c0 -39 43 -48 136 -48c49 0 110 5 171 25z" />
    <glyph glyph-name="etatonos" unicode="&#x3ae;" horiz-adv-x="663" 
d="M256 592l34 165h161l-94 -165h-101zM407 524c113 -2 191 -48 191 -205v-519h-151v500c0 63 -22 99 -89 99c-65 0 -110 -25 -142 -48v-351h-151v513h122l16 -54c44 29 117 67 204 65z" />
    <glyph glyph-name="Sevenroman" unicode="&#x2166;" horiz-adv-x="1263" 
d="M518 650h170c-70 -235 -161 -478 -243 -650h-225c-89 191 -177 433 -235 650h167s102 -351 182 -528c81 183 174 494 184 528zM898 0h-155v650h155v-650zM1193 0h-155v650h155v-650z" />
    <glyph glyph-name="anoteleia" unicode="&#x387;" horiz-adv-x="252" 
d="M45 358v155h162v-155h-162z" />
    <glyph glyph-name="uni037E" unicode="&#x37e;" horiz-adv-x="286" 
d="M79 325v155h162v-155h-162zM21 -131l56 286h162l-86 -286h-132z" />
    <glyph glyph-name="Ohm" unicode="&#x2126;" horiz-adv-x="780" 
d="M740 338c0 -94 -35 -161 -85 -207h80v-131h-301v122c86 0 144 80 144 215c0 121 -85 187 -189 187s-187 -66 -187 -187c0 -135 58 -215 143 -215v-122h-300v131h80c-50 46 -85 113 -85 207c0 223 183 324 350 324s350 -101 350 -324z" />
    <glyph glyph-name="increment" unicode="&#x2206;" horiz-adv-x="683" 
d="M231 650h216c79 -169 163 -379 223 -562v-88h-658v88c66 203 147 412 219 562zM186 131h299c-44 134 -88 256 -151 404c-56 -130 -105 -267 -148 -404z" />
    <glyph glyph-name="uni00B5" unicode="&#xb5;" horiz-adv-x="658" 
d="M593 0h-122l-16 54c-44 -29 -121 -64 -199 -64c-15 0 -28 3 -40 7v-197h-151v713h151v-300c0 -63 22 -99 89 -99c56 0 105 25 137 48v351h151v-513z" />
    <glyph glyph-name="uni0374" unicode="&#x374;" horiz-adv-x="255" 
d="M30 522l34 215h161l-94 -215h-101z" />
    <glyph glyph-name="uni0375" unicode="&#x375;" horiz-adv-x="255" 
d="M225 71l-34 -215h-161l94 215h101z" />
    <glyph glyph-name="tonos" unicode="&#x384;" horiz-adv-x="255" 
d="M30 592l34 165h161l-94 -165h-101z" />
    <glyph glyph-name="dieresistonos" unicode="&#x385;" horiz-adv-x="618" 
d="M230 592l24 165h161l-84 -165h-101zM30 592v129h149v-129h-149zM439 592v129h149v-129h-149z" />
    <glyph glyph-name="tonos.cap" horiz-adv-x="255" 
d="M30 485l34 165h161l-94 -165h-101z" />
    </font>
</defs>
</svg>
